<svg width="101" height="101" viewBox="0 0 101 101" fill="none" xmlns="http://www.w3.org/2000/svg">
<g clip-path="url(#clip0_240_8457)">
<path d="M87.4623 55.7268C88.6176 55.2124 89.2707 54.4181 89.6785 53.3556C90.6919 50.2614 88.5405 45.4302 84.5898 38.254C84.356 37.7289 83.597 37.4376 83.0136 37.8232C82.4885 38.0571 82.1972 38.816 82.5828 39.3994C84.6398 42.8882 88.3452 49.7962 87.5534 52.54C87.3786 52.9953 87.0521 53.3925 86.5269 53.6263C84.7415 54.4214 82.2307 53.0224 80.5372 51.7629C80.4904 51.6579 80.3386 51.5996 80.2919 51.4946C80.5906 44.8172 78.518 35.9237 75.7587 29.7272C72.5784 22.5854 68.8057 19.483 65.2349 21.0732C56.9378 24.7679 68.5906 45.001 77.923 52.6753C77.3208 59.2361 74.275 60.5924 68.9959 56.6506C69.4324 46.8914 64.8336 31.1942 59.0055 26.8676C55.6184 24.3486 51.1138 26.1028 51.3279 31.6708C51.4346 33.8887 52.1369 36.5963 53.54 39.7471C56.2993 45.9436 61.5227 53.4341 66.6853 57.6795C66.7321 57.7845 66.6738 57.9363 66.7206 58.0413C66.0247 64.3921 63.189 65.6549 58.0034 61.9231C57.9567 61.8181 57.8049 61.7599 57.7581 61.6548C58.0568 54.9775 55.9842 46.084 53.2249 39.8874C50.0446 32.7457 46.2719 29.6433 42.8061 31.1867C34.5091 34.8814 46.2669 55.0677 55.4943 62.7888C54.9388 69.4546 51.7412 70.7526 46.4621 66.8108C46.7608 60.1335 44.7932 51.1932 42.0339 44.9967C39.9761 40.3755 36.1312 34.2849 31.6151 36.2959C26.994 38.3537 29.0534 45.2395 31.1112 49.8606C33.8706 56.0571 39.0939 63.5476 44.3616 67.7462C43.806 74.4121 40.6552 75.8151 35.3293 71.7683C35.628 65.091 33.6605 56.1507 30.9012 49.9541C28.8434 45.333 24.9985 39.2423 20.4824 41.2534C15.8612 43.3112 17.9207 50.1969 19.9785 54.8181C22.7378 61.0146 27.9612 68.5051 33.2288 72.7037C32.9392 75.7273 32.0653 78.0042 30.4899 78.7057C28.2844 79.6878 25.4339 76.6782 23.4943 74.0181C23.1554 73.5397 22.4432 73.3535 21.8598 73.7391C21.3814 74.078 21.2534 74.6384 21.4873 75.1635L21.5808 75.3736C25.1681 80.3204 28.3795 82.1625 31.3203 80.853C33.4208 79.9176 34.7147 77.4536 35.1677 74.2315C41.1705 78.1027 45.3715 76.232 46.5105 69.1805C52.4083 73.0985 56.7143 71.181 57.7482 64.1763C63.5993 67.9892 68.0571 66.13 69.091 59.1253C74.9421 62.9382 79.2481 61.0207 80.3288 54.121C82.8633 56.1387 85.4668 56.6154 87.4623 55.7268ZM66.1702 23.1737C68.6908 22.0512 71.6939 26.2515 73.6582 30.6625C76.2772 36.544 77.9051 43.8736 78.0609 49.5934C69.3586 41.6385 61.339 25.325 66.1702 23.1737ZM55.4887 38.7535C54.2259 35.9178 53.5121 33.4669 53.394 31.5059C53.2397 28.0507 55.5388 27.2786 57.5359 28.6546C59.1827 29.8091 60.8188 32.3527 62.2686 35.6085C64.7473 41.1749 66.5738 48.6678 66.7181 54.6444C62.4663 50.7486 58.1077 44.6349 55.4887 38.7535ZM43.5897 33.2289C46.1103 32.1065 49.0083 36.3535 50.9726 40.7645C53.5916 46.646 55.2195 53.9756 55.3753 59.6954C46.7781 51.6937 38.7585 35.3803 43.5897 33.2289ZM32.9081 48.8087C31.5986 45.868 29.4112 39.5427 32.2469 38.2799C35.1876 36.9704 38.3203 42.8748 39.6298 45.8155C42.2488 51.697 43.8767 59.0266 44.0793 64.8514C39.8857 60.8038 35.5272 54.6902 32.9081 48.8087ZM21.5654 53.8597C20.2558 50.919 18.0684 44.5937 20.9041 43.3309C23.8448 42.0214 26.9775 47.9258 28.287 50.8665C30.906 56.748 32.5339 64.0776 32.7365 69.9024C28.5897 65.9599 24.1844 59.7412 21.5654 53.8597Z" fill="#D80E7E"/>
</g>
<defs>
<clipPath id="clip0_240_8457">
<rect width="75.8791" height="75.8791" fill="white" transform="translate(69.3171) rotate(65.9964)"/>
</clipPath>
</defs>
</svg>
