<svg width="86" height="50" viewBox="0 0 86 50" fill="none" xmlns="http://www.w3.org/2000/svg">
<path d="M61.779 10.7803C62.1225 12.5344 62.6981 14.3526 63.4547 16.0098C64.7751 15.3904 64.7248 13.6166 64.6678 12.4878C64.5715 10.561 63.4882 8.36386 61.9792 6.96753C61.0551 7.95253 61.5603 9.66286 61.779 10.7803Z" fill="#090D2D"/>
<path d="M62.895 17.8853C64.2029 18.9113 64.9955 20.8128 65.179 22.5107C63.9423 22.6519 62.9537 21.5323 62.2181 20.7641C61.216 19.7182 60.2676 18.4063 59.666 17.0339C60.8449 16.3941 62.0438 17.217 62.895 17.8853Z" fill="#090D2D"/>
<path d="M65.1618 17.0193C64.928 18.7906 64.928 20.7072 65.1609 22.5132C66.5995 22.3374 67.077 20.6194 67.3586 19.5417C67.8453 17.6813 67.5186 15.2783 66.571 13.4698C65.3863 14.1221 65.31 15.8871 65.1618 17.0193Z" fill="#090D2D"/>
<path d="M63.9226 23.9632C64.9574 25.4708 65.321 27.8333 64.856 29.7323C63.4886 29.4103 62.8108 27.8707 62.2662 26.7832C61.5432 25.3379 60.9316 23.6518 60.7129 21.9976C62.1959 21.6906 63.2415 22.97 63.9226 23.9632Z" fill="#090D2D"/>
<path d="M66.639 23.8108C65.833 25.6672 65.2037 27.7105 64.8359 29.7278C66.4035 30.0629 67.5321 28.4251 68.1881 27.3391C69.3552 25.4059 69.6954 22.726 69.2681 20.4133C67.8329 20.6996 67.1299 22.68 66.639 23.8108Z" fill="#090D2D"/>
<path d="M63.1982 30.5227C63.7537 32.3515 63.3683 34.8378 62.2431 36.5571C61.0073 35.7566 60.8355 33.9948 60.6604 32.7315C60.43 31.0645 60.3211 29.2178 60.6076 27.4893C62.1886 27.69 62.8271 29.3009 63.1982 30.5227Z" fill="#090D2D"/>
<path d="M65.9463 31.3056C64.5597 32.8888 63.2803 34.6937 62.2246 36.5453C63.6556 37.4339 65.3355 36.2199 66.3543 35.3607C68.1607 33.8366 69.3345 31.2462 69.6127 28.804C68.1087 28.603 66.7833 30.3505 65.9463 31.3056Z" fill="#090D2D"/>
<path d="M29.5655 17.1842C29.5655 17.0572 29.5655 15.2095 29.5655 15.2095H28.4616C28.4616 15.2095 28.4616 17.0286 28.4616 17.086C28.4616 17.4219 28.1486 17.6472 27.6213 17.6472C27.0694 17.6472 26.7687 17.4301 26.7687 17.0818C26.7687 17.0245 26.7687 15.2095 26.7687 15.2095H25.6523C25.6523 15.2095 25.6523 16.9343 25.6523 17.0818C25.6523 18.0569 26.4556 18.4707 27.576 18.4707C28.7747 18.4707 29.5655 18.0528 29.5655 17.1842Z" fill="#090D2D"/>
<path d="M33.2825 18.4256V17.5694H31.3136V15.2095H30.1973V18.4256H33.2825Z" fill="#090D2D"/>
<path d="M36.5999 16.0166V15.2095H32.7402V16.0166H34.1036V18.4256H35.2323V16.0166H36.5999Z" fill="#090D2D"/>
<path d="M38.0839 18.4255V15.2094H36.9512V18.4255H38.0839Z" fill="#090D2D"/>
<path d="M43.2826 18.4256V15.2095H41.8862L41.0047 17.1392L40.1644 15.2095H38.7227V18.4256H39.7731V16.6886L40.531 18.4256H41.4702L42.2363 16.6886V18.4256H43.2826Z" fill="#090D2D"/>
<path d="M45.0328 17.8316H46.7793L47.0636 18.4256H48.254L46.6228 15.2095H45.2924L43.5664 18.4256H44.7321L45.0328 17.8316ZM46.4292 17.1105H45.3953L45.8031 16.3361L45.9267 16.0412L46.042 16.3321L46.4292 17.1105Z" fill="#090D2D"/>
<path d="M51.754 16.0166V15.2095H47.8945V16.0166H49.2579V18.4256H50.3867V16.0166H51.754Z" fill="#090D2D"/>
<path d="M55.5074 18.4256V17.6267H53.1891V17.2088H55.4127V16.4263H53.1891V16.0125H55.4789V15.2095H52.1016V18.4256H55.5074Z" fill="#090D2D"/>
<path d="M34.0721 20.1353H33.0052C33.0052 20.1353 32.3091 22.1592 32.3091 22.2083C32.3091 22.1592 31.6582 20.1353 31.6582 20.1353H30.5008C30.5008 20.1353 29.854 22.1592 29.854 22.2083C29.854 22.1592 29.1538 20.1353 29.1538 20.1353H27.9551L29.1662 23.3514H30.3731C30.3731 23.3514 31.0239 21.4299 31.028 21.3767C31.0321 21.4299 31.6788 23.3514 31.6788 23.3514H32.8899L34.0721 20.1353Z" fill="#090D2D"/>
<path d="M35.5312 23.3514V20.1353H34.3984V23.3514H35.5312Z" fill="#090D2D"/>
<path d="M39.9371 23.3514V20.1353H38.8826V21.8847L37.3296 20.1353H36.168V23.3514H37.2308V21.561L38.8331 23.3514H39.9371Z" fill="#090D2D"/>
<path d="M44.3491 23.3514V20.1353H43.2946V21.8847L41.7417 20.1353H40.5801V23.3514H41.6428V21.561L43.2452 23.3514H44.3491Z" fill="#090D2D"/>
<path d="M48.3988 23.3514V22.5525H46.0797V22.1346H48.304V21.3521H46.0797V20.9383H48.3699V20.1353H44.9922V23.3514H48.3988Z" fill="#090D2D"/>
<path d="M52.7548 21.1144C52.7548 20.8236 52.6844 20.6146 52.5361 20.463C52.3425 20.2582 52.0091 20.1353 51.498 20.1353H48.9238V23.3514H50.0237V22.2166H51.0246L51.8281 23.3514H53.0555L52.0795 22.0403C52.2973 22.0076 52.4749 21.8765 52.5897 21.7208C52.6928 21.5774 52.7548 21.3643 52.7548 21.1144ZM51.684 21.2168C51.684 21.2702 51.6756 21.3357 51.6463 21.3848C51.6052 21.4668 51.498 21.4996 51.3212 21.4996H50.0278V20.9137H51.3003C51.4737 20.9137 51.5893 20.9423 51.6463 21.0489C51.6756 21.0898 51.684 21.1554 51.684 21.2168Z" fill="#090D2D"/>
<path d="M30.0297 26.5157C30.0297 26.4631 30.0297 24.9441 30.0297 24.9441H29.644C29.644 24.9441 29.644 26.4568 29.644 26.4909C29.644 26.8559 29.2987 27.0633 28.801 27.0633C28.2132 27.0633 27.9239 26.8405 27.9239 26.4878C27.9239 26.4538 27.9239 24.9441 27.9239 24.9441H27.5352C27.5352 24.9441 27.5352 26.4167 27.5352 26.4754C27.5352 27.1189 28.039 27.4035 28.7855 27.4035C29.5569 27.4035 30.0297 27.1003 30.0297 26.5157Z" fill="#090D2D"/>
<path d="M32.798 27.3726V27.0168H31.1153V24.9441H30.7266V27.3726H32.798Z" fill="#090D2D"/>
<path d="M35.0062 25.2968V24.9441H32.4121V25.2968H33.5132V27.3726H33.9051V25.2968H35.0062Z" fill="#090D2D"/>
<path d="M37.7704 25.6308C37.7704 25.4576 37.7331 25.3308 37.6678 25.2287C37.5527 25.0585 37.3318 24.9441 36.9648 24.9441H35.3848V27.3726H35.7673V26.3486H36.8808L37.562 27.3726H38.0099L37.2727 26.2836C37.4593 26.262 37.6055 26.1568 37.6833 26.0207C37.7393 25.9278 37.7704 25.7918 37.7704 25.6308ZM37.3847 25.6618C37.3847 25.7298 37.3692 25.8134 37.3412 25.8691C37.2914 25.9588 37.1763 26.0052 36.9897 26.0083H35.7704C35.7704 26.0021 35.7704 25.2906 35.7704 25.2906H36.9182C37.1514 25.2906 37.2759 25.3463 37.3412 25.4514C37.3692 25.5009 37.3847 25.5844 37.3847 25.6618Z" fill="#090D2D"/>
<path d="M38.8771 26.7724H40.3981L40.7091 27.3726H41.1259L39.8879 24.9441H39.4307L38.1523 27.3726H38.5598L38.8771 26.7724ZM40.2363 26.429H39.0451L39.5396 25.4978L39.6485 25.272L39.7573 25.4978L40.2363 26.429Z" fill="#090D2D"/>
<path d="M45.0718 27.1406C45.1682 27.0292 45.2118 26.8714 45.2118 26.7013C45.2118 26.5404 45.1651 26.3795 45.0687 26.2805C44.9722 26.1878 44.8167 26.1104 44.6456 26.0949C44.7452 26.0794 44.8229 26.0176 44.8758 25.9526C44.9598 25.8567 45.0095 25.702 45.0095 25.5473C45.0095 25.3833 44.9598 25.2348 44.854 25.1328C44.739 25.0183 44.543 24.9441 44.2693 24.9441H42.627V27.3726H44.3906C44.7203 27.3726 44.9504 27.2891 45.0718 27.1406ZM44.6083 25.6247C44.6083 25.7329 44.5741 25.8288 44.515 25.8845C44.4559 25.9495 44.3563 25.9773 44.2506 25.9773H43.0064V25.2782H44.179C44.3222 25.2782 44.431 25.306 44.5056 25.3741C44.571 25.4359 44.6083 25.5257 44.6083 25.6247ZM44.7327 26.9054C44.6549 26.9921 44.5212 27.0354 44.3253 27.0354H43.0064V26.3146H44.3346C44.515 26.3146 44.6394 26.3517 44.7141 26.4228C44.7825 26.4878 44.8105 26.5713 44.8105 26.6673C44.8105 26.7663 44.7887 26.8498 44.7327 26.9054Z" fill="#090D2D"/>
<path d="M48.0346 27.3726V27.0168H46.1374V26.3238H47.96V25.9712H46.1374V25.2968H48.0129V24.9441H45.7578V27.3726H48.0346Z" fill="#090D2D"/>
<path d="M51.0748 26.6548C51.0748 26.2588 50.8109 26.0546 50.1607 25.9804C50.0515 25.9649 49.8151 25.9402 49.6876 25.9247C49.0842 25.8535 48.9007 25.7731 48.9007 25.5659C48.9007 25.3648 49.1029 25.2503 49.7125 25.2503C50.185 25.2503 50.428 25.3431 50.5495 25.5101C50.5838 25.5565 50.6023 25.6123 50.6115 25.6555H51.0279C51.0161 25.5844 50.9877 25.4854 50.9441 25.4049C50.7765 25.1173 50.4313 24.9099 49.7125 24.9099C48.854 24.9069 48.4995 25.2163 48.4995 25.5999C48.4995 25.9834 48.7763 26.1784 49.4948 26.2619C49.6192 26.2774 49.84 26.3021 49.9489 26.3145C50.5059 26.3825 50.6802 26.4661 50.6802 26.6981C50.6802 26.9116 50.4808 27.0663 49.8431 27.0663C49.3206 27.0663 49.0406 26.9734 48.9287 26.794C48.8945 26.7445 48.8727 26.6672 48.8696 26.6146H48.459C48.4684 26.7259 48.4995 26.8466 48.5554 26.9425C48.7172 27.2364 49.0967 27.4066 49.8307 27.4066C50.7078 27.4066 51.0748 27.125 51.0748 26.6548Z" fill="#090D2D"/>
<path d="M53.8615 25.2968V24.9441H51.2676V25.2968H52.3685V27.3726H52.7606V25.2968H53.8615Z" fill="#090D2D"/>
<path d="M26.4359 29.4834C26.4359 29.2359 26.3861 29.0688 26.3021 28.942C26.184 28.7594 25.9537 28.6636 25.5525 28.6636H24.0098V31.0921H24.3954V30.3001C24.3954 30.3001 25.4841 30.3001 25.537 30.3001C25.9133 30.297 26.1715 30.2104 26.3084 30.0124C26.3954 29.8917 26.4359 29.7185 26.4359 29.4834ZM26.044 29.4834C26.044 29.6071 26.0315 29.6999 25.9911 29.7618C25.9195 29.8762 25.7733 29.9474 25.4716 29.9474C25.4436 29.9474 24.3954 29.9474 24.3954 29.9474V29.0101H25.4841C25.7671 29.0101 25.9133 29.075 25.9911 29.2018C26.0284 29.2575 26.044 29.3597 26.044 29.4834Z" fill="#090D2D"/>
<path d="M29.2495 31.0921V30.7363H27.3521V30.0433H29.1748V29.6907H27.3521V29.0162H29.2277V28.6636H26.9727V31.0921H29.2495Z" fill="#090D2D"/>
<path d="M32.2177 29.3503C32.2177 29.1771 32.1804 29.0502 32.1151 28.9482C31.9999 28.778 31.7792 28.6636 31.4121 28.6636H29.832V31.0921H30.2146V30.0681H31.3282L32.0093 31.0921H32.4572L31.72 30.0031C31.9067 29.9815 32.0529 29.8762 32.1306 29.7402C32.1866 29.6473 32.2177 29.5112 32.2177 29.3503ZM31.832 29.3812C31.832 29.4493 31.8164 29.5329 31.7885 29.5886C31.7387 29.6782 31.6236 29.7247 31.437 29.7277H30.2177C30.2177 29.7216 30.2177 29.0101 30.2177 29.0101H31.3654C31.5987 29.0101 31.7231 29.0657 31.7885 29.1709C31.8164 29.2204 31.832 29.3039 31.832 29.3812Z" fill="#090D2D"/>
<path d="M35.1008 29.0162V28.6636H32.9297V31.0921H33.3153V30.0588H35.0199V29.6968H33.3153V29.0162H35.1008Z" fill="#090D2D"/>
<path d="M36.8718 28.6201C36.3523 28.6201 35.9947 28.747 35.7395 29.013C35.525 29.2203 35.4316 29.508 35.4316 29.87C35.4316 30.266 35.553 30.563 35.7769 30.764C36.0165 31.0023 36.3834 31.126 36.8718 31.126C37.3757 31.126 37.7675 31.0023 38.0009 30.7516C38.203 30.5475 38.3088 30.2567 38.3088 29.8669C38.3088 29.4895 38.2185 29.2017 38.004 28.9975C37.7582 28.7439 37.3912 28.6201 36.8718 28.6201ZM36.8718 30.7795C36.5296 30.7795 36.287 30.7053 36.1035 30.5568C35.9169 30.4052 35.8267 30.1731 35.8267 29.8761C35.8267 29.5977 35.9044 29.3657 36.0537 29.2265C36.2248 29.0656 36.4861 28.9697 36.8687 28.9697C37.2637 28.9697 37.5094 29.0625 37.6929 29.2234C37.8485 29.3595 37.9168 29.6008 37.9168 29.873C37.9168 30.1484 37.8454 30.3835 37.6867 30.5258C37.5032 30.696 37.2451 30.7795 36.8718 30.7795Z" fill="#090D2D"/>
<path d="M41.2255 29.3503C41.2255 29.1771 41.1881 29.0502 41.1229 28.9482C41.0077 28.778 40.7869 28.6636 40.4199 28.6636H38.8398V31.0921H39.2224V30.0681H40.3359L41.0171 31.0921H41.465L40.7278 30.0031C40.9144 29.9815 41.0606 29.8762 41.1384 29.7402C41.1944 29.6473 41.2255 29.5112 41.2255 29.3503ZM40.8398 29.3812C40.8398 29.4493 40.8243 29.5329 40.7963 29.5886C40.7465 29.6782 40.6314 29.7247 40.4448 29.7277H39.2255C39.2255 29.7216 39.2255 29.0101 39.2255 29.0101H40.3733C40.6065 29.0101 40.7309 29.0657 40.7963 29.1709C40.8243 29.2204 40.8398 29.3039 40.8398 29.3812Z" fill="#090D2D"/>
<path d="M44.9472 31.0921V28.6636H44.4433L43.4387 30.6621L42.4526 28.6636H41.9395V31.0921H42.3096V29.2235L43.2302 31.0921H43.6346L44.5771 29.2235V31.0921H44.9472Z" fill="#090D2D"/>
<path d="M46.0372 30.4919H47.5582L47.8692 31.0921H48.2861L47.0481 28.6636H46.5909L45.3125 31.0921H45.7199L46.0372 30.4919ZM47.3965 30.1485H46.2052L46.6997 29.2173L46.8086 28.9915L46.9175 29.2173L47.3965 30.1485Z" fill="#090D2D"/>
<path d="M51.09 31.0921V28.6636H50.7197V30.5507L49.1027 28.6636H48.6641V31.0921H49.0404V29.1926L50.6703 31.0921H51.09Z" fill="#090D2D"/>
<path d="M54.4443 30.1855H54.0397C54.0271 30.2969 53.9835 30.4083 53.9056 30.4918C53.738 30.6867 53.4708 30.7702 53.0602 30.7702C52.715 30.7702 52.3447 30.6743 52.1671 30.4237C52.0741 30.3062 52.0146 30.1329 52.0146 29.873C52.0146 29.641 52.0557 29.4678 52.1453 29.3502C52.2944 29.112 52.6086 28.9883 53.051 28.9883C53.48 28.9883 53.7506 29.1058 53.8939 29.2698C53.9743 29.3564 54.0212 29.4585 54.0363 29.5791H54.441C54.4284 29.443 54.3848 29.2821 54.2918 29.146C54.0924 28.8521 53.7255 28.6201 53.0535 28.6201C52.4134 28.6201 52.0305 28.8243 51.8186 29.1305C51.682 29.3069 51.6133 29.5544 51.6133 29.87C51.6133 30.2226 51.6979 30.4825 51.8437 30.665C52.0557 30.9528 52.4628 31.126 53.0787 31.126C53.7104 31.126 54.0866 30.9373 54.2734 30.6372C54.379 30.4918 54.4318 30.3185 54.4443 30.1855Z" fill="#090D2D"/>
<path d="M57.2284 31.0921V30.7363H55.3307V30.0433H57.1538V29.6907H55.3307V29.0162H57.2066V28.6636H54.9512V31.0921H57.2284Z" fill="#090D2D"/>
<path d="M28.783 33.5044L29.2482 34.9284H30.7535L29.5357 35.8085L30.0009 37.2324L28.783 36.3524L27.5651 37.2324L28.0304 35.8085L26.8125 34.9284H28.3178L28.783 33.5044Z" fill="#090D2D"/>
<path d="M34.1533 33.5046L34.6279 34.9286H36.164L34.9214 35.8086L35.396 37.2326L34.1533 36.3526L32.9106 37.2326L33.3853 35.8086L32.1426 34.9286H33.6787L34.1533 33.5046Z" fill="#090D2D"/>
<path d="M39.4814 33.5046L39.9561 34.9286H41.4922L40.2495 35.8086L40.7242 37.2326L39.4814 36.3526L38.2387 37.2326L38.7134 35.8086L37.4707 34.9286H39.0068L39.4814 33.5046Z" fill="#090D2D"/>
<path d="M44.8096 33.5046L45.2842 34.9286H46.8203L45.5776 35.8086L46.0522 37.2326L44.8096 36.3526L43.5669 37.2326L44.0415 35.8086L42.7988 34.9286H44.3349L44.8096 33.5046Z" fill="#090D2D"/>
<path d="M50.1796 33.5046L50.6446 34.9286H52.1502L50.932 35.8086L51.397 37.2326L50.1796 36.3526L48.9616 37.2326L49.4269 35.8086L48.209 34.9286H49.7143L50.1796 33.5046Z" fill="#090D2D"/>
<path d="M31.3922 9.48022L31.7439 10.5569H32.8821L31.9613 11.2223L32.3131 12.2989L31.3922 11.6336L30.4714 12.2989L30.8231 11.2223L29.9023 10.5569H31.0405L31.3922 9.48022Z" fill="#090D2D"/>
<path d="M35.452 9.47876L35.8109 10.5554H36.9722L36.0327 11.2208L36.3915 12.2974L35.452 11.632L34.5123 12.2974L34.8713 11.2208L33.9316 10.5554H35.0931L35.452 9.47876Z" fill="#090D2D"/>
<path d="M39.4813 9.47876L39.8401 10.5554H41.0015L40.062 11.2208L40.4208 12.2974L39.4813 11.632L38.5416 12.2974L38.9006 11.2208L37.9609 10.5554H39.1223L39.4813 9.47876Z" fill="#090D2D"/>
<path d="M43.5086 9.47876L43.8675 10.5554H45.0289L44.0893 11.2208L44.4482 12.2974L43.5086 11.632L42.569 12.2974L42.9279 11.2208L41.9883 10.5554H43.1497L43.5086 9.47876Z" fill="#090D2D"/>
<path d="M47.5699 9.47876L47.9216 10.5554H49.0598L48.1391 11.2208L48.4908 12.2974L47.5699 11.632L46.6491 12.2974L47.0009 11.2208L46.0801 10.5554H47.2182L47.5699 9.47876Z" fill="#090D2D"/>
<path fill-rule="evenodd" clip-rule="evenodd" d="M15.1793 28.8587C13.6271 19.1996 18.1571 9.64314 27.226 5.53931L27.3097 5.72231C18.3321 9.78481 13.8395 19.2478 15.3789 28.827C17.0819 39.4247 25.6776 45.7806 36.2038 46.087L36.1979 46.288C25.5897 45.9791 16.8999 39.5658 15.1793 28.8587Z" fill="#090D2D"/>
<path d="M25.2616 8.00436C23.5856 8.04236 21.6242 8.98236 20.4668 10.3477C21.395 11.2049 22.8883 10.888 23.963 10.7127C25.4968 10.4625 27.1279 9.97786 28.5753 9.29178C27.9802 8.03178 26.3771 7.97911 25.2616 8.00436Z" fill="#090D2D"/>
<path d="M23.9432 5.94813C22.9505 7.48613 21.7675 9.01471 20.4801 10.3608C19.4029 9.35513 20.0531 7.68155 20.4927 6.6408C21.2891 4.75496 23.1984 3.12871 25.1946 2.29663C25.7424 3.53638 24.5525 5.00413 23.9432 5.94813Z" fill="#090D2D"/>
<path d="M20.4112 12.3171C18.842 12.8719 17.4935 14.4338 16.8164 16.0018C17.9448 16.5236 19.2276 15.77 20.1661 15.2683C21.4547 14.5793 22.7693 13.6286 23.8037 12.5284C22.8691 11.5476 21.45 11.9499 20.4112 12.3171Z" fill="#090D2D"/>
<path d="M18.5073 10.7803C18.1637 12.5344 17.5878 14.3526 16.8314 16.0098C15.5111 15.3904 15.5614 13.6166 15.618 12.4878C15.7145 10.561 16.7982 8.36386 18.3071 6.96753C19.2308 7.95253 18.7261 9.66286 18.5073 10.7803Z" fill="#090D2D"/>
<path d="M17.3912 17.8853C16.0836 18.9113 15.291 20.8128 15.1074 22.5107C16.3444 22.6519 17.3331 21.5323 18.0688 20.7641C19.0705 19.7182 20.0187 18.4063 20.6208 17.0339C19.4416 16.3941 18.2429 17.217 17.3912 17.8853Z" fill="#090D2D"/>
<path d="M15.1261 17.0192C15.3593 18.7906 15.3598 20.7071 15.1265 22.5131C13.688 22.3373 13.2108 20.6193 12.929 19.5416C12.4424 17.6812 12.7686 15.2782 13.7165 13.4697C14.9012 14.122 14.9772 15.887 15.1261 17.0192Z" fill="#090D2D"/>
<path d="M16.3652 23.9632C15.3305 25.4708 14.9666 27.8333 15.4319 29.7323C16.7993 29.4103 17.4771 27.8706 18.0213 26.7832C18.7446 25.3379 19.356 23.6518 19.5749 21.9976C18.0918 21.6906 17.0468 22.97 16.3652 23.9632Z" fill="#090D2D"/>
<path d="M13.6481 23.8108C14.4542 25.6672 15.0834 27.7105 15.4515 29.7278C13.8833 30.0629 12.7547 28.4251 12.099 27.3391C10.9316 25.4059 10.5915 22.726 11.0192 20.4133C12.4545 20.6996 13.1568 22.68 13.6481 23.8108Z" fill="#090D2D"/>
<path d="M17.0892 30.5227C16.5336 32.3515 16.9198 34.8378 18.0447 36.5571C19.2808 35.7566 19.4519 33.9948 19.6271 32.7315C19.8581 31.0645 19.9668 29.2178 19.6799 27.4893C18.0988 27.69 17.4603 29.3009 17.0892 30.5227Z" fill="#090D2D"/>
<path d="M14.3415 31.3056C15.7286 32.8887 17.0082 34.6937 18.0634 36.5453C16.6322 37.4339 14.9528 36.2199 13.9342 35.3607C12.1273 33.8366 10.9539 31.2462 10.6758 28.804C12.1795 28.603 13.5047 30.3505 14.3415 31.3056Z" fill="#090D2D"/>
<path d="M20.0039 36.7473C20.1231 38.8761 21.5165 41.1098 23.3719 42.3813C24.2678 41.1612 23.7062 39.2918 23.4006 37.9868C22.9891 36.2299 22.4197 34.4004 21.5734 32.7771C20.0976 33.5528 19.9254 35.3454 20.0039 36.7473Z" fill="#090D2D"/>
<path d="M17.5095 38.5454C19.5196 39.6564 21.5239 40.9673 23.3874 42.3622C22.2714 43.8239 20.0407 43.241 18.6579 42.7712C16.2212 41.9433 14.0487 39.7608 12.9141 37.336C14.3527 36.5989 16.3221 37.8892 17.5095 38.5454Z" fill="#090D2D"/>
<path d="M25.7294 41.9477C26.9358 44.1375 29.685 45.5661 32.2739 45.91C32.5526 44.318 30.8207 42.7418 29.8769 41.7106C28.5333 40.2425 27.1332 38.719 25.5634 37.4497C24.3873 38.8079 25.0091 40.6403 25.7294 41.9477Z" fill="#090D2D"/>
<path d="M24.0059 44.7232C26.7483 45.0067 29.5371 45.415 32.2778 45.8857C32.0162 47.8944 28.8113 48.2186 27.3564 48.3372C24.3733 48.5803 21.0548 47.3877 18.7441 45.3798C19.8918 44.0367 22.5452 44.5722 24.0059 44.7232Z" fill="#090D2D"/>
<path d="M29.2874 3.85342C27.4463 4.37583 25.2912 5.36692 24.2266 7.19642C26.159 6.98692 28.0583 6.303 29.9157 5.78192C31.9963 5.19817 34.1869 4.76158 36.2013 3.95583C33.9952 3.078 31.3948 3.25542 29.2874 3.85342Z" fill="#090D2D"/>
<path fill-rule="evenodd" clip-rule="evenodd" d="M64.9068 28.827C66.4459 19.2478 61.9534 9.78497 52.976 5.72231L53.0598 5.53931C62.1286 9.64322 66.6587 19.1996 65.1062 28.8587C63.3862 39.5658 54.6961 45.9791 44.0879 46.288L44.082 46.087C54.6081 45.7806 63.2035 39.4247 64.9068 28.827Z" fill="#090D2D"/>
<path d="M55.0265 8.00436C56.7022 8.04236 58.6636 8.98236 59.8215 10.3477C58.8932 11.2049 57.3993 10.888 56.3252 10.7127C54.7911 10.4625 53.1598 9.97786 51.7129 9.29178C52.3078 8.03178 53.9105 7.97911 55.0265 8.00436Z" fill="#090D2D"/>
<path d="M56.3433 5.94813C57.3362 7.48613 58.5192 9.01471 59.8061 10.3608C60.8836 9.35513 60.2334 7.68155 59.7936 6.6408C58.9976 4.75496 57.0882 3.12871 55.0916 2.29663C54.5437 3.53638 55.7342 5.00413 56.3433 5.94813Z" fill="#090D2D"/>
<path d="M59.8768 12.3171C61.4461 12.8719 62.7941 14.4338 63.4711 16.0018C62.3425 16.5236 61.0598 15.77 60.1214 15.2683C58.8328 14.5793 57.5183 13.6286 56.4844 12.5284C57.4186 11.5476 58.8379 11.9499 59.8768 12.3171Z" fill="#090D2D"/>
<path d="M60.2824 36.7473C60.1634 38.8761 58.7701 41.1098 56.9151 42.3813C56.0187 41.1612 56.5808 39.2918 56.8858 37.9868C57.2972 36.2299 57.8669 34.4004 58.7131 32.7771C60.1894 33.5528 60.3612 35.3454 60.2824 36.7473Z" fill="#090D2D"/>
<path d="M62.7778 38.5454C60.7678 39.6564 58.7637 40.9673 56.9004 42.3622C58.0164 43.8239 60.2467 43.241 61.6291 42.7712C64.0664 41.9433 66.2389 39.7608 67.3734 37.336C65.9348 36.5989 63.965 37.8892 62.7778 38.5454Z" fill="#090D2D"/>
<path d="M54.559 41.9477C53.3525 44.1375 50.6036 45.5661 48.0143 45.91C47.7357 44.318 49.4675 42.7418 50.4117 41.7106C51.7548 40.2425 53.1548 38.719 54.7249 37.4497C55.9013 38.8079 55.2787 40.6403 54.559 41.9477Z" fill="#090D2D"/>
<path d="M56.2796 44.7232C53.5374 45.0067 50.7491 45.415 48.0078 45.8857C48.2696 47.8944 51.4746 48.2186 52.9291 48.3372C55.9126 48.5803 59.2313 47.3877 61.5412 45.3798C60.3942 44.0367 57.7408 44.5722 56.2796 44.7232Z" fill="#090D2D"/>
<path d="M50.9979 3.85342C52.8386 4.37583 54.9944 5.36692 56.0584 7.19642C54.1264 6.98692 52.227 6.303 50.3695 5.78192C48.289 5.19817 46.0983 4.76158 44.084 3.95583C46.2901 3.078 48.8905 3.25542 50.9979 3.85342Z" fill="#090D2D"/>
<path d="M41.3397 2.9065L40.3951 0.833252L39.4682 2.86792L37.3125 1.53859L38.6977 4.43384H42.1426L43.4777 1.53859L41.3397 2.9065Z" fill="#090D2D"/>
<path d="M42.1222 4.88379H38.6719V5.39021H42.1222V4.88379Z" fill="#090D2D"/>
<path d="M40.6441 44.0598L41.2 45.7616H42.9991L41.5436 46.8134L42.0995 48.5152L40.6441 47.4635L39.1886 48.5152L39.7446 46.8134L38.2891 45.7616H40.0882L40.6441 44.0598Z" fill="#090D2D"/>
</svg>
