<svg width="86" height="50" viewBox="0 0 86 50" fill="none" xmlns="http://www.w3.org/2000/svg">
<path d="M6.70473 13.4834C6.17429 12.1379 6.40457 10.5908 6.89318 9.28963C7.40726 7.92046 8.30241 6.55504 9.64032 5.83496C9.7067 7.27779 9.26509 8.70329 8.78257 9.98871C8.34865 11.1449 7.81622 12.3766 6.93701 13.3328C6.80192 14.0573 6.69839 14.7798 6.62558 15.499C6.91698 14.7392 7.38947 14.0467 7.97903 13.4899C8.73807 12.7729 9.86718 12.2196 10.9271 12.5468C10.6166 13.7161 9.90901 14.837 9.07097 15.6234C8.41136 16.2423 7.5406 17.0354 6.51495 17.0665C6.4727 18.1249 6.49658 19.1735 6.58383 20.208C6.72853 19.451 7.03854 18.7381 7.4865 18.2073C8.10186 17.4779 9.01427 16.5867 10.1795 16.7358C10.1159 17.9193 9.64291 19.1319 8.98422 20.043C8.46078 20.7671 7.7698 21.69 6.78898 21.9284C6.94603 22.9448 7.16479 23.9444 7.44233 24.9225C7.445 24.1735 7.61074 23.4385 7.93954 22.8489C8.40292 22.0175 9.12465 20.9806 10.2912 20.8995C10.4622 22.0606 10.2305 23.3299 9.76314 24.3394C9.38958 25.1463 8.89154 26.1753 7.98371 26.601C8.36493 27.6534 8.81606 28.6763 9.33331 29.6636C9.15171 28.8126 9.15897 27.9159 9.37389 27.109C9.67004 25.9967 10.4052 24.8283 11.5855 24.4892C12.0027 25.7172 11.9452 27.0877 11.7028 28.3359C11.5033 29.3635 11.1114 30.5705 10.2329 31.2381C10.8072 32.1632 11.4426 33.051 12.1356 33.8958C11.7633 33.0673 11.5782 32.1612 11.6775 31.3316C11.8221 30.1231 12.1624 28.8303 13.3992 28.186C14.1009 29.3943 14.2634 30.7499 14.3231 32.0888C14.3712 33.1712 14.215 34.5063 13.4618 35.3869C14.2903 36.2466 15.1843 37.0513 16.1392 37.7933C15.5227 37.004 15.091 36.0779 14.9996 35.162C14.8705 33.8679 14.9337 32.4433 16.0843 31.4936C17.0684 32.5195 17.6556 34.0302 17.9434 35.3424C18.1979 36.5025 18.4636 37.8757 17.8577 39.0175C19.0728 39.8091 20.3701 40.5066 21.7417 41.0973C20.7766 40.4109 19.9865 39.4691 19.6101 38.4968C19.1169 37.2222 18.8118 35.7035 19.7726 34.427C21.0599 35.2499 22.0059 36.6539 22.7513 37.9344C23.3909 39.0331 24.0529 40.5496 23.7244 41.8582C24.4838 42.1154 25.2628 42.3412 26.0605 42.5339L26.013 42.7293C25.2124 42.5359 24.4304 42.3093 23.6679 42.0514C23.1337 43.627 21.3837 44.1475 19.9685 44.3773C17.952 44.7047 15.5509 44.0703 13.8294 42.7923C14.738 41.5107 16.5919 41.3807 17.9898 41.2826L18.008 41.2814C19.5393 41.174 21.1956 41.3175 22.7356 41.7168C20.9566 41.0409 19.2919 40.191 17.757 39.192L17.7343 39.2276C16.8932 40.5889 15.2044 40.642 13.8789 40.5559C12.0801 40.439 10.0034 39.3475 8.80153 37.8385C9.93205 36.8485 11.6019 37.1256 12.8957 37.3403L12.902 37.3413C14.346 37.5809 15.924 38.1035 17.2486 38.9083C17.1224 38.8091 16.9989 38.7042 16.8789 38.5942C15.5911 37.6778 14.4031 36.6527 13.3251 35.535C13.3126 35.5475 13.2999 35.56 13.2871 35.5723C12.2389 36.6247 10.7123 36.3491 9.52092 36.0066C7.9266 35.5483 6.27314 34.1655 5.48078 32.5781C6.70866 31.8915 8.17667 32.4573 9.31853 32.9049C10.5718 33.3961 11.8978 34.182 12.9173 35.1837C12.8122 35.0514 12.7119 34.9131 12.6172 34.77C11.6695 33.7025 10.817 32.5595 10.0676 31.3535L10.03 31.377C8.84419 32.1408 7.50069 31.5877 6.43588 31.0438C4.99216 30.3064 3.832 28.6857 3.33069 27.0919C4.61142 26.6825 5.87679 27.486 6.86045 28.1225C7.93628 28.8185 9.02605 29.8111 9.77408 30.9495C9.71914 30.8374 9.66796 30.7227 9.62078 30.6059C8.90206 29.3544 8.29147 28.0405 7.79718 26.6776L7.77172 26.6863L7.76963 26.687C6.69146 27.0961 5.4908 26.4601 4.70803 25.7626C3.62009 24.7933 2.85327 23.303 2.6735 21.8471C3.7976 21.7018 4.85665 22.5698 5.58072 23.3101C6.41417 24.1622 7.1622 25.1693 7.62209 26.2879C7.58853 26.1664 7.55972 26.043 7.53551 25.9183C7.11703 24.6375 6.8 23.3167 6.59101 21.9664L6.57473 21.9684L6.56922 21.9693C5.42934 22.1592 4.37547 21.2943 3.74583 20.4549C2.86245 19.277 2.40707 17.6467 2.52121 16.1691C3.65666 16.2484 4.52125 17.3265 5.08192 18.1985C5.73084 19.2081 6.26897 20.3507 6.50468 21.546C6.4975 21.451 6.49324 21.3553 6.49174 21.2594C6.31865 19.885 6.25695 18.4825 6.31339 17.0627L6.31013 17.0625C5.15122 17.0209 4.29473 15.947 3.85254 14.9944C3.21981 13.6312 3.11795 11.9081 3.54027 10.456C4.64482 10.7654 5.2606 12.03 5.62405 13.0034C6.04312 14.1257 6.3356 15.3498 6.33794 16.5668C6.39822 15.5458 6.51962 14.5167 6.70473 13.4834Z" fill="#090D2D"/>
<path d="M29.529 10.9619V15.8367C29.529 17.9808 27.5834 19.0124 24.6346 19.0124C21.8783 19.0124 19.9023 17.991 19.9023 15.5839V10.9619H22.6485V15.5839C22.6485 16.4436 23.3882 16.9796 24.7461 16.9796C26.0432 16.9796 26.8133 16.4233 26.8133 15.594V10.9619H29.529Z" fill="#090D2D"/>
<path d="M38.6758 16.7874V18.9012H31.0859V10.9619H33.8321V16.7874H38.6758Z" fill="#090D2D"/>
<path d="M46.8368 12.9543V10.9619H37.3418V12.9543H40.696V18.9012H43.4725V12.9543H46.8368Z" fill="#090D2D"/>
<path fill-rule="evenodd" clip-rule="evenodd" d="M56.578 11.7711C56.9429 12.1452 57.1158 12.6611 57.1158 13.3791C57.1158 13.9961 56.9638 14.522 56.71 14.8759C56.4261 15.2602 55.9902 15.5839 55.4534 15.6648L57.8555 18.9012H54.8355L52.8592 16.0997H50.3971V18.9012H47.6914V10.9619H54.0248C55.2814 10.9619 56.1021 11.2653 56.578 11.7711ZM54.3896 14.0467C54.4606 13.9252 54.4806 13.7634 54.4806 13.632C54.4806 13.4802 54.4606 13.3184 54.3896 13.2173C54.2477 12.9543 53.9638 12.8836 53.538 12.8836H50.4072V14.3298H53.5889C54.0248 14.3298 54.2886 14.2489 54.3896 14.0467Z" fill="#090D2D"/>
<path fill-rule="evenodd" clip-rule="evenodd" d="M61.5113 17.4347H65.808L66.5068 18.9012H69.4358L65.423 10.9619H62.15L57.9043 18.9012H60.7715L61.5113 17.4347ZM64.9463 15.6547H62.403L63.4066 13.7432L63.7106 13.015L63.9944 13.7331L64.9463 15.6547Z" fill="#090D2D"/>
<path fill-rule="evenodd" clip-rule="evenodd" d="M56.2876 20.3955C54.5876 20.3955 53.6934 21.1997 53.6934 22.3813C53.6934 23.7151 54.6318 24.3917 56.2876 24.3917C58.1103 24.3917 58.8767 23.6072 58.8767 22.3813C58.8767 21.1359 58.0117 20.3955 56.2876 20.3955ZM56.2876 23.4062C55.3198 23.4062 55.0393 23.009 55.0393 22.3961C55.0393 21.793 55.3441 21.3958 56.2825 21.3958C57.3095 21.3958 57.54 21.842 57.54 22.3961C57.54 22.9845 57.2603 23.4062 56.2876 23.4062Z" fill="#090D2D"/>
<path d="M51.1742 24.3327V22.0527H48.6098V22.8814H49.9804C49.9706 22.9451 49.9215 23.0677 49.8576 23.1412C49.7152 23.308 49.3368 23.455 48.8455 23.455C48.3346 23.455 48.0055 23.3226 47.8287 23.1167C47.7108 22.9647 47.642 22.749 47.642 22.4254C47.642 22.087 47.7108 21.8566 47.8434 21.7046C48.035 21.4889 48.3592 21.3957 48.8358 21.3957C49.2632 21.3957 49.5579 21.4937 49.6955 21.6163C49.784 21.6899 49.8527 21.7929 49.8674 21.8615H51.1398C51.135 21.7389 51.0957 21.5428 51.0269 21.4006C50.7223 20.7828 50.0148 20.415 48.8112 20.415C47.7648 20.415 47.0623 20.7337 46.6742 21.2143C46.4187 21.5428 46.3008 21.9546 46.3008 22.4155C46.3008 22.9255 46.4383 23.3619 46.6643 23.6512C47.0475 24.1465 47.7304 24.3915 48.5508 24.3915C49.273 24.3915 49.7692 24.22 50.0836 23.9601L50.118 24.3327H51.1742Z" fill="#090D2D"/>
<path d="M37.7921 22.0036C38.7893 22.1115 39.2167 22.4646 39.2167 23.1363C39.2167 23.9502 38.4209 24.3915 36.8537 24.3915C35.3946 24.3915 34.7658 23.9796 34.525 23.4403C34.471 23.3128 34.4464 23.1559 34.4316 23.0578H35.8466C35.8564 23.1166 35.8908 23.2049 35.9399 23.2637C36.0578 23.406 36.3869 23.4893 36.947 23.4893C37.6692 23.4893 37.8412 23.3863 37.8412 23.1951C37.8412 22.9891 37.6643 22.9451 37.0109 22.8764C36.7506 22.8519 36.3378 22.8126 36.1659 22.798C34.9181 22.6851 34.4563 22.2978 34.4563 21.6359C34.4563 20.9494 35.2718 20.4248 36.7603 20.4248C38.0819 20.4248 38.696 20.8171 38.9515 21.3074C39.0301 21.4545 39.0791 21.6211 39.0939 21.7388H37.679C37.6741 21.6849 37.6545 21.631 37.6004 21.5623C37.4923 21.4201 37.2172 21.327 36.7259 21.327C36.0332 21.327 35.8515 21.4103 35.8515 21.5868C35.8515 21.783 36.0824 21.8271 36.8537 21.9105C37.1533 21.935 37.6299 21.984 37.7921 22.0036Z" fill="#090D2D"/>
<path fill-rule="evenodd" clip-rule="evenodd" d="M23.6876 20.8119C23.948 21.0178 24.0954 21.366 24.0954 21.871C24.0954 22.2829 23.9922 22.5917 23.7957 22.8075C23.5304 23.1115 23.0932 23.2488 22.5233 23.2537C22.3464 23.2586 20.8333 23.2537 20.8333 23.2537V24.3324H19.5117V20.4834H22.5036C23.0342 20.4834 23.4371 20.5912 23.6876 20.8119ZM22.71 22.1701C22.7492 22.1015 22.7689 22.0131 22.7689 21.8906C22.7689 21.7631 22.7443 21.6552 22.7001 21.5964C22.6167 21.4738 22.4594 21.415 22.2039 21.415H20.8234V22.3564H22.1941C22.4692 22.3564 22.6313 22.2926 22.71 22.1701Z" fill="#090D2D"/>
<path fill-rule="evenodd" clip-rule="evenodd" d="M28.9296 20.8756C29.1065 21.0571 29.19 21.3071 29.19 21.6552C29.19 21.9543 29.1163 22.2093 28.9935 22.3809C28.856 22.5672 28.6447 22.7241 28.3843 22.7634L29.5486 24.3324H28.0846L27.1266 22.9742H25.9328V24.3324H24.6211V20.4834H27.6916C28.3008 20.4834 28.6987 20.6305 28.9296 20.8756ZM27.8685 21.9789C27.9029 21.9201 27.9126 21.8416 27.9126 21.7778C27.9126 21.7043 27.9029 21.6258 27.8685 21.5768C27.7997 21.4493 27.6622 21.415 27.4558 21.415H25.9377V22.1161H27.4804C27.6916 22.1161 27.8194 22.0769 27.8685 21.9789Z" fill="#090D2D"/>
<path d="M34.0336 24.3324V23.3763H31.2677V22.8761H33.9206V21.9396H31.2677V21.4444H33.9992V20.4834H29.9707V24.3324H34.0336Z" fill="#090D2D"/>
<path d="M43.9978 21.4493V20.4834H39.3945V21.4493H41.0206V24.3324H42.3667V21.4493H43.9978Z" fill="#090D2D"/>
<path d="M45.7671 20.4834V24.3324H44.416V20.4834H45.7671Z" fill="#090D2D"/>
<path d="M53.1599 20.4834V24.3324H51.8086V20.4834H53.1599Z" fill="#090D2D"/>
<path d="M64.0893 20.4834V22.8467C64.0893 23.8862 63.1458 24.3864 61.7163 24.3864C60.3804 24.3864 59.4219 23.8911 59.4219 22.7241V20.4834H60.7536V22.7241C60.7536 23.1409 61.1118 23.4008 61.7706 23.4008C62.3993 23.4008 62.7725 23.1311 62.7725 22.7291V20.4834H64.0893Z" fill="#090D2D"/>
<path d="M69.3945 23.1363C69.3945 22.4646 68.967 22.1115 67.9701 22.0036C67.8072 21.984 67.3313 21.935 67.0316 21.9105C66.2601 21.8271 66.0288 21.783 66.0288 21.5868C66.0288 21.4103 66.2108 21.327 66.9038 21.327C67.3948 21.327 67.6703 21.4201 67.778 21.5623C67.8323 21.631 67.8515 21.6849 67.8565 21.7388H69.2717C69.2567 21.6211 69.2075 21.4545 69.129 21.3074C68.8735 20.8171 68.2598 20.4248 66.9381 20.4248C65.4493 20.4248 64.6336 20.9494 64.6336 21.6359C64.6336 22.2978 65.0962 22.6851 66.3436 22.798L66.4237 22.8051L66.5573 22.8172L67.1885 22.8764C67.8423 22.9451 68.0185 22.9891 68.0185 23.1951C68.0185 23.3863 67.8473 23.4893 67.1251 23.4893C66.5648 23.4893 66.2359 23.406 66.1173 23.2637C66.0689 23.2049 66.0338 23.1166 66.0246 23.0578H64.6094C64.6244 23.1559 64.6486 23.3128 64.7029 23.4403C64.9434 23.9796 65.5721 24.3915 67.0316 24.3915C68.5988 24.3915 69.3945 23.9502 69.3945 23.1363Z" fill="#090D2D"/>
<path fill-rule="evenodd" clip-rule="evenodd" d="M35.0374 25.8057C33.9327 25.8057 33.3516 26.3283 33.3516 27.0963C33.3516 27.9631 33.9614 28.4028 35.0374 28.4028C36.222 28.4028 36.7201 27.893 36.7201 27.0963C36.7201 26.2869 36.1582 25.8057 35.0374 25.8057ZM35.0374 27.7623C34.4084 27.7623 34.2264 27.5042 34.2264 27.1058C34.2264 26.7139 34.4244 26.4557 35.0342 26.4557C35.7015 26.4557 35.8517 26.7457 35.8517 27.1058C35.8517 27.4882 35.6696 27.7623 35.0374 27.7623Z" fill="#090D2D"/>
<path d="M28.8951 27.5874C28.8951 27.1509 28.6173 26.9214 27.9691 26.8513C27.8638 26.8385 27.5541 26.8067 27.3593 26.7908C26.858 26.7365 26.7079 26.7079 26.7079 26.5804C26.7079 26.4657 26.8261 26.4115 27.2763 26.4115C27.5956 26.4115 27.7743 26.472 27.8446 26.5644C27.8797 26.6091 27.8925 26.6441 27.8957 26.6792H28.8153C28.8057 26.6027 28.7738 26.4944 28.7227 26.3988C28.5566 26.0801 28.1575 25.8252 27.2986 25.8252C26.3312 25.8252 25.8012 26.1661 25.8012 26.6123C25.8012 27.0425 26.1013 27.2943 26.9123 27.3675C27.0241 27.3771 27.2922 27.4026 27.4615 27.4185C27.8861 27.4631 28.001 27.4919 28.001 27.6257C28.001 27.7499 27.8893 27.8169 27.42 27.8169C27.056 27.8169 26.842 27.7627 26.7654 27.6703C26.7335 27.632 26.7111 27.5747 26.7048 27.5364H25.7852C25.7948 27.6002 25.8107 27.7021 25.8459 27.785C26.0023 28.1355 26.411 28.4032 27.3593 28.4032C28.3778 28.4032 28.8951 28.1164 28.8951 27.5874Z" fill="#090D2D"/>
<path fill-rule="evenodd" clip-rule="evenodd" d="M22.52 27.6584C22.52 27.8305 22.4721 27.9994 22.3763 28.1109C22.2294 28.2894 21.9548 28.3658 21.6005 28.3658H19.375V25.8643H21.5398C21.8846 25.8643 22.105 25.9472 22.2263 26.0714C22.3348 26.1798 22.3827 26.3232 22.3827 26.4857C22.3827 26.6483 22.3444 26.7821 22.2614 26.8808C22.1943 26.9638 22.0794 27.0274 21.9581 27.0434C22.1369 27.0657 22.3061 27.1549 22.4019 27.2792C22.4817 27.3716 22.52 27.5118 22.52 27.6584ZM21.444 26.7821C21.4759 26.747 21.4951 26.696 21.4951 26.6355C21.4951 26.5749 21.4759 26.5239 21.4344 26.4889C21.3897 26.4474 21.3067 26.4315 21.1853 26.4315H20.2115V26.8394H21.2077C21.3163 26.8394 21.3993 26.8235 21.444 26.7821ZM21.3003 27.7987C21.4504 27.7987 21.5398 27.7795 21.5909 27.7318C21.6228 27.6998 21.6355 27.6521 21.6355 27.5915C21.6355 27.5278 21.6196 27.48 21.5813 27.4418C21.5334 27.4003 21.4504 27.3812 21.3099 27.3812H20.2115V27.7987H21.3003Z" fill="#090D2D"/>
<path d="M25.5273 27.7445V28.3658H22.8867V25.8643H25.5049V26.4889H23.7296V26.8108H25.4538V27.4194H23.7296V27.7445H25.5273Z" fill="#090D2D"/>
<path d="M32.0034 25.8643V26.4921H30.9434V28.3658H30.0686V26.4921H29.0117V25.8643H32.0034Z" fill="#090D2D"/>
<path d="M39.6427 25.8643V26.4984H37.9409V26.8522H39.5629V27.48H37.9409V28.3658H37.082V25.8643H39.6427Z" fill="#090D2D"/>
<path d="M43.9683 26.4921V25.8643H40.9766V26.4921H42.0334V28.3658H42.9083V26.4921H43.9683Z" fill="#090D2D"/>
<path d="M47.2333 25.8643V28.3658H46.3775V27.4577H45.0939V28.3658H44.2383V25.8643H45.0939V26.7757H46.3775V25.8643H47.2333Z" fill="#090D2D"/>
<path d="M50.3808 28.3658V27.7445H48.5831V27.4194H50.3073V26.8108H48.5831V26.4889H50.3584V25.8643H47.7402V28.3658H50.3808Z" fill="#090D2D"/>
<path d="M55.6743 25.8643H56.5009L55.5849 28.3658H54.6464C54.6464 28.3658 54.1446 26.8713 54.1413 26.8298C54.1388 26.8713 53.6336 28.3658 53.6336 28.3658H52.6985L51.7598 25.8643H52.6885C52.6885 25.8643 53.232 27.4385 53.232 27.4768C53.232 27.4385 53.733 25.8643 53.733 25.8643H54.6306C54.6306 25.8643 55.1349 27.4385 55.1349 27.4768C55.1349 27.4385 55.6743 25.8643 55.6743 25.8643Z" fill="#090D2D"/>
<path fill-rule="evenodd" clip-rule="evenodd" d="M58.1408 25.8057C57.0362 25.8057 56.4551 26.3283 56.4551 27.0963C56.4551 27.9631 57.0646 28.4028 58.1408 28.4028C59.3256 28.4028 59.8233 27.893 59.8233 27.0963C59.8233 26.2869 59.2614 25.8057 58.1408 25.8057ZM58.1408 27.7623C57.5121 27.7623 57.3301 27.5042 57.3301 27.1058C57.3301 26.7139 57.528 26.4557 58.1375 26.4557C58.8055 26.4557 58.9549 26.7457 58.9549 27.1058C58.9549 27.4882 58.7729 27.7623 58.1408 27.7623Z" fill="#090D2D"/>
<path fill-rule="evenodd" clip-rule="evenodd" d="M62.986 26.1193C63.1004 26.2372 63.1546 26.3997 63.1546 26.6259C63.1546 26.8203 63.107 26.986 63.0269 27.0976C62.9375 27.2187 62.8006 27.3207 62.6311 27.3461L63.3876 28.3658H62.4366L61.8137 27.4832H61.038V28.3658H60.1855V25.8643H62.1811C62.5768 25.8643 62.8357 25.9599 62.986 26.1193ZM62.2963 26.8363C62.318 26.798 62.3247 26.747 62.3247 26.7056C62.3247 26.6578 62.318 26.6068 62.2963 26.5749C62.2512 26.4921 62.1619 26.4698 62.0275 26.4698H61.0414V26.9255H62.0433C62.1811 26.9255 62.2637 26.9 62.2963 26.8363Z" fill="#090D2D"/>
<path d="M66.0515 28.3658V27.6998H64.5252V25.8643H63.6602V28.3658H66.0515Z" fill="#090D2D"/>
<path fill-rule="evenodd" clip-rule="evenodd" d="M69.4385 27.0688C69.4385 27.4577 69.4001 27.668 69.2857 27.8656C69.1129 28.181 68.7714 28.3658 68.1677 28.3658H66.3926V25.8643H68.1485C68.7488 25.8643 69.1037 26.0332 69.279 26.3232C69.4034 26.5176 69.4385 26.7247 69.4385 27.0688ZM68.0049 27.7508C68.2762 27.7508 68.4299 27.6871 68.5225 27.5469C68.5802 27.4608 68.596 27.2601 68.596 27.0848C68.5927 26.9255 68.5735 26.7566 68.5225 26.6801C68.4232 26.5303 68.2737 26.4762 68.0116 26.4762H67.2484V27.7508H68.0049Z" fill="#090D2D"/>
<path d="M35.1878 40.5322H33.8647C33.8647 40.5322 33.0014 43.051 33.0014 43.1121C33.0014 43.051 32.1942 40.5322 32.1942 40.5322H30.7587C30.7587 40.5322 29.9566 43.051 29.9566 43.1121C29.9566 43.051 29.0882 40.5322 29.0882 40.5322H27.6016L29.1035 44.5346H30.6003C30.6003 44.5346 31.4074 42.1434 31.4125 42.0771C31.4177 42.1434 32.2197 44.5346 32.2197 44.5346H33.7216L35.1878 40.5322Z" fill="#090D2D"/>
<path d="M36.9986 44.5346V40.5322H35.5938V44.5346H36.9986Z" fill="#090D2D"/>
<path d="M42.4634 40.5322V44.5346H41.0942L39.107 42.3066V44.5346H37.7891V40.5322H39.2296L41.1555 42.7094V40.5322H42.4634Z" fill="#090D2D"/>
<path d="M47.936 44.5346V40.5322H46.6282V42.7094L44.7023 40.5322H43.2617V44.5346H44.5797V42.3066L46.567 44.5346H47.936Z" fill="#090D2D"/>
<path d="M52.9596 43.5404V44.5346H48.7344V40.5322H52.9237V41.5316H50.0831V42.0466H52.8418V43.0204H50.0831V43.5404H52.9596Z" fill="#090D2D"/>
<path fill-rule="evenodd" clip-rule="evenodd" d="M58.3583 41.7508C58.3583 41.3888 58.2715 41.1288 58.0878 40.9401C57.8473 40.6852 57.434 40.5322 56.8003 40.5322H53.6074V44.5346H54.9717V43.1223H56.2133L57.2094 44.5346H58.7315L57.5208 42.9031C57.7914 42.8623 58.011 42.6991 58.1546 42.5054C58.2815 42.327 58.3583 42.0618 58.3583 41.7508ZM57.0299 41.8783C57.0299 41.9446 57.0199 42.0261 56.984 42.0873C56.933 42.1893 56.8003 42.2301 56.5807 42.2301H54.9767V41.501H56.5548C56.7694 41.501 56.913 41.5366 56.984 41.6692C57.0199 41.7202 57.0299 41.8018 57.0299 41.8783Z" fill="#090D2D"/>
<path d="M31.1099 33.4743L30.556 31.7725L30.0019 33.4743H28.209L29.6595 34.526L29.1055 36.2279L30.556 35.1761L32.0063 36.2279L31.4524 34.526L32.9028 33.4743H31.1099Z" fill="#090D2D"/>
<path d="M36.9514 31.7725L37.5168 33.4743H39.3463L37.8662 34.5261L38.4316 36.2279L36.9514 35.1761L35.4714 36.2279L36.0368 34.5261L34.5566 33.4743H36.3861L36.9514 31.7725Z" fill="#090D2D"/>
<path d="M43.8605 33.4743L43.2953 31.7725L42.7299 33.4743H40.9004L42.3805 34.5261L41.8152 36.2279L43.2953 35.1761L44.7753 36.2279L44.21 34.5261L45.6901 33.4743H43.8605Z" fill="#090D2D"/>
<path d="M49.6409 31.7725L50.2062 33.4743H52.0357L50.5557 34.5261L51.121 36.2279L49.6409 35.1761L48.1609 36.2279L48.7262 34.5261L47.2461 33.4743H49.0756L49.6409 31.7725Z" fill="#090D2D"/>
<path d="M56.5929 33.4743L56.0385 31.7725L55.484 33.4743H53.6914L55.1417 34.5261L54.5881 36.2279L56.0385 35.1761L57.4888 36.2279L56.9352 34.5261L58.3855 33.4743H56.5929Z" fill="#090D2D"/>
<path d="M79.8519 13.5177C80.3821 12.1723 80.1517 10.6251 79.6632 9.32389C79.1489 7.95481 78.2538 6.58922 76.9163 5.86914C76.8495 7.31206 77.2911 8.73747 77.7737 10.0229C78.2079 11.179 78.7398 12.4106 79.619 13.3667C79.7542 14.0911 79.8578 14.8134 79.9304 15.5324C79.639 14.773 79.1673 14.0808 78.5778 13.5241C77.8188 12.8071 76.6891 12.2539 75.6296 12.5811C75.9402 13.7503 76.6474 14.8713 77.4857 15.6576C78.1453 16.2766 79.0161 17.0696 80.0415 17.1008C80.0841 18.1592 80.0598 19.208 79.9722 20.2425C79.8277 19.4855 79.518 18.7726 79.0696 18.2418C78.4542 17.5123 77.5416 16.6212 76.3769 16.7703C76.4403 17.9538 76.9137 19.1664 77.5725 20.0776C78.0952 20.8016 78.7865 21.7246 79.7676 21.963C79.6106 22.9792 79.3919 23.9786 79.1138 24.9566C79.1113 24.2078 78.946 23.4727 78.617 22.8831C78.1536 22.0518 77.4314 21.0149 76.265 20.9338C76.0938 22.0949 76.3259 23.3641 76.7935 24.3736C77.1667 25.1806 77.6652 26.2096 78.5728 26.6353C78.1912 27.6878 77.7403 28.711 77.2227 29.6984C77.4047 28.8472 77.3972 27.9503 77.1826 27.1432C76.8862 26.0309 76.1514 24.8624 74.9708 24.5234C74.5533 25.7516 74.6109 27.1219 74.8539 28.3701C75.0535 29.3978 75.4451 30.6048 76.3234 31.2724C75.749 32.198 75.1136 33.0862 74.4197 33.9314C74.793 33.1026 74.9775 32.196 74.8781 31.3661C74.7337 30.1574 74.3939 28.8646 73.1573 28.2205C72.4551 29.4288 72.2923 30.7844 72.233 32.1233C72.1846 33.2058 72.3407 34.541 73.0947 35.4216C72.2656 36.2811 71.3722 37.0856 70.4178 37.8274C71.034 37.0381 71.4657 36.1121 71.5567 35.1962C71.6861 33.9021 71.6235 32.4776 70.4721 31.5279C69.4885 32.5537 68.9007 34.0645 68.6135 35.3766C68.3588 36.5367 68.0933 37.91 68.6987 39.0517C67.4838 39.8436 66.1863 40.5411 64.8145 41.132C65.7797 40.4455 66.5695 39.5036 66.9461 38.5311C67.4395 37.2566 67.7443 35.7377 66.7841 34.4612C65.4966 35.2841 64.5506 36.6881 63.805 37.9686C63.1654 39.0675 62.5033 40.5841 62.8323 41.8926C62.0725 42.1498 61.2935 42.3756 60.4961 42.5683L60.5437 42.7637C61.3436 42.5703 62.1259 42.3437 62.8882 42.0858C63.4226 43.6613 65.1727 44.182 66.5879 44.4117C68.6043 44.7391 71.0056 44.1048 72.7273 42.8267C71.818 41.5451 69.9644 41.4151 68.5667 41.3171L68.5484 41.3158C67.0171 41.2084 65.3605 41.3519 63.8209 41.7513C65.5993 41.0754 67.2642 40.2254 68.7997 39.2262L68.8206 39.2596C69.6614 40.6231 71.3513 40.6764 72.6772 40.5902C74.4765 40.4734 76.553 39.3818 77.7545 37.8729C76.624 36.8831 74.9549 37.16 73.6608 37.3746L73.6541 37.3757C72.2105 37.6152 70.6332 38.1376 69.309 38.9421C69.4351 38.8431 69.5578 38.7383 69.6781 38.6284C70.9656 37.7121 72.1529 36.6872 73.2308 35.5697C73.2458 35.5846 73.2608 35.5993 73.2759 35.6139C74.3246 36.6581 75.8467 36.3826 77.0356 36.0409C78.6304 35.5826 80.2836 34.1998 81.076 32.6124C79.8478 31.9257 78.3799 32.4915 77.2385 32.9391C75.9836 33.4308 74.6569 34.2176 73.6366 35.2206C73.7418 35.0881 73.8428 34.9496 73.938 34.8063C74.8856 33.7382 75.739 32.5945 76.4888 31.3878L76.5213 31.4079L76.5297 31.4131C77.7145 32.1741 79.0571 31.6216 80.1208 31.0781C81.5644 30.3406 82.725 28.72 83.226 27.1261C81.9452 26.7167 80.6802 27.5203 79.6966 28.1567C78.6196 28.8531 77.5291 29.8465 76.781 30.9857C76.8361 30.8733 76.8879 30.7583 76.9354 30.6412C77.6543 29.3893 78.2647 28.0751 78.759 26.7119L78.7849 26.7206L78.789 26.7222C79.867 27.1295 81.0668 26.4939 81.8491 25.7969C82.9362 24.8276 83.7036 23.3373 83.8831 21.8814C82.7592 21.7361 81.6997 22.6041 80.9758 23.3443C80.1425 24.197 79.3936 25.2047 78.9335 26.3242C78.9677 26.2021 78.9969 26.078 79.0212 25.9526C79.4395 24.6719 79.7568 23.3511 79.9655 22.001L79.9972 22.0051C81.1327 22.1886 82.1831 21.3262 82.811 20.4891C83.6944 19.3112 84.1494 17.681 84.035 16.2033C82.9003 16.2826 82.0353 17.3606 81.4751 18.2328C80.8255 19.2429 80.2869 20.3861 80.0515 21.5822C80.059 21.4866 80.0632 21.3904 80.0648 21.2939C80.2377 19.9195 80.2995 18.5169 80.2427 17.0971C81.4024 17.0565 82.2616 15.9818 82.7041 15.0288C83.3362 13.6657 83.4381 11.9426 83.0164 10.4905C81.9118 10.7999 81.2956 12.0643 80.9324 13.0377C80.5132 14.1601 80.221 15.3843 80.2185 16.6013C80.1584 15.5803 80.0365 14.5511 79.8519 13.5177Z" fill="#090D2D"/>
</svg>
