<svg width="130" height="130" viewBox="0 0 130 130" fill="none" xmlns="http://www.w3.org/2000/svg">
<circle cx="65" cy="65" r="65" fill="#D80E7E"/>
<circle cx="65" cy="65" r="36" fill="white"/>
<rect x="46.8667" y="46.8672" width="36.2667" height="36.2667" rx="18.1333" fill="white"/>
<path d="M63.1297 73.1276C65.044 72.658 66.9792 72.2003 68.6136 71.2204C68.7491 71.1391 68.8824 71.0544 69.0136 70.9657C68.9523 70.9576 68.8911 70.9486 68.8299 70.9397C67.7909 70.7878 66.7769 70.5189 65.8081 70.1482C64.981 69.8317 64.1869 69.4411 63.4383 68.9863C63.0154 70.436 62.7327 71.8742 62.5669 73.2669C62.7541 73.2201 62.9418 73.1737 63.1297 73.1276Z" fill="#D80E7E"/>
<path d="M65 45C53.9543 45 45 53.9543 45 65C45 76.0457 53.9543 85 65 85C76.0457 85 85 76.0457 85 65C85 53.9543 76.0457 45 65 45ZM64.4544 54.8741C64.4544 56.1149 63.4486 57.1208 62.2078 57.1208C60.967 57.1208 59.9611 56.1149 59.9611 54.8741C59.9611 53.6333 60.967 52.6274 62.2078 52.6274C63.4486 52.6274 64.4544 53.6333 64.4544 54.8741ZM67.462 68.071C68.4182 68.4541 69.4166 68.7467 70.4366 68.9394C71.0479 69.0549 71.6732 69.1539 72.2953 69.1953C73.045 69.2453 73.7929 69.2208 74.5438 69.1566C74.0677 71.4614 71.8752 73.1912 69.5007 74.057C68.1683 74.5429 66.7674 74.8128 65.349 75.0233C64.3266 75.1751 63.2953 75.2964 62.2737 75.4451C62.1478 77.6124 62.2838 79.6373 62.5965 81.3946C61.8088 79.4618 61.1844 77.5653 60.7383 75.701C58.6393 76.1065 56.5803 76.771 55.008 78.0835C56.0464 76.1634 58.1965 75.0342 60.4374 74.3072C59.928 71.6608 59.792 69.0782 60.0755 66.5478C58.8892 65.2559 57.961 63.7681 57.3883 62.1591C56.5551 59.8182 56.4948 57.2708 57.1114 54.8802C57.4201 53.6835 57.8982 52.5232 58.5359 51.4416C58.9864 50.6778 59.7057 49.6056 60.884 48.6053C59.9021 50.0557 59.4757 51.5456 59.369 51.9505C59.0528 53.1503 58.7777 54.3644 58.7476 55.5984C58.6876 58.0635 59.3379 60.553 60.71 62.68C60.7425 62.7305 60.776 62.7804 60.8094 62.8304C61.2622 61.2459 61.8942 59.6801 62.7187 58.1302C62.7187 58.1302 74.3147 54.1408 74.992 53.9223C69.5744 57.3632 66.2392 61.8337 64.3431 66.3919C65.3042 67.0624 66.3546 67.6274 67.462 68.071Z" fill="#D80E7E"/>
<path d="M70.176 18.107C69.1821 17.9903 68.343 17.6745 67.6586 17.1597C66.9789 16.6455 66.4837 15.9778 66.173 15.1566C65.8675 14.3314 65.7763 13.3982 65.8995 12.357C66.021 11.3297 66.3237 10.4544 66.8076 9.73122C67.2916 9.00803 67.9241 8.4751 68.7052 8.13245C69.4862 7.7898 70.3807 7.67766 71.3884 7.79602C72.521 7.92905 73.4491 8.32531 74.1726 8.9848C74.9012 9.64023 75.3272 10.517 75.4504 11.6151L73.2134 11.8638C73.1537 11.1795 72.9424 10.6479 72.5794 10.269C72.2211 9.89061 71.7507 9.66721 71.1682 9.5988C70.6088 9.5331 70.1163 9.61538 69.6907 9.84564C69.2697 10.0764 68.9255 10.4307 68.6581 10.9084C68.3958 11.3821 68.2244 11.9598 68.1437 12.6416C68.0631 13.3234 68.0968 13.9299 68.2449 14.4611C68.3936 14.9877 68.6457 15.412 69.0013 15.734C69.3575 16.0514 69.806 16.2419 70.3469 16.3054C70.9294 16.3739 71.439 16.2656 71.8758 15.9806C72.3126 15.6956 72.6383 15.2597 72.853 14.6731L75.0258 15.3837C74.6345 16.3933 74.0104 17.1328 73.1534 17.6019C72.2965 18.0711 71.304 18.2395 70.176 18.107Z" fill="white"/>
<path d="M80.0855 20.3531C79.3692 20.1037 78.7917 19.7257 78.3529 19.2192C77.9186 18.7141 77.6451 18.13 77.5324 17.4668C77.4213 16.7991 77.494 16.0996 77.7504 15.3683C78.0083 14.6326 78.3886 14.0402 78.8912 13.5912C79.3953 13.1377 79.9743 12.8504 80.6282 12.7292C81.288 12.6052 81.9761 12.6678 82.6924 12.9172C83.4131 13.1681 83.9906 13.5461 84.4249 14.0511C84.8652 14.5533 85.1409 15.1382 85.252 15.8058C85.3646 16.4691 85.292 17.1685 85.0341 17.9042C84.7761 18.6399 84.3951 19.2345 83.891 19.6879C83.3884 20.137 82.8072 20.4236 82.1474 20.5476C81.4891 20.6673 80.8018 20.6024 80.0855 20.3531ZM80.5964 18.9168C81.0842 19.0866 81.5401 19.0169 81.9641 18.7075C82.3941 18.3953 82.7319 17.8889 82.9775 17.1882C83.2247 16.4832 83.2768 15.8773 83.134 15.3706C82.9955 14.8654 82.6802 14.5271 82.188 14.3558C81.7003 14.1859 81.2422 14.2549 80.8138 14.5627C80.3897 14.8721 80.0541 15.3793 79.807 16.0843C79.5598 16.7894 79.5054 17.3945 79.6439 17.8997C79.7867 18.4064 80.1042 18.7454 80.5964 18.9168Z" fill="white"/>
<path d="M85.9814 22.4803L89.8186 16.0112L91.5497 17.0309L90.665 18.5224L90.7828 18.2281C91.2326 17.9165 91.7101 17.7451 92.2152 17.7139C92.7227 17.6788 93.2309 17.8111 93.7398 18.1109C94.2447 18.4083 94.59 18.7652 94.7755 19.1817C94.9651 19.6005 95.0184 20.0576 94.9354 20.553C94.8525 21.0484 94.6547 21.5596 94.342 22.0867L92.0041 26.0281L90.2129 24.973L92.4833 21.1454C92.7557 20.6862 92.8904 20.2859 92.8873 19.9447C92.8866 19.5994 92.698 19.3158 92.3213 19.0939C91.8765 18.8319 91.4154 18.8162 90.9379 19.0469C90.4644 19.2799 89.9956 19.7878 89.5313 20.5704L87.7726 23.5354L85.9814 22.4803Z" fill="white"/>
<path d="M95.4014 28.7713C94.9707 28.4168 94.7247 28.0399 94.6633 27.6404C94.6085 27.2403 94.7442 26.8436 95.0702 26.4502L97.8937 23.0435L97.0647 22.3611L98.034 21.1916L98.863 21.874L99.8057 20.7366L101.73 21.6708L100.467 23.1944L101.544 24.0806L100.575 25.2502L99.498 24.3639L96.8835 27.5185C96.7857 27.6365 96.7351 27.7303 96.7318 27.7998C96.7351 27.8686 96.7924 27.9489 96.9037 28.0405L97.7919 28.7716L96.8226 29.9411L95.4014 28.7713Z" fill="white"/>
<path d="M99.5322 32.9015C99.2135 32.5445 98.9822 32.1597 98.8383 31.7472C98.6978 31.3316 98.6708 30.921 98.7572 30.5153C98.8467 30.1131 99.0793 29.7455 99.4549 29.4125C99.8584 29.0549 100.305 28.8673 100.794 28.8498C101.283 28.8323 101.798 28.9806 102.34 29.2947C102.886 29.6058 103.439 30.075 103.999 30.7023L104.704 31.4925L104.48 31.5238L104.803 31.2371C105.175 30.9072 105.391 30.5945 105.451 30.299C105.515 30.0004 105.408 29.6952 105.129 29.3832C104.863 29.0852 104.579 28.9273 104.277 28.9097C103.981 28.8925 103.672 28.9961 103.349 29.2204L102.209 27.3994C102.575 27.1809 102.975 27.0646 103.411 27.0506C103.854 27.0369 104.316 27.1492 104.796 27.3875C105.277 27.6258 105.758 28.0153 106.241 28.5559C106.684 29.0516 106.978 29.5418 107.124 30.0268C107.274 30.5087 107.25 30.9952 107.053 31.4865C106.86 31.9812 106.465 32.4921 105.871 33.0193L103.956 34.7166C103.838 34.8214 103.773 34.9064 103.763 34.9715C103.756 35.0401 103.8 35.1281 103.896 35.2355L104.123 35.4902L102.986 36.4984L102.327 35.7602C101.965 35.3547 101.79 34.9568 101.803 34.5666C101.823 34.1767 102.024 33.8122 102.407 33.4731L102.673 33.2372L102.81 33.6C102.62 33.6876 102.401 33.7635 102.153 33.828C101.906 33.8924 101.636 33.9144 101.343 33.8941C101.058 33.8742 100.761 33.7896 100.453 33.6402C100.146 33.4909 99.8385 33.2446 99.5322 32.9015ZM100.996 32.4052C101.212 32.6478 101.46 32.8133 101.738 32.9018C102.016 32.9903 102.315 32.9896 102.633 32.8998C102.955 32.8068 103.283 32.6123 103.617 32.3164L103.737 32.21L103.152 31.5549C102.821 31.1841 102.514 30.9378 102.231 30.8162C101.951 30.6981 101.703 30.6606 101.486 30.7038C101.273 30.744 101.1 30.8226 100.968 30.9398C100.863 31.0323 100.777 31.1521 100.709 31.2993C100.644 31.4499 100.626 31.6181 100.655 31.8038C100.69 31.9898 100.804 32.1903 100.996 32.4052Z" fill="white"/>
<path d="M105.69 41.0741C105.282 40.3982 105.066 39.7293 105.042 39.0674C105.02 38.4095 105.182 37.7957 105.528 37.2258C105.874 36.656 106.396 36.162 107.094 35.7438C107.789 35.328 108.469 35.1016 109.137 35.0646C109.804 35.0275 110.422 35.1742 110.991 35.5048C111.563 35.8329 112.053 36.335 112.461 37.0109C112.754 37.496 112.938 37.9998 113.014 38.5224C113.09 39.045 113.042 39.5554 112.87 40.0535C112.705 40.5532 112.399 41.0097 111.953 41.4229L110.58 39.9561C110.986 39.5938 111.233 39.2293 111.321 38.8625C111.414 38.4933 111.354 38.1338 111.143 37.7839C110.853 37.3028 110.446 37.0596 109.921 37.0544C109.399 37.0532 108.823 37.2414 108.193 37.6189C107.566 37.9941 107.135 38.4092 106.899 38.8644C106.667 39.3173 106.698 39.7882 106.993 40.2773C107.197 40.6152 107.47 40.8386 107.813 40.9473C108.162 41.0577 108.58 41.0399 109.068 40.8939L109.744 42.7049C109.306 42.8595 108.884 42.9255 108.479 42.9027C108.078 42.8775 107.703 42.7827 107.354 42.6183C107.012 42.4554 106.701 42.2413 106.421 41.9757C106.137 41.7126 105.894 41.4121 105.69 41.0741Z" fill="white"/>
<path d="M109.206 47.7484C108.995 47.2328 108.958 46.7847 109.094 46.404C109.236 46.0258 109.544 45.7405 110.018 45.5481L114.124 43.8819L113.719 42.8895L115.129 42.3175L115.534 43.3099L116.905 42.7536L118.155 44.4852L116.319 45.2303L116.845 46.5192L115.436 47.0912L114.909 45.8023L111.107 47.3452C110.964 47.4029 110.875 47.4616 110.839 47.5213C110.809 47.5835 110.822 47.6812 110.876 47.8144L111.311 48.8777L109.901 49.4497L109.206 47.7484Z" fill="white"/>
<path d="M112.111 59.8811C112.006 58.9827 112.069 58.1955 112.299 57.5196C112.535 56.8478 112.924 56.3077 113.466 55.8992C114.014 55.4947 114.698 55.245 115.516 55.1501L121.779 54.4238L122.028 56.5595L115.835 57.2777C115.146 57.3576 114.633 57.6039 114.297 58.0164C113.966 58.4331 113.841 58.9847 113.921 59.6712C114.001 60.3578 114.255 60.8631 114.682 61.1872C115.109 61.5159 115.697 61.6368 116.446 61.55L122.528 60.8446L122.778 62.9802L116.515 63.7065C115.697 63.8014 114.974 63.7125 114.347 63.4396C113.725 63.1708 113.222 62.7341 112.837 62.1296C112.458 61.5291 112.216 60.7796 112.111 59.8811Z" fill="white"/>
<path d="M112.279 69.5025C112.327 68.9386 112.454 68.414 112.658 67.9285C112.868 67.4434 113.161 67.0446 113.538 66.7319C113.915 66.4193 114.386 66.2403 114.95 66.1949L115.165 68.1125C114.74 68.1184 114.407 68.2393 114.168 68.4751C113.932 68.7159 113.794 69.0743 113.754 69.5504C113.715 70.008 113.776 70.3554 113.938 70.5925C114.105 70.8301 114.311 70.9592 114.557 70.98C114.775 70.9984 114.97 70.9265 115.143 70.7642C115.315 70.6065 115.452 70.3178 115.553 69.898L115.722 69.228C115.787 68.9634 115.867 68.6816 115.962 68.3824C116.062 68.0882 116.195 67.8132 116.362 67.5572C116.533 67.3017 116.756 67.0994 117.03 66.9503C117.305 66.8013 117.646 66.744 118.054 66.7785C118.55 66.8205 118.963 66.9881 119.293 67.2813C119.628 67.5796 119.868 67.9723 120.013 68.4595C120.163 68.947 120.212 69.4935 120.161 70.099C120.113 70.6583 119.986 71.162 119.78 71.6101C119.578 72.0586 119.304 72.4242 118.958 72.7068C118.616 72.9944 118.206 73.1647 117.73 73.2175L117.501 71.2987C117.694 71.2824 117.878 71.2351 118.053 71.1568C118.227 71.0831 118.373 70.9581 118.491 70.7819C118.613 70.606 118.688 70.3609 118.715 70.0466C118.745 69.6907 118.7 69.4006 118.579 69.1762C118.457 68.9564 118.276 68.8363 118.035 68.816C117.858 68.8011 117.71 68.8467 117.589 68.9528C117.467 69.0636 117.363 69.2177 117.276 69.4152C117.193 69.6177 117.118 69.8464 117.049 70.1013L116.851 70.8667C116.752 71.2587 116.607 71.6258 116.414 71.968C116.225 72.3152 115.973 72.5895 115.657 72.7909C115.341 72.9923 114.942 73.0726 114.459 73.0318C113.926 72.9867 113.488 72.803 113.147 72.4809C112.805 72.1633 112.56 71.7446 112.413 71.2247C112.27 70.7098 112.225 70.1358 112.279 69.5025Z" fill="white"/>
<path d="M115.106 82.0585L116.396 81.1833L117.191 82.8008L118.063 81.2947L119.285 82.2447L117.962 83.4999L119.722 83.8666L119.196 85.3196L117.606 84.4816L117.818 86.296L116.271 86.2426L116.565 84.5287L114.919 85.2608L114.488 83.7667L116.466 83.5094L115.106 82.0585Z" fill="white"/>
<path d="M103.066 93.9065C103.662 93.105 104.354 92.5363 105.142 92.2003C105.928 91.868 106.755 91.7716 107.625 91.9111C108.495 92.057 109.353 92.4419 110.199 93.0658C111.033 93.6815 111.644 94.3782 112.034 95.1561C112.423 95.934 112.573 96.7458 112.483 97.5916C112.393 98.4373 112.046 99.2665 111.442 100.079C110.764 100.993 109.957 101.598 109.024 101.896C108.091 102.2 107.116 102.133 106.098 101.694L106.993 99.6358C107.619 99.9242 108.187 100.006 108.697 99.8801C109.205 99.7583 109.633 99.4625 109.982 98.9928C110.317 98.5417 110.49 98.075 110.501 97.5924C110.51 97.1137 110.372 96.64 110.089 96.1713C109.807 95.7091 109.389 95.2737 108.835 94.8652C108.282 94.4566 107.737 94.1843 107.201 94.0484C106.668 93.9153 106.174 93.9224 105.716 94.0699C105.263 94.2202 104.874 94.5134 104.55 94.9496C104.201 95.4193 104.042 95.9138 104.073 96.4332C104.104 96.9526 104.322 97.4508 104.726 97.928L103.028 99.4538C102.343 98.6137 102.009 97.7065 102.026 96.7323C102.044 95.758 102.39 94.8161 103.066 93.9065Z" fill="white"/>
<path d="M96.1862 101.373C96.7582 100.877 97.3737 100.564 98.0326 100.435C98.6879 100.309 99.3326 100.361 99.9666 100.592C100.604 100.826 101.178 101.236 101.688 101.82C102.202 102.407 102.53 103.03 102.673 103.687C102.818 104.348 102.782 104.992 102.564 105.618C102.346 106.251 101.95 106.815 101.378 107.312C100.803 107.812 100.187 108.125 99.5317 108.251C98.8759 108.383 98.2295 108.332 97.5924 108.098C96.9584 107.867 96.3845 107.458 95.8709 106.87C95.3572 106.283 95.0275 105.658 94.8817 104.997C94.7391 104.34 94.7771 103.695 94.9956 103.062C95.2172 102.433 95.6141 101.87 96.1862 101.373ZM97.1853 102.527C96.7958 102.865 96.6309 103.294 96.6906 103.815C96.7499 104.341 97.0242 104.885 97.5134 105.444C98.0057 106.007 98.5081 106.352 99.0206 106.48C99.5296 106.61 99.9806 106.504 100.374 106.163C100.763 105.825 100.93 105.394 100.874 104.871C100.814 104.35 100.538 103.809 100.046 103.246C99.5534 102.683 99.0527 102.336 98.5437 102.206C98.0312 102.078 97.5784 102.185 97.1853 102.527Z" fill="white"/>
<path d="M91.4141 105.428L95.1633 111.949L93.4185 112.945L92.5541 111.442L92.7528 111.689C92.8025 112.233 92.7162 112.731 92.4939 113.184C92.2739 113.641 91.9074 114.016 91.3945 114.309C90.8856 114.6 90.4037 114.723 89.9486 114.678C89.4896 114.635 89.0644 114.455 88.6732 114.139C88.2819 113.822 87.9336 113.398 87.6281 112.867L85.3439 108.895L87.1492 107.864L89.3674 111.722C89.6336 112.184 89.9163 112.499 90.2156 112.665C90.5172 112.835 90.8578 112.811 91.2374 112.594C91.6857 112.338 91.9272 111.947 91.9617 111.419C91.9923 110.894 91.7808 110.237 91.3272 109.448L89.6088 106.459L91.4141 105.428Z" fill="white"/>
<path d="M81.2632 110.482C81.7854 110.285 82.2359 110.259 82.6145 110.403C82.9905 110.554 83.2693 110.868 83.4509 111.345L85.0238 115.476L86.0291 115.096L86.5691 116.514L85.5638 116.894L86.0889 118.273L84.3219 119.477L83.6184 117.629L82.3128 118.123L81.7728 116.705L83.0784 116.211L81.622 112.386C81.5675 112.243 81.5107 112.153 81.4517 112.115C81.3901 112.084 81.2918 112.094 81.1568 112.145L80.0797 112.552L79.5397 111.134L81.2632 110.482Z" fill="white"/>
<path d="M75.5952 112.015C76.0644 111.917 76.5144 111.909 76.9451 111.989C77.3768 112.074 77.7478 112.255 78.0581 112.532C78.3637 112.809 78.5682 113.193 78.6714 113.683C78.7822 114.21 78.7237 114.689 78.4958 115.12C78.268 115.552 77.8826 115.924 77.3396 116.236C76.7975 116.554 76.1142 116.798 75.2896 116.971L74.2509 117.188L74.3352 116.978L74.4241 117.4C74.5263 117.886 74.6911 118.228 74.9184 118.427C75.1468 118.631 75.4659 118.69 75.8759 118.604C76.2677 118.522 76.5464 118.355 76.712 118.102C76.8741 117.855 76.9377 117.536 76.903 117.145L79.055 117.065C79.0635 117.49 78.9655 117.894 78.7609 118.278C78.5528 118.668 78.2255 119.011 77.7791 119.308C77.3328 119.605 76.7542 119.828 76.0435 119.977C75.3921 120.113 74.8188 120.124 74.3239 120.009C73.8299 119.899 73.418 119.637 73.0882 119.222C72.7538 118.809 72.5049 118.214 72.3416 117.437L71.8156 114.938C71.7831 114.784 71.7411 114.686 71.6896 114.645C71.6335 114.604 71.5349 114.599 71.3937 114.628L71.0588 114.698L70.7464 113.214L71.7168 113.011C72.2498 112.899 72.683 112.946 73.0163 113.152C73.346 113.362 73.5634 113.717 73.6685 114.217L73.7416 114.564L73.3576 114.502C73.3757 114.295 73.4183 114.068 73.4854 113.821C73.5525 113.575 73.6675 113.331 73.8305 113.088C73.9898 112.851 74.211 112.636 74.4941 112.445C74.7771 112.253 75.1441 112.11 75.5952 112.015ZM75.2998 113.527C74.9809 113.594 74.7138 113.726 74.4983 113.922C74.2829 114.119 74.1351 114.378 74.055 114.698C73.9759 115.022 73.9822 115.402 74.0739 115.838L74.1069 115.995L74.9679 115.815C75.4554 115.713 75.8224 115.57 76.069 115.386C76.3111 115.203 76.4672 115.006 76.5373 114.797C76.6084 114.593 76.6259 114.404 76.5895 114.232C76.5609 114.096 76.4994 113.962 76.405 113.83C76.3061 113.699 76.1687 113.599 75.9928 113.532C75.8133 113.47 75.5823 113.468 75.2998 113.527Z" fill="white"/>
<path d="M65.4239 113.274C66.215 113.258 66.9048 113.403 67.4933 113.711C68.0771 114.019 68.5311 114.464 68.8554 115.047C69.1796 115.629 69.3503 116.326 69.3674 117.138C69.3844 117.945 69.2432 118.646 68.9438 119.242C68.6444 119.837 68.2095 120.299 67.6391 120.626C67.0687 120.958 66.388 121.132 65.5968 121.149C65.0291 121.161 64.4987 121.07 64.0058 120.876C63.5128 120.682 63.0922 120.387 62.744 119.991C62.3912 119.599 62.1457 119.108 62.0075 118.517L63.9673 118.058C64.0809 118.589 64.2755 118.984 64.551 119.243C64.8266 119.506 65.1691 119.634 65.5787 119.625C66.1418 119.613 66.5559 119.382 66.8211 118.931C67.0817 118.48 67.2042 117.888 67.1888 117.156C67.1734 116.428 67.0262 115.848 66.7471 115.418C66.4681 114.992 66.0424 114.786 65.4699 114.797C65.0744 114.806 64.7441 114.931 64.4792 115.173C64.2097 115.42 64.0173 115.791 63.902 116.285L61.9888 115.97C62.0723 115.514 62.2245 115.116 62.4455 114.777C62.6666 114.443 62.9355 114.166 63.2521 113.946C63.5642 113.731 63.9053 113.568 64.2754 113.458C64.6455 113.344 65.0283 113.283 65.4239 113.274Z" fill="white"/>
<path d="M57.8134 112.999C58.3671 113.073 58.7761 113.263 59.0403 113.569C59.2994 113.88 59.3951 114.288 59.3275 114.794L58.7421 119.173L59.808 119.315L59.607 120.819L58.5412 120.677L58.3457 122.139L56.2169 122.362L56.4787 120.403L55.0944 120.22L55.2954 118.716L56.6796 118.9L57.2217 114.844C57.242 114.692 57.235 114.586 57.2009 114.525C57.1615 114.469 57.0703 114.431 56.9272 114.412L55.7852 114.26L55.9862 112.757L57.8134 112.999Z" fill="white"/>
<path d="M45.7991 109.496C46.634 109.851 47.2887 110.296 47.7632 110.83C48.2317 111.367 48.5092 111.972 48.5958 112.644C48.6764 113.319 48.5549 114.034 48.2316 114.789L45.7571 120.568L43.7727 119.725L46.2198 114.009C46.492 113.374 46.5317 112.808 46.339 112.313C46.1402 111.82 45.7218 111.437 45.0839 111.166C44.446 110.895 43.88 110.863 43.3858 111.072C42.8874 111.279 42.4902 111.728 42.1943 112.419L39.791 118.031L37.8066 117.188L40.2811 111.409C40.6044 110.653 41.0405 110.072 41.5894 109.665C42.1321 109.26 42.7622 109.042 43.4797 109.009C44.1911 108.978 44.9643 109.141 45.7991 109.496Z" fill="white"/>
<path d="M37.4139 104.909C37.8811 105.231 38.2752 105.601 38.5962 106.019C38.9145 106.441 39.1162 106.893 39.2011 107.374C39.286 107.856 39.208 108.352 38.967 108.863L37.1902 108.096C37.3966 107.725 37.4566 107.377 37.3704 107.053C37.2776 106.729 37.034 106.432 36.6396 106.16C36.2605 105.899 35.9274 105.78 35.6404 105.802C35.3507 105.828 35.1358 105.942 34.9955 106.145C34.8711 106.324 34.8367 106.529 34.8923 106.759C34.944 106.986 35.1275 107.248 35.4428 107.544L35.9422 108.023C36.1405 108.21 36.3462 108.42 36.5593 108.651C36.7658 108.883 36.9392 109.135 37.0793 109.406C37.2167 109.681 37.2822 109.975 37.2757 110.286C37.2692 110.597 37.1495 110.921 36.9167 111.257C36.6335 111.665 36.2823 111.939 35.8629 112.079C35.437 112.22 34.9758 112.232 34.4794 112.116C33.9803 112.003 33.4799 111.774 32.9782 111.429C32.5148 111.11 32.1393 110.75 31.8516 110.348C31.5613 109.951 31.3791 109.533 31.3051 109.093C31.2246 108.654 31.2797 108.215 31.4704 107.777L33.2551 108.532C33.1734 108.707 33.1233 108.89 33.1046 109.08C33.0821 109.267 33.1183 109.456 33.2133 109.645C33.3056 109.839 33.482 110.025 33.7424 110.204C34.0373 110.407 34.3125 110.512 34.568 110.519C34.8197 110.523 35.0144 110.426 35.152 110.228C35.2525 110.083 35.2867 109.931 35.2545 109.774C35.2184 109.614 35.136 109.447 35.0072 109.274C34.8719 109.102 34.7102 108.923 34.5223 108.737L33.9543 108.185C33.662 107.905 33.4147 107.596 33.2125 107.26C33.0037 106.924 32.8902 106.57 32.8719 106.196C32.8536 105.823 32.9821 105.438 33.2573 105.041C33.5616 104.602 33.9389 104.315 34.3892 104.179C34.8357 104.041 35.3219 104.038 35.8478 104.169C36.3672 104.301 36.8893 104.548 37.4139 104.909Z" fill="white"/>
<path d="M25.065 101.116L25.1897 102.666L23.386 102.554L24.2673 104.054L22.834 104.642L22.3947 102.875L21.2036 104.218L20.1973 103.043L21.7148 102.081L20.0282 101.366L20.8406 100.053L22.1893 101.156L22.3658 99.3689L23.8819 99.7351L23.1268 101.576L25.065 101.116Z" fill="white"/>
<path d="M20.6785 84.8182C21.0828 85.7305 21.2365 86.6112 21.1396 87.4602C21.0407 88.3049 20.7154 89.0693 20.1637 89.7533C19.6059 90.435 18.8458 90.9876 17.8835 91.4112C16.9339 91.8291 16.0237 92.0143 15.1528 91.9666C14.2818 91.9189 13.4998 91.647 12.8066 91.1509C12.1135 90.6547 11.5619 89.9441 11.1519 89.0191C10.6911 87.9795 10.5618 86.9816 10.7639 86.0255C10.9599 85.067 11.5011 84.2558 12.3874 83.5918L13.7394 85.3852C13.1784 85.7842 12.8265 86.2358 12.6835 86.7399C12.5387 87.2398 12.5847 87.7571 12.8217 88.2917C13.0493 88.8052 13.3707 89.186 13.7861 89.4342C14.1995 89.6782 14.6807 89.7935 15.2294 89.7802C15.772 89.7645 16.3584 89.6179 16.9886 89.3405C17.6188 89.0631 18.1257 88.7259 18.5095 88.3288C18.889 87.9335 19.1275 87.5015 19.225 87.0326C19.3182 86.5656 19.2548 86.0838 19.0348 85.5874C18.7978 85.0527 18.4452 84.6704 17.9768 84.4404C17.5085 84.2105 16.9663 84.1525 16.3502 84.2664L15.8598 82.0406C16.9312 81.8631 17.8874 82.0228 18.7285 82.5198C19.5696 83.0167 20.2196 83.7829 20.6785 84.8182Z" fill="white"/>
<path d="M17.5802 75.1517C17.7282 75.8933 17.6946 76.581 17.4794 77.2148C17.2632 77.8441 16.897 78.3755 16.3808 78.8089C15.86 79.2432 15.2183 79.5358 14.4559 79.6869C13.6889 79.8389 12.9837 79.8132 12.3404 79.6096C11.6924 79.4069 11.1501 79.0556 10.7134 78.5557C10.2712 78.0521 9.97608 77.4296 9.8281 76.688C9.6792 75.9418 9.71282 75.2541 9.92895 74.6248C10.1396 73.9918 10.5054 73.4582 11.0262 73.0239C11.5424 72.5906 12.1841 72.2979 12.9511 72.1459C13.7181 71.9939 14.4255 72.0192 15.0734 72.2219C15.7168 72.4254 16.2596 72.779 16.7018 73.2826C17.1394 73.787 17.4322 74.4101 17.5802 75.1517ZM16.0791 75.4421C15.9783 74.9371 15.6866 74.581 15.2039 74.374C14.7157 74.1633 14.1064 74.1304 13.376 74.2751C12.6409 74.4208 12.0906 74.6835 11.725 75.0634C11.3586 75.4387 11.2262 75.8812 11.3278 76.3907C11.4286 76.8958 11.7208 77.2541 12.2044 77.4656C12.6871 77.6727 13.296 77.7034 14.031 77.5577C14.766 77.412 15.3168 77.1515 15.6833 76.7762C16.0489 76.3963 16.1808 75.9516 16.0791 75.4421Z" fill="white"/>
<path d="M16.4267 68.9965L8.88588 68.998L8.88547 66.9941L10.6241 66.9937L10.3099 67.0425C9.81175 66.8153 9.42068 66.493 9.13665 66.0755C8.84796 65.6581 8.70356 65.1548 8.70344 64.5657C8.70332 63.9812 8.83588 63.5034 9.10113 63.1323C9.36638 62.7565 9.73406 62.4781 10.2042 62.2971C10.6743 62.1161 11.2165 62.0255 11.831 62.0254L16.4253 62.0244L16.4257 64.098L11.9641 64.0989C11.4288 64.099 11.0145 64.1872 10.7213 64.3635C10.4234 64.5399 10.2745 64.846 10.2746 65.2821C10.2747 65.797 10.4959 66.2005 10.9382 66.4927C11.3804 66.7802 12.0577 66.9238 12.9701 66.9237L16.4263 66.923L16.4267 68.9965Z" fill="white"/>
<path d="M17.0679 57.6741C16.9809 58.2239 16.7806 58.6268 16.4668 58.8828C16.1491 59.1335 15.7374 59.2191 15.2316 59.1397L10.8519 58.452L10.6846 59.5105L9.18097 59.2744L9.34833 58.2159L7.88613 57.9863L7.71338 55.8601L9.67218 56.1676L9.88953 54.793L11.3931 55.0291L11.1758 56.4037L15.2313 57.0405C15.383 57.0643 15.4898 57.06 15.5515 57.0274C15.6093 56.9895 15.6494 56.8996 15.6719 56.7575L15.8512 55.6234L17.3548 55.8595L17.0679 57.6741Z" fill="white"/>
<path d="M18.5351 52.0241C18.388 52.4789 18.1727 52.8727 17.889 53.2057C17.6009 53.5372 17.2595 53.7687 16.8649 53.9003C16.4717 54.0275 16.0358 54.0143 15.5573 53.8607C15.0433 53.6957 14.6547 53.4076 14.3915 52.9966C14.1282 52.5856 13.9949 52.0676 13.9915 51.4427C13.9837 50.8164 14.109 50.1036 14.3673 49.3045L14.6928 48.2978L14.8337 48.4746L14.4216 48.3423C13.9475 48.1901 13.5675 48.1631 13.2814 48.2614C12.9909 48.3582 12.7814 48.6053 12.653 49.0027C12.5302 49.3824 12.5379 49.7065 12.6761 49.975C12.8112 50.2377 13.0578 50.4509 13.4157 50.6145L12.4192 52.5169C12.0447 52.3139 11.7408 52.0287 11.5074 51.6613C11.2711 51.2882 11.134 50.8348 11.0962 50.3012C11.0584 49.7676 11.1508 49.1564 11.3735 48.4676C11.5776 47.8362 11.8522 47.3347 12.1973 46.963C12.538 46.5899 12.9707 46.3633 13.4954 46.2832C14.0216 46.1987 14.6635 46.2781 15.4211 46.5213L17.8601 47.3043C18.0108 47.3527 18.1169 47.3648 18.1785 47.3407C18.2415 47.3122 18.2951 47.2295 18.3394 47.0926L18.4443 46.7681L19.8931 47.2332L19.5891 48.1737C19.4221 48.6903 19.1665 49.042 18.8225 49.2288C18.4755 49.4098 18.0582 49.4221 17.5709 49.2656L17.2319 49.1568L17.4762 48.8551C17.6482 48.9737 17.8248 49.123 18.0063 49.3031C18.1877 49.4831 18.3437 49.7038 18.4745 49.9651C18.6022 50.2205 18.6795 50.5183 18.7065 50.8584C18.7335 51.1984 18.6764 51.587 18.5351 52.0241ZM17.3634 51.0193C17.4633 50.7102 17.4809 50.4137 17.4162 50.1298C17.3515 49.8458 17.1995 49.5899 16.9602 49.362C16.7165 49.1327 16.3819 48.9497 15.9566 48.8132L15.8037 48.7641L15.534 49.5986C15.3812 50.071 15.3241 50.4596 15.3625 50.7644C15.4024 51.0647 15.496 51.297 15.6434 51.4613C15.7863 51.6242 15.942 51.7326 16.1104 51.7867C16.2433 51.8293 16.3906 51.8425 16.5524 51.8262C16.7156 51.8055 16.8702 51.7357 17.0162 51.6169C17.1592 51.4923 17.2749 51.293 17.3634 51.0193Z" fill="white"/>
<path d="M22.4859 42.5947C22.1071 43.2871 21.6375 43.8112 21.077 44.1672C20.5187 44.519 19.9054 44.6904 19.2371 44.6813C18.5687 44.6722 17.877 44.4734 17.1617 44.0848C16.4506 43.6985 15.9101 43.2279 15.5404 42.673C15.1706 42.1182 14.9849 41.5127 14.9832 40.8567C14.9775 40.1985 15.164 39.5232 15.5428 38.8308C15.8146 38.3339 16.1574 37.9205 16.5711 37.5905C16.9849 37.2605 17.4509 37.0435 17.9691 36.9393C18.4855 36.8289 19.0353 36.8608 19.6186 37.035L19.044 38.9576C18.525 38.7919 18.0843 38.7639 17.7222 38.8736C17.3559 38.981 17.0747 39.2139 16.8787 39.5724C16.6091 40.0652 16.6047 40.5383 16.8656 40.9918C17.1288 41.4411 17.5832 41.8412 18.229 42.192C18.8706 42.5406 19.4482 42.7011 19.9616 42.6736C20.4709 42.6439 20.8626 42.3785 21.1366 41.8776C21.326 41.5314 21.3811 41.1835 21.3018 40.8341C21.2208 40.4783 20.9937 40.1278 20.6206 39.7825L21.8456 38.2845C22.2016 38.5835 22.4721 38.9128 22.6572 39.2722C22.8382 39.6294 22.9459 39.9996 22.9802 40.3827C23.0126 40.7596 22.9846 41.1354 22.8963 41.5101C22.812 41.887 22.6752 42.2485 22.4859 42.5947Z" fill="white"/>
<path d="M26.4719 36.207C26.1327 36.6492 25.764 36.9085 25.3658 36.9847C24.9667 37.0544 24.5637 36.9343 24.1569 36.6244L20.6341 33.9415L19.9812 34.7929L18.7718 33.8718L19.4247 33.0204L18.2486 32.1247L19.1127 30.173L20.6882 31.3729L21.5362 30.2672L22.7455 31.1883L21.8976 32.294L25.1596 34.7784C25.2817 34.8713 25.3776 34.9181 25.4474 34.9187C25.5164 34.9129 25.5946 34.8528 25.6823 34.7386L26.3818 33.8264L27.5912 34.7474L26.4719 36.207Z" fill="white"/>
<path d="M35.5016 27.5291C34.7789 28.0764 34.0671 28.4233 33.366 28.5696C32.6659 28.7095 32.0013 28.6506 31.3721 28.393C30.7439 28.1288 30.1805 27.6699 29.682 27.0162L25.8671 22.0137L27.5848 20.7127L31.3575 25.6599C31.7772 26.2102 32.2507 26.5245 32.7782 26.6028C33.3065 26.6746 33.8468 26.5014 34.399 26.0832C34.9512 25.665 35.2586 25.1903 35.3213 24.6593C35.3878 24.1254 35.1928 23.5593 34.7366 22.961L31.0315 18.1025L32.7492 16.8015L36.5642 21.8041C37.0627 22.4578 37.3537 23.123 37.4371 23.7997C37.5215 24.47 37.4004 25.1239 37.074 25.7615C36.7484 26.3926 36.2243 26.9818 35.5016 27.5291Z" fill="white"/>
<path d="M43.6421 22.54C43.1305 22.7856 42.6129 22.9441 42.0893 23.0153C41.5637 23.0823 41.07 23.0337 40.6081 22.8693C40.1462 22.7049 39.7521 22.3921 39.4258 21.9309L40.973 20.7708C41.1946 21.1329 41.4682 21.3568 41.7938 21.4425C42.1216 21.522 42.5015 21.458 42.9334 21.2506C43.3485 21.0512 43.6173 20.8217 43.7398 20.5621C43.8603 20.2983 43.8669 20.0556 43.7598 19.8341C43.6649 19.6377 43.5034 19.5067 43.2753 19.4412C43.0514 19.3736 42.7325 19.4032 42.3184 19.53L41.6535 19.7257C41.3921 19.8049 41.1078 19.8796 40.8008 19.9498C40.4959 20.0138 40.1905 20.0395 39.8846 20.0267C39.5768 20.0098 39.2887 19.9216 39.0203 19.7621C38.752 19.6026 38.529 19.3389 38.3511 18.9712C38.1349 18.5241 38.0695 18.0843 38.155 17.6519C38.2426 17.2134 38.4599 16.8078 38.8068 16.4352C39.1516 16.0585 39.5987 15.7382 40.1481 15.4744C40.6555 15.2308 41.1552 15.0835 41.6473 15.0326C42.1373 14.9774 42.5926 15.0266 43.013 15.18C43.4355 15.3272 43.7908 15.5918 44.0787 15.9735L42.5376 17.1462C42.4254 16.9889 42.291 16.8552 42.1343 16.7451C41.9819 16.6329 41.7996 16.5711 41.5874 16.5597C41.3732 16.5442 41.1235 16.6048 40.8384 16.7418C40.5155 16.8968 40.2879 17.0834 40.1557 17.3014C40.0276 17.5173 40.0161 17.734 40.1211 17.9513C40.1979 18.1101 40.313 18.2145 40.4663 18.2644C40.6238 18.3123 40.81 18.3233 41.0248 18.2974C41.2418 18.2653 41.4778 18.2138 41.7329 18.1428L42.495 17.9236C42.8839 17.8089 43.2751 17.7472 43.6688 17.7384C44.0645 17.7234 44.4298 17.8003 44.7646 17.969C45.0994 18.1378 45.3719 18.4395 45.5821 18.8741C45.8145 19.3547 45.8784 19.8235 45.7738 20.2805C45.6735 20.7354 45.4362 21.1583 45.062 21.5492C44.6899 21.9338 44.2166 22.2641 43.6421 22.54Z" fill="white"/>
<path d="M53.0856 13.7243L51.6743 13.0616L52.669 11.5579L50.9242 11.5739L51.125 10.0423L52.8818 10.5409L52.3052 8.84361L53.8285 8.55768L53.911 10.3477L55.3723 9.245L56.1116 10.6002L54.4805 11.2179L55.9491 12.2592L54.8765 13.3881L53.6493 11.82L53.0856 13.7243Z" fill="white"/>
</svg>
