<svg width="24" height="24" viewBox="0 0 24 24" fill="none" xmlns="http://www.w3.org/2000/svg">
<g clip-path="url(#clip0_74_250)">
<path d="M12 23.1431C18.154 23.1431 23.1428 18.1543 23.1428 12.0003C23.1428 5.84625 18.154 0.857422 12 0.857422C5.84594 0.857422 0.857117 5.84625 0.857117 12.0003C0.857117 18.1543 5.84594 23.1431 12 23.1431Z" stroke="white" stroke-width="1.5" stroke-linecap="round" stroke-linejoin="round"/>
<path d="M0.857117 12H23.1428" stroke="white" stroke-width="1.5" stroke-linecap="round" stroke-linejoin="round"/>
<path d="M16.2857 12.0003C16.0751 16.0751 14.5743 19.9774 11.9999 23.1431C9.42564 19.9774 7.92475 16.0751 7.71423 12.0003C7.92475 7.92544 9.42564 4.02311 11.9999 0.857422C14.5743 4.02311 16.0751 7.92544 16.2857 12.0003V12.0003Z" stroke="white" stroke-width="1.5" stroke-linecap="round" stroke-linejoin="round"/>
</g>
<defs>
<clipPath id="clip0_74_250">
<rect width="24" height="24" fill="white"/>
</clipPath>
</defs>
</svg>
