<svg width="100" height="100" viewBox="0 0 100 100" fill="none" xmlns="http://www.w3.org/2000/svg">
<path d="M49.0714 67.857C66.8234 67.857 81.2143 53.4662 81.2143 35.7141C81.2143 17.9621 66.8234 3.57129 49.0714 3.57129C31.3194 3.57129 16.9286 17.9621 16.9286 35.7141C16.9286 53.4662 31.3194 67.857 49.0714 67.857Z" stroke="#090D2D" stroke-opacity="0.05" stroke-width="1.5" stroke-linecap="round" stroke-linejoin="round"/>
<path d="M49.0714 49.9997C56.9612 49.9997 63.3571 43.6037 63.3571 35.7139C63.3571 27.8242 56.9612 21.4282 49.0714 21.4282C41.1816 21.4282 34.7857 27.8242 34.7857 35.7139C34.7857 43.6037 41.1816 49.9997 49.0714 49.9997Z" stroke="#090D2D" stroke-opacity="0.05" stroke-width="1.5" stroke-linecap="round" stroke-linejoin="round"/>
<path d="M42.8571 67.2854L36.5714 93.714C36.447 94.2163 36.2171 94.6863 35.8968 95.0927C35.5766 95.4991 35.1735 95.8327 34.7143 96.0711C34.2296 96.2815 33.7069 96.3901 33.1786 96.3901C32.6502 96.3901 32.1275 96.2815 31.6429 96.0711L7.92857 85.714C7.43115 85.4788 6.99346 85.1341 6.64835 84.7055C6.30325 84.277 6.05969 83.7759 5.93597 83.2398C5.81225 82.7037 5.81158 82.1465 5.93401 81.6101C6.05644 81.0736 6.29878 80.5719 6.64286 80.1426L25 57.1426" stroke="#090D2D" stroke-opacity="0.05" stroke-width="1.5" stroke-linecap="round" stroke-linejoin="round"/>
<path d="M57.1429 66.9285L63.5714 93.7142C63.6993 94.225 63.9384 94.7012 64.2719 95.1087C64.6053 95.5162 65.0247 95.8449 65.5 96.0714C65.9714 96.2844 66.4827 96.3945 67 96.3945C67.5173 96.3945 68.0286 96.2844 68.5 96.0714L92.0714 85.7142C92.5763 85.4819 93.02 85.1349 93.3673 84.7009C93.7145 84.2669 93.9556 83.7578 94.0714 83.2142C94.2068 82.6825 94.2126 82.126 94.0883 81.5915C93.9641 81.057 93.7133 80.5602 93.3571 80.1428L74.2143 55.7856" stroke="#090D2D" stroke-opacity="0.05" stroke-width="1.5" stroke-linecap="round" stroke-linejoin="round"/>
</svg>
