<svg width="20" height="20" viewBox="0 0 20 20" fill="none" xmlns="http://www.w3.org/2000/svg">
<path d="M10 19.1285C10.938 19.1285 11.8668 18.9438 12.7335 18.5848C13.6001 18.2258 14.3875 17.6997 15.0508 17.0364C15.714 16.3731 16.2402 15.5857 16.5991 14.7191C16.9581 13.8525 17.1429 12.9237 17.1429 11.9857V8.01422C17.143 6.25949 16.4971 4.56611 15.3286 3.25708" stroke="white" stroke-width="1.5" stroke-linecap="round" stroke-linejoin="round"/>
<path d="M2.85742 9.59985V11.9856C2.85694 13.3917 3.2715 14.7667 4.04913 15.9382C4.82676 17.1098 5.93288 18.0257 7.22885 18.5713" stroke="white" stroke-width="1.5" stroke-linecap="round" stroke-linejoin="round"/>
<path d="M13.5714 1.82853C11.9309 0.881369 9.98124 0.624693 8.15144 1.11496C6.32163 1.60523 4.76152 2.80229 3.81429 4.44281C3.42425 5.11643 3.14907 5.85027 3 6.61424" stroke="white" stroke-width="1.5" stroke-linecap="round" stroke-linejoin="round"/>
<path d="M9.25781 5.01431C9.78324 4.90523 10.3264 4.91548 10.8474 5.04429C11.3683 5.1731 11.8537 5.41719 12.2678 5.75857C12.6818 6.09995 13.0139 6.52991 13.2397 7.01674C13.4654 7.50358 13.579 8.03487 13.5721 8.57146V10.8715" stroke="white" stroke-width="1.5" stroke-linecap="round" stroke-linejoin="round"/>
<path d="M12.6577 13.8714C12.1717 14.4128 11.5318 14.7929 10.8238 14.9607C10.1159 15.1285 9.3735 15.0761 8.69613 14.8104C8.01876 14.5447 7.43869 14.0785 7.03356 13.4741C6.62842 12.8698 6.41755 12.156 6.42917 11.4285V8.57139C6.42645 8.08075 6.52366 7.59468 6.71488 7.14282" stroke="white" stroke-width="1.5" stroke-linecap="round" stroke-linejoin="round"/>
<path d="M10 8.72852V11.1142" stroke="white" stroke-width="1.5" stroke-linecap="round" stroke-linejoin="round"/>
</svg>
