<svg width="20" height="20" viewBox="0 0 20 20" fill="none" xmlns="http://www.w3.org/2000/svg">
<g clip-path="url(#clip0_320_11031)">
<path d="M17.8571 2.14453L12.9857 7.01596" stroke="white" stroke-width="1.5" stroke-linecap="round" stroke-linejoin="round"/>
<path d="M2.14285 2.14453L7.01428 7.01596" stroke="white" stroke-width="1.5" stroke-linecap="round" stroke-linejoin="round"/>
<path d="M2.14285 17.8558L7.01428 12.9844" stroke="white" stroke-width="1.5" stroke-linecap="round" stroke-linejoin="round"/>
<path d="M17.8571 17.8558L12.9857 12.9844" stroke="white" stroke-width="1.5" stroke-linecap="round" stroke-linejoin="round"/>
<path d="M9.99999 19.2863C15.1284 19.2863 19.2857 15.1289 19.2857 10.0006C19.2857 4.8722 15.1284 0.714844 9.99999 0.714844C4.87163 0.714844 0.714279 4.8722 0.714279 10.0006C0.714279 15.1289 4.87163 19.2863 9.99999 19.2863Z" stroke="white" stroke-width="1.5" stroke-linecap="round" stroke-linejoin="round"/>
<path d="M9.99999 14.2137C12.3275 14.2137 14.2143 12.3269 14.2143 9.99944C14.2143 7.67196 12.3275 5.78516 9.99999 5.78516C7.67251 5.78516 5.78571 7.67196 5.78571 9.99944C5.78571 12.3269 7.67251 14.2137 9.99999 14.2137Z" stroke="white" stroke-width="1.5" stroke-linecap="round" stroke-linejoin="round"/>
</g>
<defs>
<clipPath id="clip0_320_11031">
<rect width="20" height="20" fill="white"/>
</clipPath>
</defs>
</svg>
