<svg width="24" height="24" viewBox="0 0 24 24" fill="none" xmlns="http://www.w3.org/2000/svg">
<g clip-path="url(#clip0_381_6546)">
<path d="M18.9696 14.8657C18.4783 14.3541 17.8857 14.0805 17.2575 14.0805C16.6345 14.0805 16.0368 14.349 15.5252 14.8606L13.9245 16.4562C13.7928 16.3853 13.6611 16.3194 13.5345 16.2536C13.3522 16.1624 13.1799 16.0763 13.033 15.9851C11.5337 15.0328 10.1711 13.7918 8.86424 12.1861C8.23107 11.3857 7.80558 10.7121 7.49659 10.0282C7.91195 9.64833 8.29692 9.25323 8.67176 8.87333C8.81359 8.7315 8.95542 8.5846 9.09725 8.44277C10.161 7.37904 10.161 6.00127 9.09725 4.93754L7.7144 3.55469C7.55737 3.39767 7.39528 3.23558 7.24332 3.07349C6.9394 2.75943 6.62028 2.43525 6.29103 2.13133C5.79969 1.64505 5.21211 1.38672 4.59414 1.38672C3.97616 1.38672 3.37845 1.64505 2.87191 2.13133C2.86685 2.13639 2.86685 2.13639 2.86178 2.14146L1.13956 3.87888C0.491192 4.52724 0.12142 5.31744 0.0403745 6.23427C-0.0811943 7.71336 0.354427 9.09114 0.688741 9.99277C1.50933 12.2063 2.73515 14.2578 4.56375 16.4562C6.78237 19.1054 9.45182 21.1974 12.5012 22.6714C13.6662 23.2235 15.2213 23.8769 16.9587 23.9884C17.0651 23.9934 17.1765 23.9985 17.2778 23.9985C18.4479 23.9985 19.4306 23.5781 20.2005 22.7423C20.2056 22.7322 20.2157 22.7271 20.2208 22.717C20.4842 22.3979 20.7881 22.1091 21.1072 21.8001C21.325 21.5925 21.5479 21.3746 21.7657 21.1467C22.2672 20.625 22.5306 20.0171 22.5306 19.3941C22.5306 18.766 22.2621 18.1632 21.7505 17.6567L18.9696 14.8657ZM20.783 20.1995C20.778 20.1995 20.778 20.2045 20.783 20.1995C20.5855 20.4122 20.3829 20.6047 20.1651 20.8175C19.8358 21.1315 19.5015 21.4608 19.1875 21.8305C18.6758 22.3776 18.0731 22.6359 17.2829 22.6359C17.2069 22.6359 17.1258 22.6359 17.0499 22.6309C15.5455 22.5346 14.1474 21.947 13.0989 21.4456C10.2319 20.0577 7.7144 18.0872 5.62241 15.59C3.89512 13.5081 2.74021 11.5833 1.97534 9.51663C1.50426 8.25535 1.33204 7.27267 1.40802 6.34571C1.45868 5.75306 1.68662 5.26172 2.10704 4.8413L3.83433 3.11401C4.08254 2.881 4.34593 2.75437 4.60427 2.75437C4.92339 2.75437 5.18172 2.94685 5.34381 3.10894C5.34888 3.11401 5.35394 3.11907 5.35901 3.12414C5.66799 3.41286 5.96179 3.71172 6.27077 4.03084C6.4278 4.19293 6.58989 4.35502 6.75198 4.52218L8.13483 5.90502C8.67176 6.44195 8.67176 6.93836 8.13483 7.47529C7.98793 7.62218 7.8461 7.76908 7.69921 7.91091C7.27371 8.34653 6.86849 8.75176 6.4278 9.14686C6.41767 9.15699 6.40754 9.16205 6.40247 9.17218C5.96685 9.60781 6.0479 10.0333 6.13907 10.322C6.14414 10.3372 6.1492 10.3524 6.15427 10.3676C6.51391 11.2389 7.02045 12.0594 7.79038 13.0371L7.79545 13.0421C9.19349 14.7643 10.6675 16.1067 12.2935 17.1349C12.5012 17.2666 12.7139 17.373 12.9165 17.4743C13.0989 17.5655 13.2711 17.6516 13.418 17.7428C13.4383 17.7529 13.4585 17.7681 13.4788 17.7782C13.651 17.8643 13.8131 17.9049 13.9803 17.9049C14.4007 17.9049 14.6641 17.6415 14.7502 17.5554L16.4825 15.823C16.6548 15.6508 16.9283 15.4431 17.2474 15.4431C17.5615 15.4431 17.8198 15.6407 17.9768 15.8129C17.9819 15.8179 17.9819 15.8179 17.987 15.823L20.778 18.614C21.2997 19.1307 21.2997 19.6626 20.783 20.1995Z" fill="white"/>
<path d="M12.9711 5.7081C14.2982 5.93098 15.5038 6.55909 16.4662 7.5215C17.4286 8.48392 18.0516 9.68948 18.2796 11.0166C18.3353 11.3509 18.624 11.5839 18.9533 11.5839C18.9938 11.5839 19.0293 11.5789 19.0698 11.5738C19.4446 11.513 19.6928 11.1584 19.632 10.7836C19.3585 9.17788 18.5987 7.71399 17.4387 6.55402C16.2788 5.39405 14.8149 4.63425 13.2092 4.36072C12.8343 4.29993 12.4848 4.54814 12.419 4.91791C12.3531 5.28768 12.5962 5.64732 12.9711 5.7081Z" fill="white"/>
<path d="M23.9723 10.5869C23.5215 7.94279 22.2754 5.53674 20.3607 3.62203C18.446 1.70732 16.04 0.461243 13.3958 0.0104253C13.0261 -0.0554245 12.6766 0.197844 12.6107 0.567615C12.5499 0.942452 12.7981 1.29196 13.173 1.35781C15.5334 1.75798 17.6862 2.87742 19.3983 4.58445C21.1104 6.29654 22.2248 8.44932 22.6249 10.8098C22.6807 11.1441 22.9694 11.3771 23.2986 11.3771C23.3392 11.3771 23.3746 11.372 23.4151 11.367C23.7849 11.3113 24.0382 10.9567 23.9723 10.5869Z" fill="white"/>
</g>
<defs>
<clipPath id="clip0_381_6546">
<rect width="24" height="24" fill="white"/>
</clipPath>
</defs>
</svg>
