<svg width="20" height="20" viewBox="0 0 20 20" fill="none" xmlns="http://www.w3.org/2000/svg">
<g clip-path="url(#clip0_435_2912)">
<path d="M7.47166 3.21436L8.08595 1.62864C8.18955 1.36016 8.37181 1.12923 8.60888 0.966087C8.84594 0.802947 9.12675 0.715206 9.41452 0.714355H10.5859C10.8737 0.715206 11.1545 0.802947 11.3916 0.966087C11.6287 1.12923 11.8109 1.36016 11.9145 1.62864L12.5288 3.21436L14.6145 4.41436L16.3002 4.15721C16.5809 4.11911 16.8666 4.16532 17.121 4.28996C17.3753 4.4146 17.5869 4.61205 17.7288 4.85721L18.3002 5.85721C18.4467 6.10628 18.5141 6.3939 18.4937 6.6821C18.4733 6.9703 18.366 7.24554 18.1859 7.4715L17.1431 8.80007V11.2001L18.2145 12.5286C18.3946 12.7546 18.5019 13.0298 18.5223 13.318C18.5427 13.6062 18.4752 13.8939 18.3288 14.1429L17.7574 15.1429C17.6155 15.3881 17.4039 15.5855 17.1495 15.7102C16.8952 15.8348 16.6095 15.881 16.3288 15.8429L14.6431 15.5858L12.5574 16.7858L11.9431 18.3715C11.8395 18.64 11.6572 18.8709 11.4202 19.0341C11.1831 19.1972 10.9023 19.2849 10.6145 19.2858H9.41452C9.12675 19.2849 8.84594 19.1972 8.60888 19.0341C8.37181 18.8709 8.18955 18.64 8.08595 18.3715L7.47166 16.7858L5.38595 15.5858L3.70023 15.8429C3.41954 15.881 3.13386 15.8348 2.87949 15.7102C2.62513 15.5855 2.41355 15.3881 2.27166 15.1429L1.70023 14.1429C1.55381 13.8939 1.48634 13.6062 1.50675 13.318C1.52715 13.0298 1.63446 12.7546 1.81452 12.5286L2.85738 11.2001V8.80007L1.78595 7.4715C1.60589 7.24554 1.49858 6.9703 1.47818 6.6821C1.45777 6.3939 1.52524 6.10628 1.67166 5.85721L2.24309 4.85721C2.38498 4.61205 2.59655 4.4146 2.85092 4.28996C3.10529 4.16532 3.39097 4.11911 3.67166 4.15721L5.35738 4.41436L7.47166 3.21436ZM7.14309 10.0001C7.14309 10.5652 7.31066 11.1176 7.62461 11.5874C7.93855 12.0573 8.38478 12.4235 8.90685 12.6397C9.42893 12.856 10.0034 12.9126 10.5576 12.8023C11.1119 12.6921 11.621 12.42 12.0205 12.0204C12.4201 11.6208 12.6922 11.1117 12.8025 10.5575C12.9127 10.0032 12.8561 9.42876 12.6399 8.90669C12.4236 8.38461 12.0574 7.93839 11.5876 7.62444C11.1177 7.3105 10.5653 7.14293 10.0002 7.14293C9.24247 7.14293 8.51575 7.44395 7.97993 7.97976C7.44411 8.51558 7.14309 9.24231 7.14309 10.0001V10.0001Z" stroke="white" stroke-width="1.5" stroke-linecap="round" stroke-linejoin="round"/>
</g>
<defs>
<clipPath id="clip0_435_2912">
<rect width="20" height="20" fill="white"/>
</clipPath>
</defs>
</svg>
