<svg width="69" height="40" viewBox="0 0 69 40" fill="none" xmlns="http://www.w3.org/2000/svg">
<path d="M5.3802 10.7867C4.95461 9.7103 5.13936 8.47264 5.53139 7.4317C5.94385 6.33637 6.66205 5.24404 7.73549 4.66797C7.78875 5.82224 7.43444 6.96264 7.0473 7.99097C6.69915 8.9159 6.27197 9.9013 5.56656 10.6662C5.45817 11.2458 5.3751 11.8238 5.31669 12.3992C5.55048 11.7914 5.92958 11.2374 6.4026 10.7919C7.0116 10.2183 7.91751 9.7757 8.76788 10.0374C8.51881 10.9729 7.95107 11.8696 7.27869 12.4987C6.74946 12.9938 6.05084 13.6283 5.22793 13.6532C5.19403 14.4999 5.21319 15.3388 5.28319 16.1664C5.39929 15.5608 5.64802 14.9905 6.00743 14.5658C6.50114 13.9823 7.2332 13.2694 8.16812 13.3886C8.11707 14.3354 7.73757 15.3055 7.20908 16.0344C6.78912 16.6137 6.23472 17.352 5.44779 17.5427C5.5738 18.3558 5.74931 19.1555 5.97199 19.938C5.97413 19.3388 6.10711 18.7508 6.37091 18.2791C6.7427 17.614 7.32176 16.7845 8.25775 16.7196C8.39495 17.6485 8.20905 18.6639 7.83404 19.4715C7.53432 20.117 7.13472 20.9402 6.40635 21.2808C6.71222 22.1227 7.07417 22.941 7.48917 23.7309C7.34347 23.0501 7.34929 22.3327 7.52173 21.6872C7.75934 20.7974 8.34919 19.8626 9.29617 19.5914C9.63092 20.5738 9.58476 21.6702 9.39029 22.6687C9.23025 23.4908 8.9158 24.4564 8.21092 24.9905C8.67175 25.7306 9.18155 26.4408 9.7375 27.1166C9.43879 26.4538 9.29034 25.729 9.36999 25.0653C9.48602 24.0985 9.759 23.0642 10.7513 22.5488C11.3143 23.5154 11.4447 24.5999 11.4926 25.671C11.5312 26.537 11.4059 27.605 10.8016 28.3095C11.4663 28.9973 12.1836 29.641 12.9497 30.2346C12.4551 29.6032 12.1088 28.8623 12.0354 28.1296C11.9318 27.0943 11.9825 25.9546 12.9057 25.1949C13.6952 26.0156 14.1664 27.2242 14.3973 28.2739C14.6015 29.202 14.8146 30.3006 14.3285 31.214C15.3035 31.8473 16.3443 32.4053 17.4447 32.8778C16.6704 32.3287 16.0365 31.5753 15.7345 30.7974C15.3388 29.7778 15.094 28.5628 15.8649 27.5416C16.8977 28.1999 17.6568 29.3231 18.2548 30.3475C18.7679 31.2265 19.2991 32.4397 19.0355 33.4866C19.6448 33.6923 20.2698 33.873 20.9098 34.0271L20.8718 34.1834C20.2294 34.0287 19.602 33.8474 18.9902 33.6411C18.5616 34.9016 17.1575 35.318 16.0221 35.5018C14.4042 35.7638 12.4777 35.2562 11.0965 34.2338C11.8255 33.2086 13.3129 33.1046 14.4345 33.0261L14.4491 33.0251C15.6777 32.9392 17.0066 33.054 18.2422 33.3734C16.8148 32.8327 15.4792 32.1528 14.2477 31.3536L14.2295 31.3821C13.5547 32.4711 12.1997 32.5136 11.1362 32.4447C9.69302 32.3512 8.02683 31.478 7.06251 30.2708C7.96956 29.4788 9.3093 29.7005 10.3474 29.8722L10.3524 29.873C11.511 30.0647 12.777 30.4828 13.8398 31.1266C13.7386 31.0473 13.6395 30.9634 13.5432 30.8754C12.51 30.1422 11.5568 29.3222 10.6919 28.428C10.6819 28.438 10.6717 28.448 10.6614 28.4578C9.82043 29.2998 8.59558 29.0793 7.6397 28.8053C6.36053 28.4386 5.03392 27.3324 4.39818 26.0625C5.38334 25.5132 6.56117 25.9658 7.47731 26.3239C8.48284 26.7169 9.54671 27.3456 10.3647 28.147C10.2804 28.0411 10.1999 27.9305 10.1239 27.816C9.36356 26.962 8.67959 26.0476 8.07828 25.0828L8.04814 25.1016C7.09674 25.7126 6.01881 25.2702 5.16449 24.835C4.00616 24.2451 3.07533 22.9486 2.67312 21.6735C3.70068 21.346 4.71592 21.9888 5.50513 22.498C6.3683 23.0548 7.24265 23.8489 7.84281 24.7596C7.79873 24.6699 7.75767 24.5782 7.71982 24.4847C7.14317 23.4835 6.65328 22.4324 6.2567 21.3421L6.23626 21.349L6.23459 21.3496C5.36954 21.6769 4.40622 21.1681 3.77819 20.6101C2.90531 19.8346 2.29007 18.6424 2.14584 17.4777C3.04773 17.3614 3.89743 18.0558 4.47837 18.6481C5.14707 19.3298 5.74724 20.1354 6.11622 21.0303C6.08929 20.9331 6.06618 20.8344 6.04675 20.7346C5.71099 19.71 5.45663 18.6534 5.28895 17.5731L5.27589 17.5747L5.27147 17.5754C4.35692 17.7274 3.51137 17.0354 3.00619 16.3639C2.29744 15.4216 1.93207 14.1174 2.02365 12.9353C2.93465 12.9987 3.62833 13.8612 4.07817 14.5588C4.59882 15.3665 5.03057 16.2806 5.21969 17.2368C5.21393 17.1608 5.21051 17.0842 5.2093 17.0075C5.07043 15.908 5.02093 14.786 5.06621 13.6502L5.0636 13.65C4.13377 13.6167 3.44659 12.7576 3.09181 11.9955C2.58415 10.905 2.50243 9.5265 2.84126 8.36477C3.72748 8.6123 4.22153 9.62397 4.51314 10.4027C4.84936 11.3006 5.08403 12.2798 5.08591 13.2534C5.13427 12.4366 5.23168 11.6134 5.3802 10.7867Z" fill="white"/>
<path d="M23.6934 8.76953V12.6694C23.6934 14.3847 22.1324 15.2099 19.7665 15.2099C17.5551 15.2099 15.9697 14.3928 15.9697 12.4671V8.76953H18.173V12.4671C18.173 13.1549 18.7665 13.5837 19.856 13.5837C20.8967 13.5837 21.5146 13.1387 21.5146 12.4752V8.76953H23.6934Z" fill="white"/>
<path d="M31.0314 13.4299V15.1209H24.9419V8.76953H27.1452V13.4299H31.0314Z" fill="white"/>
<path d="M37.5795 10.3635V8.76953H29.9614V10.3635H32.6526V15.1209H34.8803V10.3635H37.5795Z" fill="white"/>
<path fill-rule="evenodd" clip-rule="evenodd" d="M45.3946 9.41686C45.6874 9.7162 45.826 10.1289 45.826 10.7033C45.826 11.1969 45.7041 11.6176 45.5005 11.9007C45.2727 12.2082 44.923 12.4671 44.4923 12.5319L46.4196 15.1209H43.9965L42.4109 12.8797H40.4355V15.1209H38.2646V8.76953H43.3461C44.3543 8.76953 45.0128 9.01226 45.3946 9.41686ZM43.6388 11.2373C43.6957 11.1402 43.7118 11.0107 43.7118 10.9056C43.7118 10.7842 43.6957 10.6547 43.6388 10.5739C43.5249 10.3635 43.2972 10.3069 42.9555 10.3069H40.4436V11.4639H42.9964C43.3461 11.4639 43.5577 11.3991 43.6388 11.2373Z" fill="white"/>
<path fill-rule="evenodd" clip-rule="evenodd" d="M49.3525 13.9478H52.7998L53.3605 15.1209H55.7105L52.491 8.76953H49.865L46.4585 15.1209H48.7589L49.3525 13.9478ZM52.1085 12.5237H50.0679L50.8732 10.9946L51.117 10.412L51.3448 10.9865L52.1085 12.5237Z" fill="white"/>
<path fill-rule="evenodd" clip-rule="evenodd" d="M45.162 16.3164C43.798 16.3164 43.0806 16.9597 43.0806 17.9051C43.0806 18.9721 43.8335 19.5133 45.162 19.5133C46.6244 19.5133 47.2393 18.8857 47.2393 17.9051C47.2393 16.9087 46.5453 16.3164 45.162 16.3164ZM45.162 18.7249C44.3855 18.7249 44.1604 18.4072 44.1604 17.9169C44.1604 17.4344 44.405 17.1167 45.1579 17.1167C45.9819 17.1167 46.1668 17.4736 46.1668 17.9169C46.1668 18.3876 45.9424 18.7249 45.162 18.7249Z" fill="white"/>
<path d="M41.059 19.4662V17.6422H39.0015V18.3051H40.1012C40.0934 18.3561 40.0539 18.4542 40.0026 18.513C39.8884 18.6464 39.5848 18.764 39.1907 18.764C38.7807 18.764 38.5167 18.6581 38.3748 18.4934C38.2802 18.3718 38.225 18.1992 38.225 17.9403C38.225 17.6696 38.2802 17.4853 38.3866 17.3637C38.5403 17.1911 38.8004 17.1166 39.1828 17.1166C39.5257 17.1166 39.7622 17.195 39.8726 17.293C39.9436 17.3519 39.9987 17.4343 40.0106 17.4892H41.0314C41.0275 17.3911 40.996 17.2342 40.9408 17.1205C40.6964 16.6262 40.1288 16.332 39.1631 16.332C38.3235 16.332 37.7599 16.587 37.4485 16.9714C37.2435 17.2342 37.1489 17.5637 37.1489 17.9324C37.1489 18.3404 37.2593 18.6895 37.4406 18.921C37.748 19.3172 38.2959 19.5132 38.9542 19.5132C39.5336 19.5132 39.9317 19.376 40.184 19.1681L40.2116 19.4662H41.059Z" fill="white"/>
<path d="M30.3221 17.6029C31.1223 17.6892 31.4652 17.9716 31.4652 18.509C31.4652 19.1602 30.8266 19.5132 29.5692 19.5132C28.3986 19.5132 27.8941 19.1837 27.7009 18.7522C27.6575 18.6502 27.6378 18.5247 27.626 18.4462H28.7612C28.7691 18.4933 28.7967 18.5639 28.8361 18.611C28.9307 18.7248 29.1948 18.7914 29.6441 18.7914C30.2236 18.7914 30.3615 18.709 30.3615 18.5561C30.3615 18.3913 30.2196 18.356 29.6954 18.3011C29.4865 18.2815 29.1554 18.2501 29.0174 18.2384C28.0163 18.1481 27.6457 17.8382 27.6457 17.3087C27.6457 16.7595 28.3 16.3398 29.4943 16.3398C30.5547 16.3398 31.0474 16.6536 31.2524 17.0459C31.3154 17.1636 31.3548 17.2969 31.3666 17.391H30.2314C30.2275 17.3479 30.2117 17.3048 30.1684 17.2498C30.0816 17.1361 29.8609 17.0616 29.4667 17.0616C28.911 17.0616 28.7651 17.1282 28.7651 17.2694C28.7651 17.4264 28.9504 17.4617 29.5692 17.5284C29.8097 17.548 30.192 17.5872 30.3221 17.6029Z" fill="white"/>
<path fill-rule="evenodd" clip-rule="evenodd" d="M19.0057 16.6495C19.2146 16.8143 19.3328 17.0928 19.3328 17.4968C19.3328 17.8263 19.2501 18.0734 19.0924 18.246C18.8796 18.4892 18.5288 18.5991 18.0715 18.603C17.9296 18.6069 16.7156 18.603 16.7156 18.603V19.4659H15.6553V16.3867H18.0557C18.4815 16.3867 18.8047 16.473 19.0057 16.6495ZM18.2213 17.7361C18.2528 17.6812 18.2686 17.6105 18.2686 17.5125C18.2686 17.4105 18.2489 17.3242 18.2134 17.2771C18.1464 17.1791 18.0203 17.132 17.8153 17.132H16.7077V17.8851H17.8074C18.0281 17.8851 18.1582 17.8341 18.2213 17.7361Z" fill="white"/>
<path fill-rule="evenodd" clip-rule="evenodd" d="M23.2112 16.7005C23.3532 16.8457 23.4202 17.0457 23.4202 17.3242C23.4202 17.5635 23.361 17.7675 23.2625 17.9047C23.1521 18.0538 22.9827 18.1793 22.7737 18.2107L23.7079 19.4659H22.5333L21.7646 18.3794H20.8068V19.4659H19.7544V16.3867H22.218C22.7067 16.3867 23.026 16.5044 23.2112 16.7005ZM22.3598 17.5831C22.3874 17.5361 22.3953 17.4733 22.3953 17.4223C22.3953 17.3635 22.3874 17.3007 22.3598 17.2615C22.3046 17.1595 22.1943 17.132 22.0288 17.132H20.8108V17.6929H22.0485C22.218 17.6929 22.3205 17.6615 22.3598 17.5831Z" fill="white"/>
<path d="M27.3061 19.4659V18.7011H25.087V18.3009H27.2155V17.5517H25.087V17.1555H27.2785V16.3867H24.0464V19.4659H27.3061Z" fill="white"/>
<path d="M35.3007 17.1595V16.3867H31.6074V17.1595H32.9121V19.4659H33.9921V17.1595H35.3007Z" fill="white"/>
<path d="M36.7207 16.3867V19.4659H35.6367V16.3867H36.7207Z" fill="white"/>
<path d="M42.6525 16.3867V19.4659H41.5684V16.3867H42.6525Z" fill="white"/>
<path d="M51.4215 16.3867V18.2774C51.4215 19.109 50.6645 19.5091 49.5177 19.5091C48.4458 19.5091 47.6768 19.1129 47.6768 18.1793V16.3867H48.7453V18.1793C48.7453 18.5127 49.0326 18.7207 49.5612 18.7207C50.0656 18.7207 50.3651 18.5049 50.3651 18.1833V16.3867H51.4215Z" fill="white"/>
<path d="M55.6771 18.509C55.6771 17.9716 55.3341 17.6892 54.5343 17.6029C54.4036 17.5872 54.0218 17.548 53.7813 17.5284C53.1623 17.4617 52.9767 17.4264 52.9767 17.2694C52.9767 17.1282 53.1228 17.0616 53.6788 17.0616C54.0727 17.0616 54.2938 17.1361 54.3802 17.2498C54.4237 17.3048 54.4391 17.3479 54.4431 17.391H55.5786C55.5666 17.2969 55.527 17.1636 55.4641 17.0459C55.2591 16.6536 54.7667 16.3398 53.7063 16.3398C52.5118 16.3398 51.8573 16.7595 51.8573 17.3087C51.8573 17.8382 52.2284 18.1481 53.2293 18.2384L53.2936 18.244L53.4008 18.2538L53.9072 18.3011C54.4318 18.356 54.5731 18.3913 54.5731 18.5561C54.5731 18.709 54.4358 18.7914 53.8563 18.7914C53.4068 18.7914 53.1429 18.7248 53.0477 18.611C53.0089 18.5639 52.9807 18.4933 52.9734 18.4462H51.8379C51.8499 18.5247 51.8694 18.6502 51.9129 18.7522C52.1059 19.1837 52.6103 19.5132 53.7813 19.5132C55.0387 19.5132 55.6771 19.1602 55.6771 18.509Z" fill="white"/>
<path fill-rule="evenodd" clip-rule="evenodd" d="M28.1133 20.6445C27.227 20.6445 26.7607 21.0627 26.7607 21.6771C26.7607 22.3705 27.25 22.7223 28.1133 22.7223C29.0638 22.7223 29.4634 22.3144 29.4634 21.6771C29.4634 21.0295 29.0126 20.6445 28.1133 20.6445ZM28.1133 22.2099C27.6087 22.2099 27.4627 22.0033 27.4627 21.6847C27.4627 21.3711 27.6215 21.1646 28.1108 21.1646C28.6462 21.1646 28.7666 21.3966 28.7666 21.6847C28.7666 21.9906 28.6206 22.2099 28.1133 22.2099Z" fill="white"/>
<path d="M23.1842 22.07C23.1842 21.7207 22.9613 21.5371 22.4412 21.481C22.3567 21.4708 22.1082 21.4454 21.9519 21.4326C21.5497 21.3892 21.4293 21.3663 21.4293 21.2644C21.4293 21.1726 21.5241 21.1292 21.8853 21.1292C22.1415 21.1292 22.2849 21.1776 22.3413 21.2516C22.3695 21.2873 22.3797 21.3153 22.3823 21.3434H23.1201C23.1124 21.2822 23.0868 21.1955 23.0458 21.119C22.9126 20.8641 22.5924 20.6602 21.9032 20.6602C21.1271 20.6602 20.7018 20.9329 20.7018 21.2898C20.7018 21.634 20.9426 21.8354 21.5933 21.894C21.683 21.9017 21.8981 21.9221 22.0339 21.9348C22.3746 21.9705 22.4668 21.9935 22.4668 22.1006C22.4668 22.2 22.3772 22.2535 22.0006 22.2535C21.7086 22.2535 21.5369 22.2102 21.4754 22.1362C21.4498 22.1056 21.4319 22.0598 21.4268 22.0292H20.689C20.6967 22.0802 20.7095 22.1617 20.7377 22.228C20.8632 22.5084 21.1911 22.7226 21.9519 22.7226C22.7691 22.7226 23.1842 22.4932 23.1842 22.07Z" fill="white"/>
<path fill-rule="evenodd" clip-rule="evenodd" d="M18.0692 22.1267C18.0692 22.2644 18.0308 22.3995 17.9539 22.4887C17.8361 22.6315 17.6158 22.6927 17.3315 22.6927H15.5459V20.6914H17.2828C17.5594 20.6914 17.7362 20.7577 17.8335 20.8571C17.9206 20.9438 17.9591 21.0585 17.9591 21.1885C17.9591 21.3186 17.9283 21.4257 17.8618 21.5047C17.8079 21.571 17.7157 21.6219 17.6184 21.6347C17.7618 21.6525 17.8976 21.7239 17.9744 21.8233C18.0385 21.8973 18.0692 22.0095 18.0692 22.1267ZM17.2059 21.4257C17.2315 21.3976 17.2469 21.3568 17.2469 21.3084C17.2469 21.2599 17.2315 21.2191 17.1982 21.1911C17.1624 21.1579 17.0957 21.1452 16.9984 21.1452H16.2171V21.4715H17.0163C17.1034 21.4715 17.1701 21.4588 17.2059 21.4257ZM17.0906 22.2389C17.211 22.2389 17.2828 22.2236 17.3238 22.1854C17.3493 22.1599 17.3596 22.1217 17.3596 22.0732C17.3596 22.0222 17.3468 21.984 17.3161 21.9534C17.2777 21.9203 17.211 21.9049 17.0983 21.9049H16.2171V22.2389H17.0906Z" fill="white"/>
<path d="M20.4814 22.1956V22.6927H18.3628V20.6914H20.4634V21.1911H19.0391V21.4486H20.4224V21.9355H19.0391V22.1956H20.4814Z" fill="white"/>
<path d="M25.6772 20.6914V21.1937H24.8267V22.6927H24.1248V21.1937H23.2769V20.6914H25.6772Z" fill="white"/>
<path d="M31.8079 20.6914V21.1987H30.4425V21.4817H31.7439V21.984H30.4425V22.6927H29.7534V20.6914H31.8079Z" fill="white"/>
<path d="M35.2787 21.1937V20.6914H32.8784V21.1937H33.7264V22.6927H34.4283V21.1937H35.2787Z" fill="white"/>
<path d="M37.8976 20.6914V22.6927H37.211V21.9661H36.1811V22.6927H35.4946V20.6914H36.1811V21.4205H37.211V20.6914H37.8976Z" fill="white"/>
<path d="M40.4228 22.6927V22.1956H38.9805V21.9355H40.3638V21.4486H38.9805V21.1911H40.4048V20.6914H38.3042V22.6927H40.4228Z" fill="white"/>
<path d="M44.67 20.6914H45.3332L44.5983 22.6927H43.8454C43.8454 22.6927 43.4427 21.4971 43.4401 21.4639C43.4381 21.4971 43.0328 22.6927 43.0328 22.6927H42.2825L41.5293 20.6914H42.2744C42.2744 20.6914 42.7105 21.9508 42.7105 21.9814C42.7105 21.9508 43.1125 20.6914 43.1125 20.6914H43.8326C43.8326 20.6914 44.2372 21.9508 44.2372 21.9814C44.2372 21.9508 44.67 20.6914 44.67 20.6914Z" fill="white"/>
<path fill-rule="evenodd" clip-rule="evenodd" d="M46.6484 20.6445C45.7622 20.6445 45.2959 21.0627 45.2959 21.6771C45.2959 22.3705 45.7849 22.7223 46.6484 22.7223C47.599 22.7223 47.9983 22.3144 47.9983 21.6771C47.9983 21.0295 47.5474 20.6445 46.6484 20.6445ZM46.6484 22.2099C46.144 22.2099 45.998 22.0033 45.998 21.6847C45.998 21.3711 46.1567 21.1646 46.6458 21.1646C47.1817 21.1646 47.3016 21.3966 47.3016 21.6847C47.3016 21.9906 47.1556 22.2099 46.6484 22.2099Z" fill="white"/>
<path fill-rule="evenodd" clip-rule="evenodd" d="M50.5354 20.8954C50.6272 20.9897 50.6707 21.1197 50.6707 21.3007C50.6707 21.4563 50.6326 21.5888 50.5683 21.6781C50.4966 21.7749 50.3867 21.8565 50.2507 21.8769L50.8577 22.6927H50.0946L49.5949 21.9865H48.9725V22.6927H48.2886V20.6914H49.8896C50.2072 20.6914 50.4148 20.7679 50.5354 20.8954ZM49.9821 21.469C49.9995 21.4384 50.0049 21.3976 50.0049 21.3645C50.0049 21.3262 49.9995 21.2855 49.9821 21.2599C49.9459 21.1937 49.8742 21.1758 49.7664 21.1758H48.9752V21.5404H49.7791C49.8896 21.5404 49.956 21.52 49.9821 21.469Z" fill="white"/>
<path d="M52.9967 22.6927V22.1599H51.7721V20.6914H51.0781V22.6927H52.9967Z" fill="white"/>
<path fill-rule="evenodd" clip-rule="evenodd" d="M55.7133 21.6551C55.7133 21.9661 55.6825 22.1344 55.5907 22.2925C55.4521 22.5448 55.1781 22.6927 54.6937 22.6927H53.2695V20.6914H54.6783C55.16 20.6914 55.4447 20.8265 55.5854 21.0585C55.6852 21.2141 55.7133 21.3797 55.7133 21.6551ZM54.5631 22.2007C54.7808 22.2007 54.9041 22.1497 54.9785 22.0375C55.0247 21.9687 55.0374 21.8081 55.0374 21.6679C55.0347 21.5404 55.0193 21.4053 54.9785 21.3441C54.8987 21.2243 54.7788 21.1809 54.5685 21.1809H53.9562V22.2007H54.5631Z" fill="white"/>
<path d="M28.2331 32.4258H27.1716C27.1716 32.4258 26.4789 34.4408 26.4789 34.4897C26.4789 34.4408 25.8313 32.4258 25.8313 32.4258H24.6795C24.6795 32.4258 24.036 34.4408 24.036 34.4897C24.036 34.4408 23.3392 32.4258 23.3392 32.4258H22.1465L23.3515 35.6277H24.5524C24.5524 35.6277 25.2 33.7147 25.2041 33.6617C25.2083 33.7147 25.8517 35.6277 25.8517 35.6277H27.0567L28.2331 32.4258Z" fill="white"/>
<path d="M29.6858 35.6277V32.4258H28.5586V35.6277H29.6858Z" fill="white"/>
<path d="M34.0697 32.4258V35.6277H32.9711L31.3768 33.8452V35.6277H30.3193V32.4258H31.4751L33.0203 34.1675V32.4258H34.0697Z" fill="white"/>
<path d="M38.4608 35.6277V32.4258H37.4115V34.1675L35.8663 32.4258H34.7104V35.6277H35.7679V33.8452L37.3623 35.6277H38.4608Z" fill="white"/>
<path d="M42.4911 34.8323V35.6277H39.1011V32.4258H42.4622V33.2252H40.1832V33.6372H42.3966V34.4163H40.1832V34.8323H42.4911Z" fill="white"/>
<path fill-rule="evenodd" clip-rule="evenodd" d="M46.8235 33.4006C46.8235 33.111 46.7538 32.903 46.6064 32.7521C46.4135 32.5482 46.0819 32.4258 45.5734 32.4258H43.0117V35.6277H44.1063V34.4978H45.1025L45.9017 35.6277H47.1229L46.1516 34.3225C46.3686 34.2898 46.5448 34.1593 46.66 34.0043C46.7618 33.8616 46.8235 33.6494 46.8235 33.4006ZM45.7577 33.5026C45.7577 33.5556 45.7496 33.6209 45.7208 33.6698C45.6799 33.7514 45.5734 33.784 45.3972 33.784H44.1104V33.2008H45.3765C45.5486 33.2008 45.6639 33.2293 45.7208 33.3354C45.7496 33.3762 45.7577 33.4414 45.7577 33.5026Z" fill="white"/>
<path d="M24.9603 26.7794L24.5158 25.418L24.0713 26.7794H22.6328L23.7966 27.6208L23.3521 28.9823L24.5158 28.1409L25.6795 28.9823L25.2351 27.6208L26.3988 26.7794H24.9603Z" fill="white"/>
<path d="M29.6475 25.418L30.1011 26.7794H31.5689L30.3814 27.6209L30.835 28.9823L29.6475 28.1409L28.46 28.9823L28.9136 27.6209L27.7261 26.7794H29.1939L29.6475 25.418Z" fill="white"/>
<path d="M35.1919 26.7794L34.7384 25.418L34.2848 26.7794H32.8169L34.0044 27.6209L33.5508 28.9823L34.7384 28.1409L35.9258 28.9823L35.4723 27.6209L36.6598 26.7794H35.1919Z" fill="white"/>
<path d="M39.8296 25.418L40.2832 26.7794H41.751L40.5636 27.6209L41.0172 28.9823L39.8296 28.1409L38.6421 28.9823L39.0957 27.6209L37.9082 26.7794H39.3761L39.8296 25.418Z" fill="white"/>
<path d="M45.406 26.7794L44.9612 25.418L44.5164 26.7794H43.0781L44.2417 27.6209L43.7976 28.9823L44.9612 28.1409L46.1248 28.9823L45.6807 27.6209L46.8443 26.7794H45.406Z" fill="white"/>
<path d="M64.0681 10.8142C64.4935 9.73785 64.3086 8.50005 63.9167 7.45911C63.5041 6.36385 62.7859 5.27138 61.7128 4.69531C61.6592 5.84965 62.0135 6.98998 62.4008 8.01831C62.7491 8.94318 63.1758 9.92851 63.8812 10.6934C63.9898 11.2728 64.0728 11.8507 64.1311 12.4259C63.8973 11.8184 63.5188 11.2646 63.0459 10.8193C62.4369 10.2456 61.5305 9.80311 60.6804 10.0648C60.9296 11.0002 61.4971 11.897 62.1696 12.5261C62.6989 13.0212 63.3976 13.6556 64.2202 13.6806C64.2544 14.5274 64.2349 15.3664 64.1646 16.194C64.0487 15.5884 63.8002 15.0181 63.4404 14.5934C62.9467 14.0098 62.2145 13.297 61.28 13.4162C61.3309 14.363 61.7107 15.3331 62.2393 16.062C62.6587 16.6413 63.2133 17.3796 64.0005 17.5704C63.8745 18.3834 63.699 19.1829 63.4759 19.9653C63.4739 19.3662 63.3413 18.7782 63.0774 18.3065C62.7056 17.6414 62.1261 16.8119 61.1902 16.747C61.0529 17.6759 61.2391 18.6913 61.6143 19.4989C61.9137 20.1444 62.3137 20.9676 63.0419 21.3082C62.7357 22.1502 62.374 22.9688 61.9586 23.7587C62.1047 23.0778 62.0986 22.3602 61.9265 21.7146C61.6886 20.8247 61.0991 19.8899 60.1519 19.6187C59.8169 20.6012 59.8632 21.6975 60.0581 22.696C60.2182 23.5182 60.5324 24.4838 61.2371 25.0179C60.7762 25.7584 60.2664 26.469 59.7098 27.1451C60.0092 26.482 60.1572 25.7568 60.0775 25.0928C59.9616 24.1259 59.689 23.0917 58.6969 22.5764C58.1335 23.543 58.0028 24.6275 57.9553 25.6986C57.9164 26.5646 58.0417 27.6328 58.6466 28.3373C57.9814 29.0249 57.2646 29.6684 56.4989 30.2619C56.9933 29.6305 57.3396 28.8896 57.4127 28.157C57.5165 27.1217 57.4662 25.9821 56.5424 25.2223C55.7533 26.043 55.2817 27.2516 55.0512 28.3013C54.8469 29.2294 54.6339 30.328 55.1196 31.2414C54.1449 31.8748 53.1038 32.4329 52.0032 32.9056C52.7776 32.3564 53.4113 31.6028 53.7135 30.8248C54.1094 29.8052 54.3539 28.5902 53.5835 27.569C52.5505 28.2273 51.7915 29.3504 51.1933 30.3749C50.6801 31.254 50.1489 32.4672 50.4128 33.5141C49.8032 33.7198 49.1782 33.9005 48.5385 34.0546L48.5766 34.211C49.2184 34.0562 49.8461 33.875 50.4577 33.6686C50.8865 34.929 52.2906 35.3456 53.4261 35.5294C55.0439 35.7913 56.9705 35.2838 58.3519 34.2614C57.6223 33.2361 56.1352 33.1321 55.0137 33.0536L54.999 33.0526C53.7704 32.9667 52.4413 33.0815 51.206 33.401C52.6329 32.8603 53.9687 32.1803 55.2006 31.381L55.2174 31.4076C55.892 32.4984 57.2479 32.5411 58.3117 32.4722C59.7553 32.3787 61.4214 31.5054 62.3853 30.2983C61.4783 29.5064 60.1392 29.728 59.1008 29.8996L59.0954 29.9006C57.9372 30.0922 56.6717 30.5101 55.6093 31.1537C55.7104 31.0744 55.8089 30.9906 55.9054 30.9027C56.9384 30.1697 57.891 29.3498 58.7558 28.4558C58.7679 28.4677 58.7799 28.4794 58.792 28.4911C59.6334 29.3265 60.8546 29.1061 61.8086 28.8327C63.0881 28.466 64.4145 27.3598 65.0502 26.0899C64.0648 25.5406 62.8871 25.9932 61.9713 26.3513C60.9645 26.7446 59.9 27.374 59.0814 28.1765C59.1658 28.0705 59.2468 27.9597 59.3232 27.845C60.0836 26.9906 60.7682 26.0756 61.3698 25.1102L61.3959 25.1263L61.4026 25.1305C62.3532 25.7393 63.4304 25.2972 64.2838 24.8624C65.4421 24.2725 66.3733 22.976 66.7752 21.7009C65.7476 21.3734 64.7327 22.0162 63.9435 22.5254C63.0794 23.0825 62.2045 23.8772 61.6042 24.7886C61.6484 24.6986 61.69 24.6066 61.7282 24.513C62.305 23.5114 62.7947 22.4601 63.1912 21.3695L63.212 21.3764L63.2154 21.3778C64.0802 21.7036 65.0428 21.1951 65.6705 20.6375C66.5428 19.862 67.1584 18.6698 67.3024 17.5051C66.4007 17.3888 65.5506 18.0832 64.9698 18.6754C64.3013 19.3576 63.7004 20.1638 63.3312 21.0594C63.3587 20.9616 63.3822 20.8624 63.4016 20.762C63.7372 19.7375 63.9918 18.6809 64.1592 17.6008L64.1847 17.6041C65.0958 17.7509 65.9385 17.061 66.4423 16.3913C67.151 15.449 67.5161 14.1448 67.4244 12.9626C66.514 13.0261 65.8199 13.8885 65.3704 14.5862C64.8492 15.3943 64.4172 16.3089 64.2282 17.2658C64.2343 17.1892 64.2376 17.1123 64.239 17.0351C64.3776 15.9356 64.4272 14.8135 64.3817 13.6776C65.3122 13.6452 66.0015 12.7854 66.3565 12.023C66.8636 10.9326 66.9454 9.55405 66.6071 8.39238C65.7208 8.63991 65.2264 9.65145 64.935 10.4302C64.5987 11.328 64.3642 12.3074 64.3622 13.281C64.314 12.4642 64.2162 11.6409 64.0681 10.8142Z" fill="white"/>
</svg>
