<svg width="24" height="24" viewBox="0 0 24 24" fill="none" xmlns="http://www.w3.org/2000/svg">
<g clip-path="url(#clip0_129_2338)">
<path d="M12 23.1431C18.154 23.1431 23.1428 18.1543 23.1428 12.0003C23.1428 5.84625 18.154 0.857422 12 0.857422C5.84594 0.857422 0.857117 5.84625 0.857117 12.0003C0.857117 18.1543 5.84594 23.1431 12 23.1431Z" stroke="white" stroke-width="1.5" stroke-linecap="round" stroke-linejoin="round"/>
<path d="M11.9999 16.2863C14.3669 16.2863 16.2857 14.3675 16.2857 12.0006C16.2857 9.63362 14.3669 7.71484 11.9999 7.71484C9.63301 7.71484 7.71423 9.63362 7.71423 12.0006C7.71423 14.3675 9.63301 16.2863 11.9999 16.2863Z" stroke="white" stroke-width="1.5" stroke-linecap="round" stroke-linejoin="round"/>
<path d="M7.71423 12.0006V1.71484" stroke="white" stroke-width="1.5" stroke-linecap="round" stroke-linejoin="round"/>
<path d="M12 7.71484H22.2857" stroke="white" stroke-width="1.5" stroke-linecap="round" stroke-linejoin="round"/>
<path d="M16.2857 12V22.2857" stroke="white" stroke-width="1.5" stroke-linecap="round" stroke-linejoin="round"/>
<path d="M11.9999 16.2852H1.71423" stroke="white" stroke-width="1.5" stroke-linecap="round" stroke-linejoin="round"/>
</g>
<defs>
<clipPath id="clip0_129_2338">
<rect width="24" height="24" fill="white"/>
</clipPath>
</defs>
</svg>
