<svg width="20" height="20" viewBox="0 0 20 20" fill="none" xmlns="http://www.w3.org/2000/svg">
<g clip-path="url(#clip0_240_7809)">
<path d="M12.5143 18.5717C13.394 19.1393 14.4424 19.3866 15.4831 19.2721C16.5237 19.1576 17.4932 18.6883 18.2286 17.9431L18.8714 17.3146C19.1533 17.0263 19.3111 16.6391 19.3111 16.236C19.3111 15.8328 19.1533 15.4457 18.8714 15.1574L16.1429 12.4574C15.857 12.1765 15.4722 12.0191 15.0714 12.0191C14.6706 12.0191 14.2859 12.1765 14 12.4574V12.4574C13.7117 12.7392 13.3246 12.8971 12.9214 12.8971C12.5183 12.8971 12.1311 12.7392 11.8429 12.4574L7.55715 8.1717C7.41418 8.03081 7.30065 7.8629 7.22315 7.67774C7.14566 7.49257 7.10576 7.29385 7.10576 7.09313C7.10576 6.8924 7.14566 6.69368 7.22315 6.50852C7.30065 6.32335 7.41418 6.15545 7.55715 6.01455V6.01455C7.83808 5.72869 7.9955 5.34393 7.9955 4.94313C7.9955 4.54233 7.83808 4.15756 7.55715 3.8717L4.84286 1.15741C4.55459 0.875577 4.16744 0.717773 3.76429 0.717773C3.36113 0.717773 2.97399 0.875577 2.68572 1.15741L2.05715 1.80027C1.31193 2.53561 0.842625 3.50513 0.728151 4.54579C0.613678 5.58646 0.861016 6.6348 1.42858 7.51456C4.38578 11.8727 8.14849 15.6257 12.5143 18.5717V18.5717Z" stroke="#D80E7E" stroke-width="1.5" stroke-linecap="round" stroke-linejoin="round"/>
</g>
<defs>
<clipPath id="clip0_240_7809">
<rect width="20" height="20" fill="white"/>
</clipPath>
</defs>
</svg>
