<svg width="24" height="24" viewBox="0 0 24 24" fill="none" xmlns="http://www.w3.org/2000/svg">
<g clip-path="url(#clip0_431_1070)">
<path d="M12.0006 13.7143C14.3675 13.7143 16.2863 11.7955 16.2863 9.42854C16.2863 7.0616 14.3675 5.14282 12.0006 5.14282C9.63362 5.14282 7.71484 7.0616 7.71484 9.42854C7.71484 11.7955 9.63362 13.7143 12.0006 13.7143Z" stroke="#D80E7E" stroke-width="1.5" stroke-linecap="round" stroke-linejoin="round"/>
<path d="M4.67969 20.4C5.44467 19.1443 6.51982 18.1065 7.80176 17.3864C9.0837 16.6663 10.5293 16.288 11.9997 16.288C13.47 16.288 14.9157 16.6663 16.1976 17.3864C17.4796 18.1065 18.5547 19.1443 19.3197 20.4" stroke="#D80E7E" stroke-width="1.5" stroke-linecap="round" stroke-linejoin="round"/>
<path d="M12.0003 23.1428C18.1543 23.1428 23.1431 18.154 23.1431 12C23.1431 5.84594 18.1543 0.857117 12.0003 0.857117C5.84625 0.857117 0.857422 5.84594 0.857422 12C0.857422 18.154 5.84625 23.1428 12.0003 23.1428Z" stroke="#D80E7E" stroke-width="1.5" stroke-linecap="round" stroke-linejoin="round"/>
</g>
<defs>
<clipPath id="clip0_431_1070">
<rect width="24" height="24" fill="white"/>
</clipPath>
</defs>
</svg>
