<svg width="24" height="24" viewBox="0 0 24 24" fill="none" xmlns="http://www.w3.org/2000/svg">
<path d="M20.0175 5.84981C18.54 2.75231 15.495 0.794809 12.0675 0.749809C8.63249 0.704809 5.58749 2.59481 4.05749 5.69981C2.46749 8.91731 2.84249 12.6448 5.04749 15.4423L10.74 22.6723C11.0325 23.0398 11.4675 23.2498 11.9325 23.2498C12.3975 23.2498 12.8325 23.0398 13.125 22.6723L18.9675 15.2473C21.09 12.5473 21.4875 8.95481 20.0175 5.85731V5.84981ZM17.7975 14.3173L11.925 21.7423L6.23249 14.5123C4.39499 12.1798 4.07999 9.05231 5.40749 6.36731C6.68249 3.78731 9.11999 2.25731 11.94 2.25731H12.0525C14.9475 2.30231 17.4225 3.88481 18.6675 6.50231C19.9125 9.11981 19.59 12.0373 17.7975 14.3173Z" fill="#D80E7E"/>
<path d="M11.9325 5.37012C9.67502 5.37012 7.83752 7.20762 7.83752 9.46512C7.83752 11.7226 9.67502 13.5601 11.9325 13.5601C14.19 13.5601 16.0275 11.7226 16.0275 9.46512C16.0275 7.20762 14.19 5.37012 11.9325 5.37012ZM11.9325 12.0526C10.5 12.0526 9.33752 10.8901 9.33752 9.45762C9.33752 8.02512 10.5 6.86262 11.9325 6.86262C13.365 6.86262 14.5275 8.02512 14.5275 9.45762C14.5275 10.8901 13.365 12.0526 11.9325 12.0526Z" fill="#D80E7E"/>
</svg>
