<svg width="100" height="100" viewBox="0 0 100 100" fill="none" xmlns="http://www.w3.org/2000/svg">
<g clip-path="url(#clip0_561_14)">
<path d="M53.9999 93.4299C79.6417 93.4299 100.428 72.6431 100.428 47.0013C100.428 21.3595 79.6417 0.572754 53.9999 0.572754C28.3581 0.572754 7.57129 21.3595 7.57129 47.0013C7.57129 72.6431 28.3581 93.4299 53.9999 93.4299Z" stroke="#090D2D" stroke-opacity="0.05" stroke-width="1.5" stroke-linecap="round" stroke-linejoin="round"/>
<path d="M53.9998 64.8598C63.862 64.8598 71.8569 56.8649 71.8569 47.0026C71.8569 37.1404 63.862 29.1455 53.9998 29.1455C44.1375 29.1455 36.1426 37.1404 36.1426 47.0026C36.1426 56.8649 44.1375 64.8598 53.9998 64.8598Z" stroke="#090D2D" stroke-opacity="0.05" stroke-width="1.5" stroke-linecap="round" stroke-linejoin="round"/>
<path d="M36.1426 47.0027V4.14551" stroke="#090D2D" stroke-opacity="0.05" stroke-width="1.5" stroke-linecap="round" stroke-linejoin="round"/>
<path d="M54 29.1455H96.8571" stroke="#090D2D" stroke-opacity="0.05" stroke-width="1.5" stroke-linecap="round" stroke-linejoin="round"/>
<path d="M71.8571 47V89.8571" stroke="#090D2D" stroke-opacity="0.05" stroke-width="1.5" stroke-linecap="round" stroke-linejoin="round"/>
<path d="M53.9998 64.855H11.1426" stroke="#090D2D" stroke-opacity="0.05" stroke-width="1.5" stroke-linecap="round" stroke-linejoin="round"/>
</g>
<defs>
<clipPath id="clip0_561_14">
<rect width="100" height="100" fill="white"/>
</clipPath>
</defs>
</svg>
