<svg width="24" height="24" viewBox="0 0 24 24" fill="none" xmlns="http://www.w3.org/2000/svg">
<g clip-path="url(#clip0_240_8320)">
<path d="M22.2857 11.1426H15.4286C14.9552 11.1426 14.5714 11.5263 14.5714 11.9997V22.2854C14.5714 22.7588 14.9552 23.1426 15.4286 23.1426H22.2857C22.7591 23.1426 23.1428 22.7588 23.1428 22.2854V11.9997C23.1428 11.5263 22.7591 11.1426 22.2857 11.1426Z" stroke="white" stroke-width="1.5" stroke-linecap="round" stroke-linejoin="round"/>
<path d="M22.2857 0.856934H15.4286C14.9552 0.856934 14.5714 1.24069 14.5714 1.71408V5.15979C14.5714 5.63318 14.9552 6.01693 15.4286 6.01693H22.2857C22.7591 6.01693 23.1428 5.63318 23.1428 5.15979V1.71408C23.1428 1.24069 22.7591 0.856934 22.2857 0.856934Z" stroke="white" stroke-width="1.5" stroke-linecap="round" stroke-linejoin="round"/>
<path d="M8.57146 0.856934H1.71432C1.24093 0.856934 0.857178 1.24069 0.857178 1.71408V11.9998C0.857178 12.4732 1.24093 12.8569 1.71432 12.8569H8.57146C9.04485 12.8569 9.42861 12.4732 9.42861 11.9998V1.71408C9.42861 1.24069 9.04485 0.856934 8.57146 0.856934Z" stroke="white" stroke-width="1.5" stroke-linecap="round" stroke-linejoin="round"/>
<path d="M8.57146 17.9824H1.71432C1.24093 17.9824 0.857178 18.3662 0.857178 18.8396V22.2853C0.857178 22.7587 1.24093 23.1424 1.71432 23.1424H8.57146C9.04485 23.1424 9.42861 22.7587 9.42861 22.2853V18.8396C9.42861 18.3662 9.04485 17.9824 8.57146 17.9824Z" stroke="white" stroke-width="1.5" stroke-linecap="round" stroke-linejoin="round"/>
</g>
<defs>
<clipPath id="clip0_240_8320">
<rect width="24" height="24" fill="white"/>
</clipPath>
</defs>
</svg>
