<svg width="100" height="100" viewBox="0 0 100 100" fill="none" xmlns="http://www.w3.org/2000/svg">
<path d="M76 11H24C22.8012 11.0329 21.6269 11.3475 20.5722 11.9183C19.5174 12.4891 18.6118 13.3001 17.9286 14.2857L4.92858 32.2857C3.96327 33.6498 3.48118 35.2972 3.55882 36.9665C3.63647 38.6358 4.26939 40.2314 5.35715 41.5L44.3571 86.4286C45.0248 87.2889 45.8804 87.9851 46.8584 88.4641C47.8364 88.9431 48.911 89.1921 50 89.1921C51.089 89.1921 52.1636 88.9431 53.1416 88.4641C54.1196 87.9851 54.9752 87.2889 55.6429 86.4286L94.6429 41.5C95.7306 40.2314 96.3635 38.6358 96.4412 36.9665C96.5188 35.2972 96.0367 33.6498 95.0714 32.2857L82.0714 14.2857C81.3882 13.3001 80.4826 12.4891 79.4278 11.9183C78.3731 11.3475 77.1988 11.0329 76 11V11Z" stroke="#090D2D" stroke-opacity="0.05" stroke-width="1.5" stroke-linecap="round" stroke-linejoin="round"/>
<path d="M46.2857 10.9287L28.8571 37.9287L50 89.0001" stroke="#090D2D" stroke-opacity="0.05" stroke-width="1.5" stroke-linecap="round" stroke-linejoin="round"/>
<path d="M53.9286 10.9287L71.2857 37.9287L50 89.0001" stroke="#090D2D" stroke-opacity="0.05" stroke-width="1.5" stroke-linecap="round" stroke-linejoin="round"/>
<path d="M3.71429 37.9287H96.2857" stroke="#090D2D" stroke-opacity="0.05" stroke-width="1.5" stroke-linecap="round" stroke-linejoin="round"/>
</svg>
