<svg width="160" height="160" viewBox="0 0 160 160" fill="none" xmlns="http://www.w3.org/2000/svg">
<circle cx="80" cy="80" r="80" fill="#D80E7E"/>
<path d="M88.6742 74.3841L70.0583 93L67 89.9417L85.6138 71.3258H69.2083V67H93V90.7917H88.6742V74.3841Z" fill="white"/>
<path d="M83.6128 26.9306C82.8005 26.8674 82.0726 26.6727 81.4293 26.3467C80.7973 26.011 80.2856 25.5625 79.8941 25.0014L81.7608 23.1087C82.0267 23.5115 82.3101 23.8254 82.611 24.0505C82.9127 24.265 83.2377 24.3858 83.5858 24.4129C84.5142 24.4851 85.0203 23.9832 85.104 22.9071L85.4746 18.1436L81.6449 17.8457L81.8332 15.4244L88.7648 15.9636L88.2206 22.9585C88.1081 24.4039 87.66 25.4569 86.8762 26.1177C86.0933 26.768 85.0055 27.0389 83.6128 26.9306Z" fill="white"/>
<path d="M93.5165 28.4874C92.6045 28.252 91.8427 27.8586 91.2309 27.3073C90.6191 26.7559 90.1916 26.1046 89.9484 25.3533C89.718 24.5943 89.7113 23.7948 89.9282 22.9546C90.145 22.1144 90.5366 21.4231 91.1028 20.8807C91.6793 20.341 92.3673 19.9831 93.1669 19.8069C93.9691 19.6206 94.8261 19.6451 95.7381 19.8805C96.65 20.1158 97.4118 20.5092 98.0236 21.0606C98.6483 21.6043 99.0771 22.2505 99.3101 22.9992C99.5431 23.7479 99.5512 24.5423 99.3343 25.3825C99.1174 26.2227 98.7246 26.9191 98.1557 27.4717C97.5895 28.0141 96.9001 28.3771 96.0877 28.5609C95.2855 28.7473 94.4284 28.7228 93.5165 28.4874ZM94.1155 26.1666C94.4536 26.2538 94.7706 26.2537 95.0664 26.1661C95.3725 26.0812 95.6408 25.91 95.8711 25.6525C96.1042 25.3848 96.2749 25.0409 96.3834 24.6208C96.4918 24.2007 96.5062 23.8274 96.4265 23.5008C96.3496 23.164 96.1977 22.8843 95.971 22.6619C95.7545 22.4421 95.4772 22.2885 95.139 22.2012C94.8111 22.1166 94.4942 22.1168 94.1881 22.2017C93.8923 22.2893 93.624 22.4605 93.3834 22.7153C93.1556 22.9625 92.9875 23.2962 92.8791 23.7163C92.7707 24.1364 92.7536 24.52 92.828 24.867C92.9152 25.2065 93.0671 25.4861 93.2836 25.7059C93.5103 25.9284 93.7876 26.0819 94.1155 26.1666Z" fill="white"/>
<path d="M99.1931 30.1708L102.483 22.2212L105.269 23.3743L101.98 31.324L99.1931 30.1708ZM104.24 21.9178C103.732 21.7074 103.38 21.3956 103.184 20.9826C102.988 20.5696 102.978 20.1528 103.152 19.7324C103.326 19.3119 103.628 19.0246 104.058 18.8705C104.488 18.7164 104.958 18.7446 105.466 18.955C105.975 19.1654 106.329 19.4722 106.528 19.8755C106.732 20.269 106.747 20.6759 106.573 21.0964C106.391 21.5364 106.082 21.8383 105.648 22.0022C105.228 22.1603 104.758 22.1322 104.24 21.9178Z" fill="white"/>
<path d="M112.796 27.2526C113.368 27.5951 113.814 28.0231 114.136 28.5364C114.463 29.0407 114.614 29.6122 114.589 30.2511C114.573 30.8954 114.337 31.5988 113.88 32.3614L111.352 36.5828L108.765 35.0332L111.04 31.2339C111.356 30.7073 111.475 30.2608 111.398 29.8943C111.336 29.5241 111.115 29.2248 110.734 28.9965C110.461 28.8333 110.173 28.7474 109.87 28.7385C109.573 28.7206 109.284 28.8007 109.005 28.9788C108.726 29.1568 108.464 29.4501 108.219 29.8587L106.082 33.4265L103.495 31.8768L107.915 24.4961L110.38 25.9723L109.124 28.0694L109.014 27.1712C109.617 26.8041 110.242 26.6358 110.89 26.6661C111.543 26.6874 112.178 26.8829 112.796 27.2526Z" fill="white"/>
<path d="M117.937 42.5179L124.2 36.5973L121.856 34.1171L123.667 32.4053L130.504 39.6382L128.693 41.3501L126.359 38.8814L120.095 44.802L117.937 42.5179Z" fill="white"/>
<path d="M133.058 47.8063C133.414 48.3697 133.62 48.953 133.677 49.5561C133.741 50.1537 133.619 50.732 133.309 51.2912C133.005 51.8594 132.477 52.3811 131.726 52.8563L127.568 55.4873L125.955 52.9386L129.698 50.5708C130.216 50.2426 130.524 49.8977 130.621 49.536C130.732 49.1775 130.669 48.8105 130.431 48.4349C130.262 48.1666 130.043 47.9603 129.777 47.816C129.519 47.666 129.225 47.6076 128.896 47.6408C128.566 47.674 128.2 47.8179 127.798 48.0725L124.283 50.2961L122.671 47.7474L132.624 41.4502L134.236 43.9988L129.488 47.0032L129.718 46.0311C130.421 45.9745 131.055 46.1056 131.62 46.4244C132.194 46.7376 132.673 47.1982 133.058 47.8063Z" fill="white"/>
<path d="M129.873 61.6089C129.51 60.6599 129.371 59.7616 129.455 58.9139C129.552 58.0723 129.837 57.3348 130.309 56.7015C130.794 56.0743 131.437 55.6077 132.238 55.3018C133.039 54.9958 133.822 54.9117 134.588 55.0494C135.368 55.1933 136.06 55.5352 136.662 56.0752C137.275 56.6114 137.742 57.2997 138.063 58.1399C138.365 58.9307 138.478 59.7147 138.401 60.4917C138.334 61.265 138.062 61.9634 137.587 62.5868C137.111 63.2103 136.429 63.692 135.539 64.0319C135.44 64.0697 135.325 64.1081 135.193 64.1474C135.06 64.1866 134.938 64.222 134.825 64.2537L132.395 57.8925L133.878 57.326L135.736 62.1895L134.913 61.2805C135.282 61.1507 135.572 60.9606 135.783 60.7104C135.997 60.47 136.129 60.193 136.179 59.8793C136.233 59.5756 136.195 59.2556 136.067 58.9195C135.938 58.5834 135.751 58.3152 135.505 58.1148C135.262 57.9243 134.976 57.8128 134.646 57.7801C134.326 57.7437 133.983 57.7954 133.618 57.9351L133.188 58.0994C132.792 58.2505 132.481 58.4599 132.255 58.7275C132.033 59.0051 131.901 59.3273 131.86 59.6942C131.829 60.0573 131.894 60.4514 132.057 60.8765C132.208 61.2719 132.391 61.5872 132.605 61.8224C132.833 62.0638 133.119 62.2775 133.462 62.4637L132.486 64.5356C131.914 64.3125 131.406 63.9627 130.964 63.4861C130.531 63.0057 130.167 62.38 129.873 61.6089Z" fill="white"/>
<path d="M132.633 69.8607L144.096 73.8765L144.339 76.9621L133.649 82.7415L133.392 79.4817L142.632 74.8995L142.729 76.1338L132.885 73.0571L132.633 69.8607ZM134.996 72.3652L137.37 72.9899L137.797 78.4018L135.551 79.391L134.996 72.3652Z" fill="white"/>
<path d="M132.636 87.232C132.749 86.2863 133.039 85.463 133.506 84.762C133.972 84.0716 134.561 83.5557 135.273 83.2144C135.996 82.8743 136.788 82.7556 137.65 82.8583C138.511 82.9611 139.248 83.2621 139.86 83.7614C140.472 84.2606 140.918 84.9 141.198 85.6794C141.487 86.4705 141.575 87.339 141.463 88.2846C141.347 89.2514 141.043 90.0623 140.549 90.7174C140.055 91.3726 139.418 91.8027 138.637 92.008L137.731 89.5501C138.154 89.398 138.472 89.1856 138.686 88.9127C138.91 88.641 139.043 88.3318 139.084 87.985C139.126 87.6383 139.085 87.3137 138.961 87.0111C138.837 86.7086 138.633 86.4552 138.348 86.2507C138.073 86.058 137.72 85.9359 137.289 85.8846C136.847 85.8319 136.465 85.8662 136.142 85.9875C135.817 86.1193 135.559 86.3176 135.367 86.5826C135.176 86.8475 135.059 87.1533 135.018 87.5C134.977 87.8468 135.028 88.1779 135.171 88.4935C135.325 88.8102 135.59 89.0923 135.966 89.3395L134.507 91.5155C133.796 91.1323 133.278 90.5642 132.952 89.8114C132.626 89.0585 132.521 88.1987 132.636 87.232Z" fill="white"/>
<path d="M130.462 97.1485L131.995 97.6195L132.435 97.5389L135.257 98.4063C135.712 98.5462 136.104 98.5118 136.434 98.3032C136.771 98.1078 137.033 97.7067 137.219 97.0998C137.341 96.7053 137.398 96.2855 137.391 95.8405C137.393 95.3986 137.327 95.0018 137.192 94.6502L139.448 94.2808C139.608 94.8393 139.67 95.4672 139.632 96.1643C139.602 96.8746 139.488 97.5535 139.289 98.2008C138.878 99.536 138.253 100.473 137.412 101.012C136.578 101.563 135.509 101.639 134.204 101.238L129.637 99.8341L130.462 97.1485ZM131.072 94.6789C131.274 94.0214 131.556 93.4993 131.919 93.1125C132.281 92.7257 132.692 92.47 133.151 92.3454C133.607 92.2309 134.072 92.2467 134.548 92.3928C135.054 92.5483 135.45 92.8084 135.736 93.1732C136.029 93.5512 136.19 94.0378 136.217 94.633C136.255 95.2313 136.143 95.9553 135.882 96.8049L135.285 98.7471L133.783 98.2854L134.259 96.7377C134.402 96.2725 134.427 95.9204 134.334 95.6816C134.238 95.4529 134.064 95.2996 133.811 95.2219C133.558 95.1442 133.326 95.1781 133.116 95.3237C132.905 95.4692 132.748 95.7089 132.645 96.0427C132.549 96.3563 132.538 96.6628 132.612 96.9623C132.693 97.2751 132.877 97.5419 133.163 97.7627L131.98 97.8308C131.46 97.5049 131.122 97.0744 130.965 96.5392C130.816 96.0172 130.851 95.3971 131.072 94.6789Z" fill="white"/>
<path d="M127.053 104.687C127.426 103.998 127.924 103.455 128.547 103.059C129.175 102.677 129.868 102.474 130.627 102.451C131.394 102.433 132.183 102.643 132.993 103.082C133.793 103.515 134.391 104.055 134.787 104.702C135.192 105.354 135.402 106.045 135.416 106.775C135.426 107.514 135.244 108.228 134.871 108.916C134.519 109.568 134.082 110.042 133.561 110.337C133.035 110.642 132.421 110.755 131.718 110.675C131.015 110.596 130.221 110.317 129.337 109.839C128.434 109.35 127.755 108.838 127.299 108.303C126.842 107.767 126.596 107.2 126.558 106.603C126.52 106.005 126.686 105.366 127.053 104.687ZM128.859 106.386C128.698 106.684 128.624 106.987 128.638 107.295C128.647 107.612 128.748 107.914 128.943 108.2C129.146 108.49 129.439 108.739 129.821 108.945C130.202 109.152 130.561 109.256 130.897 109.257C131.243 109.263 131.551 109.183 131.821 109.017C132.087 108.86 132.3 108.632 132.461 108.334C132.627 108.027 132.706 107.715 132.697 107.397C132.684 107.089 132.58 106.792 132.385 106.507C132.2 106.226 131.917 105.982 131.535 105.776C131.153 105.57 130.785 105.461 130.431 105.449C130.085 105.443 129.78 105.518 129.514 105.675C129.244 105.842 129.025 106.079 128.859 106.386ZM125.978 106.975L127.276 107.677L129.768 109.043L132.342 110.255L136.405 112.453L134.97 115.106L124.611 109.502L125.978 106.975Z" fill="white"/>
<path d="M120.375 114.547C121.025 113.766 121.74 113.205 122.52 112.863C123.302 112.536 124.084 112.423 124.868 112.524C125.652 112.641 126.374 112.973 127.033 113.521C127.691 114.07 128.148 114.712 128.403 115.447C128.66 116.198 128.7 116.968 128.524 117.758C128.356 118.555 127.985 119.299 127.409 119.99C126.868 120.641 126.239 121.123 125.524 121.436C124.817 121.756 124.075 121.861 123.299 121.752C122.522 121.643 121.768 121.283 121.036 120.674C120.955 120.606 120.865 120.524 120.766 120.428C120.667 120.332 120.576 120.243 120.493 120.16L124.85 114.927L126.07 115.942L122.739 119.943L123.129 118.781C123.423 119.039 123.73 119.199 124.052 119.26C124.366 119.329 124.672 119.309 124.97 119.199C125.261 119.097 125.522 118.908 125.752 118.631C125.983 118.355 126.125 118.06 126.179 117.747C126.226 117.442 126.183 117.138 126.05 116.835C125.926 116.538 125.713 116.264 125.412 116.014L125.058 115.719C124.733 115.448 124.398 115.28 124.054 115.214C123.703 115.155 123.357 115.198 123.017 115.342C122.686 115.493 122.374 115.743 122.083 116.092C121.812 116.418 121.627 116.731 121.526 117.034C121.428 117.351 121.381 117.704 121.387 118.095L119.102 118.258C119.017 117.65 119.073 117.036 119.272 116.417C119.479 115.804 119.847 115.181 120.375 114.547Z" fill="white"/>
<path d="M112.902 132.756C112.36 133.145 111.799 133.379 111.217 133.457C110.633 133.551 110.057 133.456 109.489 133.174C108.913 132.897 108.366 132.398 107.847 131.676L104.978 127.678L107.428 125.919L110.01 129.517C110.368 130.016 110.722 130.309 111.071 130.397C111.427 130.493 111.768 130.424 112.095 130.189C112.327 130.023 112.498 129.816 112.607 129.568C112.715 129.321 112.738 129.044 112.675 128.738C112.617 128.44 112.459 128.111 112.2 127.75L109.71 124.281L112.16 122.522L114.743 126.12C115.1 126.618 115.454 126.912 115.804 126.999C116.151 127.102 116.492 127.033 116.827 126.792C117.068 126.619 117.243 126.409 117.352 126.162C117.452 125.92 117.475 125.643 117.42 125.331C117.363 125.034 117.204 124.704 116.945 124.343L114.455 120.874L116.905 119.116L121.922 126.105L119.588 127.78L118.191 125.833L119.053 126.054C119.153 126.738 119.069 127.365 118.801 127.935C118.539 128.514 118.133 129.001 117.583 129.396C116.955 129.846 116.288 130.078 115.58 130.091C114.871 130.118 114.19 129.851 113.54 129.289L114.459 128.883C114.617 129.629 114.561 130.34 114.291 131.016C114.018 131.707 113.555 132.287 112.902 132.756Z" fill="white"/>
<path d="M100.034 125.963C100.458 125.796 100.913 125.696 101.4 125.662C101.874 125.623 102.287 125.659 102.638 125.771L102.44 128.119C102.214 128.038 101.977 128 101.73 128.007C101.468 128.008 101.229 128.051 101.013 128.137C100.708 128.257 100.494 128.422 100.371 128.629C100.249 128.837 100.182 129.114 100.17 129.46L100.169 130.536L100.058 130.904L99.9974 138.694L97.3255 139.75L97.4886 130.059C97.4919 129.261 97.5997 128.598 97.8121 128.071C98.0108 127.537 98.3004 127.104 98.681 126.771C99.0518 126.443 99.5029 126.173 100.034 125.963ZM99.9923 129.052L106.817 135.998L103.939 137.136L98.7848 131.697L99.9923 129.052Z" fill="white"/>
<path d="M85.4021 142.677L87.274 141.254L87.3452 141.725L85.1387 140.935L85.8213 139.291L87.8755 140.136L87.6614 140.313L87.2988 138.233L89.088 137.962L89.3565 140.057L89.0997 139.951L90.8123 138.536L91.9346 139.908L90.0604 141.315L89.9892 140.844L92.198 141.65L91.5311 143.292L89.4746 142.431L89.6886 142.254L90.0536 144.35L88.2644 144.62L87.9936 142.51L88.2504 142.616L86.5402 144.046L85.4021 142.677Z" fill="white"/>
<path d="M76.6233 133.046C77.4362 133.101 78.1658 133.289 78.8121 133.609C79.4472 133.939 79.963 134.383 80.3597 134.94L78.5106 136.85C78.241 136.45 77.9548 136.139 77.6518 135.916C77.3481 135.705 77.022 135.587 76.6736 135.563C75.7446 135.499 75.2432 136.006 75.1694 137.083L74.8429 141.849L78.6753 142.112L78.5093 144.535L71.5731 144.06L72.0525 137.06C72.1516 135.614 72.5899 134.557 73.3676 133.889C74.1445 133.231 75.2297 132.95 76.6233 133.046Z" fill="white"/>
<path d="M66.7064 131.581C67.6205 131.808 68.386 132.194 69.0029 132.74C69.6199 133.285 70.0535 133.933 70.3038 134.682C70.5413 135.438 70.5555 136.238 70.3466 137.08C70.1376 137.922 69.7526 138.617 69.1915 139.165C68.6201 139.71 67.9355 140.074 67.1376 140.258C66.3372 140.452 65.48 140.436 64.5659 140.209C63.6518 139.982 62.8863 139.596 62.2693 139.05C61.6395 138.512 61.2046 137.87 60.9646 137.124C60.7246 136.377 60.7091 135.583 60.918 134.741C61.127 133.899 61.5133 133.199 62.0769 132.641C62.638 132.093 63.3239 131.723 64.1346 131.532C64.935 131.338 65.7923 131.355 66.7064 131.581ZM66.1292 133.908C65.7903 133.824 65.4733 133.827 65.1783 133.917C64.8731 134.005 64.6064 134.179 64.3785 134.438C64.148 134.708 63.9805 135.054 63.876 135.475C63.7715 135.896 63.7606 136.269 63.8434 136.595C63.9235 136.931 64.078 137.209 64.3068 137.43C64.5254 137.647 64.8041 137.798 65.143 137.882C65.4717 137.964 65.7887 137.961 66.0939 137.873C66.3889 137.783 66.6555 137.609 66.8938 137.352C67.1192 137.103 67.2841 136.767 67.3886 136.346C67.4931 135.925 67.5065 135.541 67.4289 135.195C67.3385 134.856 67.184 134.578 66.9654 134.36C66.7366 134.14 66.4579 133.989 66.1292 133.908Z" fill="white"/>
<path d="M61.0071 129.949L57.7914 137.929L54.9941 136.801L58.2097 128.822L61.0071 129.949ZM56.0367 138.248C56.5471 138.454 56.902 138.763 57.1014 139.174C57.3008 139.585 57.3154 140.002 57.1453 140.424C56.9753 140.846 56.6758 141.136 56.247 141.294C55.8183 141.452 55.3487 141.428 54.8383 141.222C54.3279 141.017 53.971 140.713 53.7677 140.312C53.5604 139.92 53.5418 139.513 53.7119 139.091C53.8899 138.65 54.1952 138.345 54.628 138.177C55.0469 138.015 55.5165 138.039 56.0367 138.248Z" fill="white"/>
<path d="M47.4351 132.995C46.86 132.657 46.4093 132.234 46.0829 131.723C45.7512 131.222 45.5948 130.652 45.6138 130.013C45.6237 129.369 45.8534 128.663 46.3031 127.896L48.7922 123.651L51.3938 125.177L49.1536 128.997C48.8431 129.527 48.7278 129.974 48.8077 130.34C48.8731 130.71 49.0975 131.007 49.4809 131.232C49.7548 131.392 50.0433 131.476 50.3464 131.482C50.6442 131.497 50.932 131.414 51.2097 131.233C51.4873 131.053 51.7466 130.757 51.9875 130.346L54.0912 126.759L56.6928 128.284L52.3408 135.706L49.8625 134.253L51.099 132.144L51.2169 133.041C50.6181 133.414 49.9946 133.588 49.3465 133.564C48.693 133.548 48.0558 133.359 47.4351 132.995Z" fill="white"/>
<path d="M42.1537 117.777L35.9445 123.755L38.3115 126.214L36.5163 127.942L29.6135 120.773L31.4087 119.044L33.7647 121.491L39.9738 115.513L42.1537 117.777Z" fill="white"/>
<path d="M26.9835 112.628C26.6219 112.068 26.4103 111.486 26.3487 110.884C26.2782 110.287 26.3953 109.707 26.7 109.145C26.9989 108.574 27.5218 108.048 28.2685 107.566L32.4024 104.896L34.0383 107.43L30.3179 109.832C29.8023 110.165 29.4978 110.513 29.4044 110.876C29.2964 111.235 29.3629 111.601 29.604 111.975C29.7763 112.242 29.9963 112.446 30.2643 112.588C30.5234 112.735 30.8176 112.791 31.1468 112.755C31.4761 112.718 31.8408 112.571 32.2408 112.313L35.7346 110.057L37.3706 112.591L27.4761 118.979L25.8401 116.446L30.5606 113.398L30.3394 114.372C29.637 114.435 29.0019 114.31 28.4341 113.996C27.8574 113.688 27.3739 113.232 26.9835 112.628Z" fill="white"/>
<path d="M30.04 98.7949C30.4113 99.7405 30.559 100.638 30.4829 101.486C30.3931 102.328 30.1153 103.069 29.6495 103.706C29.17 104.338 28.5313 104.81 27.7335 105.124C26.9356 105.437 26.153 105.528 25.3854 105.398C24.6042 105.261 23.9097 104.926 23.3019 104.391C22.6842 103.861 22.211 103.177 21.8822 102.34C21.5727 101.552 21.4529 100.769 21.5226 99.9912C21.5825 99.2174 21.8473 98.5165 22.3169 97.8887C22.7866 97.2608 23.4647 96.7728 24.3511 96.4247C24.4496 96.386 24.5649 96.3464 24.6968 96.306C24.8287 96.2656 24.9507 96.229 25.063 96.1963L27.5522 102.535L26.0748 103.115L24.1716 98.2688L25.003 99.1701C24.6347 99.3034 24.3466 99.4961 24.1387 99.7483C23.9269 99.9906 23.7974 100.269 23.7502 100.583C23.6992 100.887 23.7394 101.207 23.871 101.542C24.0025 101.877 24.1924 102.143 24.4407 102.341C24.6852 102.529 24.9724 102.638 25.3024 102.668C25.6225 102.701 25.9647 102.646 26.3292 102.503L26.7576 102.335C27.1516 102.18 27.4605 101.968 27.6842 101.698C27.9041 101.419 28.0329 101.095 28.0706 100.728C28.0984 100.365 28.0292 99.9712 27.8628 99.5476C27.7081 99.1537 27.5224 98.84 27.3057 98.6068C27.0753 98.3676 26.7878 98.1565 26.4431 97.9735L27.3994 95.8926C27.9738 96.1104 28.4845 96.4555 28.9316 96.928C29.3688 97.4043 29.7382 98.0266 30.04 98.7949Z" fill="white"/>
<path d="M27.2036 90.574L15.7043 86.6644L15.4324 83.5811L26.0683 77.7031L26.3556 80.9604L17.1586 85.6279L17.0498 84.3945L26.9219 87.38L27.2036 90.574ZM24.8175 88.0915L22.4378 87.4887L21.9608 82.081L24.1982 81.071L24.8175 88.0915Z" fill="white"/>
<path d="M27.0408 73.2003C26.9368 74.147 26.6544 74.9729 26.1936 75.6782C25.734 76.3729 25.1497 76.8942 24.4408 77.2421C23.7214 77.5889 22.9304 77.7148 22.0678 77.62C21.2053 77.5252 20.4658 77.2311 19.8494 76.7375C19.2329 76.2439 18.7811 75.6087 18.4938 74.8319C18.1972 74.0435 18.101 73.1759 18.205 72.2292C18.3114 71.2615 18.6084 70.4478 19.0961 69.7881C19.5838 69.1284 20.2172 68.6924 20.9964 68.4799L21.9249 70.9294C21.5032 71.0853 21.1868 71.3007 20.9756 71.5756C20.7539 71.8493 20.6239 72.1597 20.5858 72.5068C20.5476 72.8539 20.5919 73.1782 20.7184 73.4795C20.845 73.7809 21.0515 74.0325 21.3381 74.2343C21.6153 74.4244 21.9695 74.5432 22.4008 74.5906C22.8426 74.6392 23.2247 74.6013 23.547 74.4771C23.8706 74.3423 24.1269 74.1416 24.3159 73.8749C24.5049 73.6082 24.6184 73.3013 24.6566 72.9542C24.6947 72.6071 24.6406 72.2765 24.4941 71.9623C24.3372 71.6469 24.0698 71.3674 23.692 71.1236L25.1303 68.9342C25.8448 69.3109 26.3684 69.8741 26.7012 70.6239C27.034 71.3738 27.1472 72.2326 27.0408 73.2003Z" fill="white"/>
<path d="M29.1216 63.2658L27.5848 62.8092L27.1457 62.8939L24.3156 62.053C23.8591 61.9174 23.4669 61.9554 23.1391 62.1671C22.8041 62.3656 22.5462 62.7692 22.3653 63.3778C22.2478 63.7734 22.1947 64.1937 22.206 64.6386C22.2071 65.0806 22.2771 65.4767 22.4159 65.827L20.1637 66.2176C19.998 65.6606 19.9305 65.0333 19.9611 64.3359C19.9846 63.6253 20.0927 62.9454 20.2856 62.2962C20.6835 60.9572 21.3003 60.0145 22.1361 59.468C22.9648 58.9083 24.0334 58.8229 25.342 59.2117L29.9219 60.5726L29.1216 63.2658ZM28.5352 65.741C28.3393 66.4004 28.0619 66.9251 27.7031 67.3153C27.3443 67.7054 26.936 67.965 26.4782 68.0939C26.0234 68.2127 25.5576 68.2012 25.0809 68.0596C24.5737 67.9088 24.1752 67.6524 23.8853 67.2903C23.5884 66.9151 23.4234 66.43 23.3904 65.8351C23.3473 65.2372 23.4523 64.5122 23.7055 63.6601L24.2843 61.7125L25.7906 62.1601L25.3294 63.7121C25.1908 64.1787 25.1689 64.531 25.2638 64.769C25.3617 64.9968 25.5374 65.1483 25.791 65.2237C26.0446 65.299 26.2762 65.263 26.4856 65.1154C26.695 64.9679 26.8495 64.7268 26.9489 64.392C27.0424 64.0776 27.0507 63.771 26.9739 63.4721C26.8899 63.1602 26.7038 62.8951 26.4153 62.6769L27.598 62.5978C28.1208 62.9188 28.463 63.3461 28.6246 63.8798C28.779 64.4004 28.7492 65.0208 28.5352 65.741Z" fill="white"/>
<path d="M32.4604 55.6963C32.0942 56.3885 31.6012 56.9357 30.9813 57.3381C30.357 57.7261 29.6658 57.9351 28.9077 57.965C28.1403 57.99 27.3497 57.7873 26.5359 57.3568C25.7315 56.9312 25.1283 56.3967 24.7265 55.7531C24.3154 55.1046 24.0992 54.4156 24.0781 53.6862C24.0619 52.9473 24.2369 52.2318 24.6031 51.5396C24.9495 50.8849 25.3818 50.4072 25.8999 50.1067C26.423 49.7968 27.0364 49.6783 27.74 49.7513C28.4437 49.8242 29.2398 50.0957 30.1284 50.5658C31.0357 51.0458 31.72 51.5515 32.1812 52.0828C32.6424 52.614 32.8945 53.1784 32.9376 53.7759C32.9807 54.3733 32.8216 55.0134 32.4604 55.6963ZM30.6386 54.0142C30.797 53.7149 30.8679 53.4112 30.8513 53.1031C30.8396 52.7857 30.7353 52.4851 30.5382 52.2013C30.3318 51.9125 30.0369 51.6667 29.6534 51.4638C29.2699 51.2609 28.91 51.1604 28.5739 51.1621C28.2284 51.1589 27.9212 51.2418 27.6522 51.4108C27.3882 51.5704 27.177 51.7999 27.0187 52.0992C26.8554 52.4079 26.7796 52.7209 26.7912 53.0384C26.8078 53.3464 26.9146 53.6424 27.1117 53.9262C27.2993 54.2051 27.5849 54.4459 27.9685 54.6488C28.352 54.8517 28.7211 54.9572 29.076 54.9653C29.4215 54.9685 29.7262 54.8903 29.9902 54.7307C30.2592 54.5617 30.4753 54.3229 30.6386 54.0142ZM33.5143 53.3986L32.2094 52.7083L29.7053 51.3656L27.1196 50.1773L23.0366 48.0173L24.4469 45.3514L34.8578 50.859L33.5143 53.3986Z" fill="white"/>
<path d="M39.0469 45.7745C38.4042 46.5612 37.6942 47.129 36.9172 47.478C36.1386 47.8121 35.3572 47.9321 34.5732 47.8381C33.7876 47.7291 33.0629 47.4035 32.3991 46.8612C31.7354 46.3188 31.2726 45.681 31.0108 44.9478C30.7474 44.1997 30.7 43.4299 30.8685 42.6383C31.0288 41.84 31.3935 41.0926 31.9626 40.3961C32.4982 39.7405 33.1222 39.2528 33.8346 38.9329C34.5387 38.6063 35.2794 38.4941 36.0568 38.5964C36.8342 38.6986 37.5917 39.051 38.3292 39.6536C38.4111 39.7205 38.502 39.8016 38.6019 39.8969C38.7017 39.9921 38.7933 40.0807 38.8768 40.1625L34.5682 45.4357L33.339 44.4314L36.6332 40.3997L36.2543 41.5659C35.9578 41.31 35.6487 41.1531 35.327 41.0952C35.012 41.0292 34.706 41.0524 34.409 41.1651C34.1187 41.2695 33.8597 41.461 33.6321 41.7396C33.4044 42.0183 33.265 42.3143 33.2138 42.6278C33.1694 42.9331 33.215 43.2369 33.3507 43.5391C33.4782 43.8346 33.6936 44.1062 33.9968 44.3539L34.3532 44.6452C34.681 44.913 35.0173 45.0784 35.3621 45.1415C35.7135 45.1963 36.0586 45.1503 36.3973 45.0034C36.7278 44.8498 37.037 44.5968 37.3249 44.2445C37.5927 43.9167 37.7753 43.6012 37.8726 43.2981C37.9684 42.9801 38.0118 42.6261 38.0026 42.2359L40.2853 42.0512C40.3765 42.6587 40.3255 43.273 40.1324 43.8941C39.931 44.5085 39.5692 45.1353 39.0469 45.7745Z" fill="white"/>
<path d="M46.3507 27.4974C46.8887 27.1036 47.4481 26.8646 48.029 26.7804C48.6122 26.6813 49.189 26.7706 49.7594 27.0481C50.3383 27.3194 50.8903 27.8137 51.4153 28.531L54.3218 32.5016L51.8882 34.283L49.2724 30.7094C48.9098 30.2142 48.5534 29.9243 48.203 29.8398C47.8464 29.7467 47.5059 29.819 47.1814 30.0565C46.9508 30.2253 46.7823 30.4339 46.6757 30.6824C46.569 30.9309 46.5489 31.208 46.6152 31.5135C46.6752 31.8105 46.8365 32.1384 47.099 32.497L49.6211 35.9425L47.1875 37.7239L44.5717 34.1503C44.2092 33.6551 43.8527 33.3652 43.5023 33.2807C43.1543 33.1814 42.8137 33.2536 42.4807 33.4974C42.2416 33.6724 42.0688 33.8842 41.9622 34.1327C41.8641 34.375 41.8439 34.652 41.9017 34.9638C41.9617 35.2608 42.123 35.5886 42.3856 35.9473L44.9076 39.3927L42.474 41.1741L37.3924 34.232L39.7107 32.535L41.1264 34.469L40.2622 34.2558C40.1558 33.573 40.234 32.9453 40.4968 32.3727C40.7533 31.7915 41.1548 31.3009 41.7013 30.9008C42.3246 30.4445 42.9899 30.2067 43.697 30.1874C44.4065 30.1534 45.0892 30.4142 45.7452 30.97L44.8292 31.3848C44.6643 30.64 44.7139 29.9283 44.9779 29.2499C45.2442 28.5566 45.7018 27.9725 46.3507 27.4974Z" fill="white"/>
<path d="M59.2847 34.1687C58.8631 34.3399 58.4087 34.4444 57.9215 34.4823C57.4482 34.5261 57.0354 34.4938 56.683 34.3856L56.8595 32.0354C57.0859 32.1148 57.3228 32.1499 57.5704 32.1408C57.8317 32.1375 58.0702 32.092 58.2859 32.0044C58.5899 31.881 58.8022 31.7148 58.923 31.5059C59.0437 31.297 59.1081 31.0196 59.1161 30.6737L59.1076 29.5978L59.2147 29.2288L59.2037 21.4383L61.8657 20.3574L61.7923 30.0496C61.7964 30.8474 61.6948 31.5111 61.4873 32.0408C61.2935 32.5763 61.0079 33.0121 60.6304 33.3481C60.2627 33.6802 59.8141 33.9537 59.2847 34.1687ZM59.2981 31.0795L52.409 24.1973L55.2769 23.0328L60.481 28.4234L59.2981 31.0795Z" fill="white"/>
<path d="M73.7628 17.3195L71.9041 18.7594L71.8286 18.2893L74.0422 19.0591L73.3748 20.7097L71.3129 19.8833L71.5253 19.7045L71.9071 21.7814L70.1205 22.0683L69.8327 19.9763L70.0905 20.0796L68.391 21.5101L67.256 20.149L69.1173 18.7247L69.1928 19.1949L66.9766 18.4094L67.6283 16.7613L69.6928 17.6034L69.4803 17.7822L69.096 15.6896L70.8827 15.4027L71.173 17.5104L70.9152 17.4071L72.6122 15.9609L73.7628 17.3195Z" fill="white"/>
</svg>
