<svg width="50" height="50" viewBox="0 0 50 50" fill="none" xmlns="http://www.w3.org/2000/svg">
<rect x="1.00003" y="1" width="48" height="48" rx="24" fill="white"/>
<path d="M22.5246 35.7565C25.0582 35.1349 27.6194 34.5291 29.7826 33.2322C29.9619 33.1247 30.1384 33.0125 30.312 32.8951C30.2309 32.8844 30.1499 32.8726 30.0689 32.8607C28.6938 32.6597 27.3517 32.3038 26.0694 31.8132C24.9747 31.3943 23.9238 30.8773 22.933 30.2754C22.3732 32.1941 21.999 34.0975 21.7796 35.9408C22.0275 35.8789 22.2758 35.8175 22.5246 35.7565Z" fill="#D80E7E"/>
<path d="M25 0C11.1929 0 0 11.1929 0 25C0 38.8071 11.1929 50 25 50C38.8071 50 50 38.8071 50 25C50 11.1929 38.8071 0 25 0ZM24.3181 12.3426C24.3181 13.8936 23.0607 15.151 21.5097 15.151C19.9587 15.151 18.7014 13.8936 18.7014 12.3426C18.7014 10.7916 19.9587 9.53429 21.5097 9.53429C23.0608 9.53422 24.3181 10.7916 24.3181 12.3426ZM28.0775 28.8388C29.2727 29.3176 30.5208 29.6834 31.7957 29.9242C32.5598 30.0686 33.3415 30.1923 34.1192 30.2441C35.0563 30.3066 35.9911 30.2761 36.9298 30.1957C36.3347 33.0767 33.594 35.239 30.6259 36.3213C28.9603 36.9286 27.2092 37.266 25.4362 37.5292C24.1583 37.7188 22.8691 37.8705 21.5921 38.0564C21.4348 40.7655 21.6047 43.2966 21.9956 45.4932C21.011 43.0773 20.2305 40.7066 19.6728 38.3762C17.0492 38.8831 14.4754 39.7138 12.5101 41.3544C13.808 38.9543 16.4956 37.5428 19.2968 36.634C18.66 33.326 18.49 30.0978 18.8443 26.9347C17.3615 25.3199 16.2013 23.4602 15.4854 21.4488C14.4439 18.5228 14.3684 15.3385 15.1393 12.3502C15.5251 10.8544 16.1228 9.40395 16.9199 8.05202C17.483 7.0972 18.3821 5.75695 19.8549 4.50665C18.6276 6.31965 18.0946 8.18199 17.9612 8.68807C17.566 10.1879 17.2221 11.7056 17.1845 13.248C17.1095 16.3294 17.9224 19.4412 19.6374 22.0999C19.6781 22.1631 19.7201 22.2255 19.7618 22.288C20.3277 20.3073 21.1177 18.3501 22.1483 16.4127C22.1483 16.4127 36.6434 11.426 37.4899 11.1529C30.718 15.454 26.5489 21.0421 24.1788 26.7399C25.3803 27.578 26.6932 28.2843 28.0775 28.8388Z" fill="#D80E7E"/>
</svg>
