<svg width="166" height="50" viewBox="0 0 166 50" fill="none" xmlns="http://www.w3.org/2000/svg">
<path d="M67.3125 35V14.6289H75.3379C76.8783 14.6289 78.1908 14.9023 79.2754 15.4492C80.3691 15.9961 81.2031 16.7708 81.7773 17.7734C82.3607 18.7669 82.6523 19.9382 82.6523 21.2871C82.6523 22.6361 82.3607 23.7982 81.7773 24.7734C81.194 25.7487 80.3464 26.4961 79.2344 27.0156C78.1315 27.526 76.7962 27.7812 75.2285 27.7812H69.8555V24.3223H74.5312C75.3607 24.3223 76.0443 24.2083 76.582 23.9805C77.1289 23.7526 77.5345 23.4154 77.7988 22.9688C78.0723 22.5221 78.209 21.9616 78.209 21.2871C78.209 20.6035 78.0723 20.0339 77.7988 19.5781C77.5345 19.1133 77.1289 18.7624 76.582 18.5254C76.0352 18.2793 75.347 18.1562 74.5176 18.1562H71.6055V35H67.3125ZM78.6191 35L73.6562 25.7305H78.3047L83.377 35H78.6191ZM84.7168 35V19.7148H88.9414V35H84.7168ZM86.8223 17.7598C86.1934 17.7598 85.6556 17.5501 85.209 17.1309C84.7624 16.7116 84.5391 16.2057 84.5391 15.6133C84.5391 15.0208 84.7624 14.5195 85.209 14.1094C85.6556 13.6901 86.1934 13.4805 86.8223 13.4805C87.4603 13.4805 88.0026 13.6901 88.4492 14.1094C88.8958 14.5195 89.1191 15.0208 89.1191 15.6133C89.1191 16.2057 88.8958 16.7116 88.4492 17.1309C88.0026 17.5501 87.4603 17.7598 86.8223 17.7598ZM99.5508 19.7148V22.9141H90.3496V19.7148H99.5508ZM92.4414 16.0781H96.666V30.2969C96.666 30.8073 96.7799 31.1855 97.0078 31.4316C97.2357 31.6686 97.6003 31.7871 98.1016 31.7871C98.2656 31.7871 98.4479 31.7734 98.6484 31.7461C98.849 31.7188 99.0221 31.6868 99.168 31.6504L99.8379 34.8223C99.373 34.959 98.9219 35.0592 98.4844 35.123C98.056 35.1868 97.6322 35.2188 97.2129 35.2188C95.6908 35.2188 94.515 34.8405 93.6855 34.084C92.8561 33.3184 92.4414 32.2428 92.4414 30.8574V16.0781ZM105.949 26.168V35H101.725V14.6289H105.812V22.4355H106.004C106.35 21.5332 106.906 20.8223 107.672 20.3027C108.447 19.7832 109.413 19.5234 110.57 19.5234C111.628 19.5234 112.553 19.7559 113.346 20.2207C114.139 20.6764 114.754 21.3327 115.191 22.1895C115.638 23.0462 115.861 24.0762 115.861 25.2793V35H111.623V26.0312C111.623 25.0924 111.382 24.3587 110.898 23.8301C110.424 23.3014 109.755 23.0371 108.889 23.0371C108.305 23.0371 107.795 23.1647 107.357 23.4199C106.92 23.666 106.574 24.0215 106.318 24.4863C106.072 24.9512 105.949 25.5117 105.949 26.168ZM118.35 35V19.7148H122.355V22.4355H122.547C122.866 21.5332 123.399 20.8223 124.146 20.3027C124.894 19.7832 125.783 19.5234 126.812 19.5234C127.861 19.5234 128.749 19.7878 129.479 20.3164C130.217 20.8359 130.709 21.5423 130.955 22.4355H131.119C131.429 21.5514 131.994 20.8451 132.814 20.3164C133.635 19.7878 134.601 19.5234 135.713 19.5234C137.135 19.5234 138.292 19.9746 139.186 20.877C140.088 21.7793 140.539 23.0599 140.539 24.7188V35H136.301V25.5664C136.301 24.7096 136.073 24.0716 135.617 23.6523C135.171 23.2331 134.61 23.0234 133.936 23.0234C133.17 23.0234 132.568 23.2695 132.131 23.7617C131.702 24.2448 131.488 24.8828 131.488 25.6758V35H127.387V25.457C127.387 24.7188 127.173 24.1309 126.744 23.6934C126.316 23.2467 125.755 23.0234 125.062 23.0234C124.589 23.0234 124.165 23.1419 123.791 23.3789C123.417 23.6159 123.121 23.944 122.902 24.3633C122.684 24.7734 122.574 25.2656 122.574 25.8398V35H118.35ZM147.389 35.2871C146.423 35.2871 145.552 35.1185 144.777 34.7812C144.012 34.4349 143.41 33.9245 142.973 33.25C142.535 32.5755 142.316 31.737 142.316 30.7344C142.316 29.8776 142.471 29.1667 142.781 28.6016C143.091 28.0273 143.515 27.5625 144.053 27.207C144.59 26.8516 145.201 26.5827 145.885 26.4004C146.568 26.2181 147.293 26.0905 148.059 26.0176C148.943 25.9355 149.654 25.8535 150.191 25.7715C150.729 25.6895 151.121 25.5664 151.367 25.4023C151.622 25.2292 151.75 24.9831 151.75 24.6641V24.5957C151.75 23.9668 151.549 23.4792 151.148 23.1328C150.757 22.7865 150.201 22.6133 149.48 22.6133C148.724 22.6133 148.118 22.7819 147.662 23.1191C147.215 23.4473 146.919 23.8665 146.773 24.377L142.85 24.0625C143.05 23.1328 143.442 22.3307 144.025 21.6562C144.609 20.9727 145.361 20.4486 146.281 20.084C147.211 19.7103 148.286 19.5234 149.508 19.5234C150.355 19.5234 151.167 19.6237 151.941 19.8242C152.716 20.0247 153.404 20.3346 154.006 20.7539C154.617 21.1641 155.1 21.6973 155.455 22.3535C155.811 23.0098 155.988 23.7891 155.988 24.6914V35H151.955V32.8672H151.846C151.6 33.3503 151.271 33.7741 150.861 34.1387C150.451 34.4941 149.959 34.7767 149.385 34.9863C148.811 35.1868 148.145 35.2871 147.389 35.2871ZM148.605 32.3613C149.225 32.3613 149.772 32.2383 150.246 31.9922C150.729 31.737 151.103 31.3997 151.367 30.9805C151.641 30.5521 151.777 30.0736 151.777 29.5449V27.918C151.65 28 151.467 28.0775 151.23 28.1504C151.003 28.2233 150.747 28.2871 150.465 28.3418C150.182 28.3965 149.9 28.4466 149.617 28.4922C149.335 28.5286 149.079 28.5651 148.852 28.6016C148.35 28.6745 147.913 28.793 147.539 28.957C147.165 29.112 146.874 29.3262 146.664 29.5996C146.464 29.8639 146.363 30.1966 146.363 30.5977C146.363 31.1719 146.573 31.6094 146.992 31.9102C147.411 32.2109 147.949 32.3613 148.605 32.3613Z" fill="white"/>
<path d="M161.484 35.2598C160.81 35.2598 160.24 35.0319 159.775 34.5762C159.311 34.1204 159.078 33.5553 159.078 32.8809C159.078 32.2064 159.311 31.6413 159.775 31.1855C160.24 30.7298 160.81 30.502 161.484 30.502C162.159 30.502 162.729 30.7298 163.193 31.1855C163.658 31.6413 163.891 32.2064 163.891 32.8809C163.891 33.5553 163.658 34.1204 163.193 34.5762C162.729 35.0319 162.159 35.2598 161.484 35.2598Z" fill="#D80E7E"/>
<rect x="1" y="1" width="48" height="48" rx="24" fill="white"/>
<path d="M22.5246 35.7565C25.0582 35.1349 27.6194 34.5291 29.7826 33.2322C29.9619 33.1247 30.1384 33.0125 30.312 32.8951C30.2309 32.8844 30.1499 32.8726 30.0689 32.8607C28.6938 32.6597 27.3517 32.3038 26.0694 31.8132C24.9747 31.3943 23.9238 30.8773 22.933 30.2754C22.3732 32.1941 21.999 34.0975 21.7796 35.9408C22.0275 35.8789 22.2758 35.8175 22.5246 35.7565Z" fill="#D80E7E"/>
<path d="M25 0C11.1929 0 0 11.1929 0 25C0 38.8071 11.1929 50 25 50C38.8071 50 50 38.8071 50 25C50 11.1929 38.8071 0 25 0ZM24.3181 12.3426C24.3181 13.8936 23.0607 15.151 21.5097 15.151C19.9587 15.151 18.7014 13.8936 18.7014 12.3426C18.7014 10.7916 19.9587 9.53429 21.5097 9.53429C23.0608 9.53422 24.3181 10.7916 24.3181 12.3426ZM28.0775 28.8388C29.2727 29.3176 30.5208 29.6834 31.7957 29.9242C32.5598 30.0686 33.3415 30.1923 34.1192 30.2441C35.0563 30.3066 35.9911 30.2761 36.9298 30.1957C36.3347 33.0767 33.594 35.239 30.6259 36.3213C28.9603 36.9286 27.2092 37.266 25.4362 37.5292C24.1583 37.7188 22.8691 37.8705 21.5921 38.0564C21.4348 40.7655 21.6047 43.2966 21.9956 45.4932C21.011 43.0773 20.2305 40.7066 19.6728 38.3762C17.0492 38.8831 14.4754 39.7138 12.5101 41.3544C13.808 38.9543 16.4956 37.5428 19.2968 36.634C18.66 33.326 18.49 30.0978 18.8443 26.9347C17.3615 25.3199 16.2013 23.4602 15.4854 21.4488C14.4439 18.5228 14.3684 15.3385 15.1393 12.3502C15.5251 10.8544 16.1228 9.40395 16.9199 8.05202C17.483 7.0972 18.3821 5.75695 19.8549 4.50665C18.6276 6.31965 18.0946 8.18199 17.9612 8.68808C17.566 10.1879 17.2221 11.7056 17.1845 13.248C17.1095 16.3294 17.9224 19.4412 19.6374 22.0999C19.6781 22.1631 19.7201 22.2255 19.7618 22.288C20.3277 20.3074 21.1177 18.3501 22.1483 16.4127C22.1483 16.4127 36.6434 11.426 37.4899 11.1529C30.718 15.454 26.5489 21.0421 24.1788 26.7399C25.3803 27.578 26.6932 28.2843 28.0775 28.8388Z" fill="#D80E7E"/>
</svg>
